<?xml version="1.0" encoding="utf-8"?>
<!-- Generator: Adobe Illustrator 24.0.1, SVG Export Plug-In . SVG Version: 6.00 Build 0)  -->
<svg version="1.1" id="Camada_1" xmlns="http://www.w3.org/2000/svg" xmlns:xlink="http://www.w3.org/1999/xlink" x="0px" y="0px"
	 viewBox="0 0 552 500" style="enable-background:new 0 0 552 500;" xml:space="preserve">
<style type="text/css">
	.st0{display:none;}
	.st1{display:inline;}
	.st2{fill:#F5F5F5;}
	.st3{fill:#8543E3;}
</style>
<g id="Background_Complete">
</g>
<g id="Background_Simple" class="st0">
	<g class="st1">
		<path class="st2" d="M-161.3,254.8l1.9,3.1c15.7,25.9,44.2,41.6,74.2,39.7c3.9-0.2,7.7-0.8,11.5-1.6c27.3-5.8,51-26.5,60.8-52.9
			c5.8-15.5,7.4-33.4,18.4-45.8c14.3-16.1,38.5-16.6,59.9-15.9s45.6,0.1,59.8-16c8.9-10.1,11.7-24.4,11-37.9
			c-1.9-35.8-26.8-67.8-58.5-83.7S8.6,26.5-26.1,33.5c-48.6,9.8-94.8,36.7-122.6,78.3C-176.5,153.3-183.6,209.9-161.3,254.8z"/>
	</g>
	<g class="st1">
		<path class="st2" d="M490.9,219.7l-1.9-3.1c-15.7-25.9-44.2-41.6-74.2-39.7c-3.9,0.2-7.7,0.8-11.5,1.6
			c-27.3,5.8-51,26.5-60.8,52.9c-5.8,15.5-7.4,33.4-18.4,45.7c-14.3,16-38.5,16.5-59.9,15.9c-21.3-0.7-45.6-0.1-59.8,16
			c-8.9,10.1-11.7,24.4-11,38c1.9,35.8,26.8,67.8,58.5,83.7S321,448,355.7,441c48.6-9.8,94.8-36.7,122.6-78.3
			C506.1,321.2,513.2,264.6,490.9,219.7z"/>
	</g>
</g>
<g id="Floor">
</g>
<g id="Screen">
</g>
<g id="Photos">
</g>
<g id="Character_1">
</g>
<g id="Character_3">
</g>
<g id="Character_2">
	
		<image style="display:none;overflow:visible;enable-background:new    ;" width="1920" height="1080" xlink:href="AD2D1F61.png"  transform="matrix(0.4208 0 0 0.4496 -210.0655 0)">
	</image>
	<path class="st3" d="M22.3,12.5C6.2,46.1-5.1,125.4,26.9,173.6c27.5,41.4,67.6,30.5,104.5,82.7c27.4,38.7,19.7,65,38.2,105.4
		c34.7,75.9,115.9,101.6,157.4,114.8c192.8,61,510.1-170,488.2-320.2C785.1-50.2,106.5-162.7,22.3,12.5z"/>
</g>
</svg>
