<?xml version="1.0" encoding="utf-8"?>
<!-- Generator: Adobe Illustrator 24.0.1, SVG Export Plug-In . SVG Version: 6.00 Build 0)  -->
<svg version="1.1" id="Camada_1" xmlns="http://www.w3.org/2000/svg" xmlns:xlink="http://www.w3.org/1999/xlink" x="0px" y="0px"
	 viewBox="0 0 50 50" style="enable-background:new 0 0 50 50;" xml:space="preserve">
<style type="text/css">
	.st0{fill:#7645DD;}
</style>
<g>
	<path class="st0" d="M37.3,12c-3-2.9-6.9-2.6-12.8-2.6h0c-6.3,0-12.3-0.6-14.5,5.3c-0.9,2.4-0.8,5.6-0.8,10.1c0,4-0.1,7.7,0.8,10
		c2.3,5.9,8.3,5.3,14.5,5.3c6,0,12.2,0.6,14.5-5.3c0.9-2.4,0.8-5.5,0.8-10C39.9,18.8,40.3,14.9,37.3,12z M37.1,31
		c-0.3,7.2-5.8,6.4-12.5,6.4C12.4,37.3,12,37,12,24.7c0-12.4,1-12.6,11.2-12.6C36.3,12.1,38,10.7,37.1,31z"/>
	<path class="st0" d="M34.6,16.6c0,1-0.8,1.8-1.8,1.8c-1,0-1.8-0.8-1.8-1.8s0.8-1.8,1.8-1.8C33.8,14.7,34.6,15.5,34.6,16.6z"/>
	<path class="st0" d="M24.6,16.9c-4.4,0-7.9,3.5-7.9,7.9s3.5,7.9,7.9,7.9c4.4,0,7.9-3.5,7.9-7.9S28.9,16.9,24.6,16.9z M24.6,29.9
		c-6.8,0-6.8-10.2,0-10.2C31.4,19.6,31.4,29.9,24.6,29.9z"/>
</g>
</svg>
