<?xml version="1.0" encoding="utf-8"?>
<!-- Generator: Adobe Illustrator 24.0.1, SVG Export Plug-In . SVG Version: 6.00 Build 0)  -->
<svg version="1.1" id="Camada_1" xmlns="http://www.w3.org/2000/svg" xmlns:xlink="http://www.w3.org/1999/xlink" x="0px" y="0px"
	 viewBox="0 0 1920 1080" style="enable-background:new 0 0 1920 1080;" xml:space="preserve">
<style type="text/css">
	.st0{fill:#FCFCFC;}
</style>
<path class="st0" d="M421.7,490.9L421.7,490.9c-27.8,0-50.3-22.5-50.3-50.3V334.7c0-27.8,22.5-50.3,50.3-50.3l0,0
	c27.8,0,50.3,22.5,50.3,50.3v105.9C471.9,468.4,449.4,490.9,421.7,490.9z"/>
<path class="st0" d="M420.3,796.5L420.3,796.5c-27.8,0-50.3-22.5-50.3-50.3V640.3c0-27.8,22.5-50.3,50.3-50.3l0,0
	c27.8,0,50.3,22.5,50.3,50.3v105.9C470.6,774,448.1,796.5,420.3,796.5z"/>
<path class="st0" d="M371.4,539.8L371.4,539.8c0,27.8-22.5,50.3-50.3,50.3H215.3c-27.8,0-50.3-22.5-50.3-50.3l0,0
	c0-27.8,22.5-50.3,50.3-50.3h105.9C348.9,489.5,371.4,512,371.4,539.8z"/>
<path class="st0" d="M678.4,539.8L678.4,539.8c0,27.8-22.5,50.3-50.3,50.3H522.2c-27.8,0-50.3-22.5-50.3-50.3l0,0
	c0-27.8,22.5-50.3,50.3-50.3h105.9C655.9,489.5,678.4,512,678.4,539.8z"/>
<g>
	<g>
		<path class="st0" d="M1083.1,313.2c14.4,14.4,21.6,36,21.6,64.8v111.8h-56.6V386.7c0-15.5-3.2-27-9.6-34.7
			c-6.4-7.6-15.5-11.4-27.4-11.4c-13.3,0-23.8,4.3-31.6,12.9c-7.8,8.6-11.6,21.4-11.6,38.3v98h-56.6V386.7c0-30.7-12.3-46.1-37-46.1
			c-13.1,0-23.5,4.3-31.2,12.9c-7.8,8.6-11.6,21.4-11.6,38.3v98h-56.6V294.5h54.1V317c7.3-8.2,16.2-14.5,26.7-18.9
			c10.5-4.4,22.1-6.5,34.7-6.5c13.8,0,26.3,2.7,37.4,8.2s20.1,13.4,26.9,23.8c8-10.2,18.1-18,30.3-23.6c12.2-5.6,25.6-8.4,40.1-8.4
			C1049.3,291.6,1068.7,298.8,1083.1,313.2z"/>
		<path class="st0" d="M1304,313.2c16.2,14.4,24.3,36.1,24.3,65.2v111.5h-53v-24.3c-10.7,18.1-30.5,27.2-59.5,27.2
			c-15,0-28-2.5-39-7.6c-11-5.1-19.4-12.1-25.2-21.1c-5.8-9-8.7-19.1-8.7-30.5c0-18.1,6.8-32.4,20.5-42.8
			c13.7-10.4,34.8-15.6,63.3-15.6h45c0-12.3-3.8-21.8-11.3-28.5c-7.5-6.6-18.8-10-33.8-10c-10.4,0-20.6,1.6-30.7,4.9
			s-18.6,7.7-25.6,13.3l-20.3-39.6c10.7-7.5,23.4-13.3,38.3-17.4c14.9-4.1,30.2-6.2,45.9-6.2C1264.5,291.6,1287.8,298.8,1304,313.2z
			 M1255.7,447.9c7.5-4.5,12.8-11.1,16-19.8v-20h-38.8c-23.2,0-34.8,7.6-34.8,22.9c0,7.3,2.8,13,8.5,17.2c5.7,4.2,13.5,6.4,23.4,6.4
			C1239.6,454.6,1248.2,452.4,1255.7,447.9z"/>
		<path class="st0" d="M1382.4,258.2c-6.5-6.1-9.8-13.6-9.8-22.5c0-8.9,3.3-16.5,9.8-22.5c6.5-6.1,15-9.1,25.4-9.1
			c10.4,0,18.9,2.9,25.4,8.7c6.5,5.8,9.8,13.1,9.8,21.8c0,9.4-3.3,17.2-9.8,23.4c-6.5,6.2-15,9.3-25.4,9.3
			C1397.4,267.3,1388.9,264.3,1382.4,258.2z M1379.5,294.5h56.6v195.3h-56.6V294.5z"/>
		<path class="st0" d="M1506.9,486.8c-15.5-4-27.8-9-37-15.1l18.9-40.7c8.7,5.6,19.2,10.1,31.6,13.6c12.3,3.5,24.4,5.3,36.3,5.3
			c24,0,35.9-5.9,35.9-17.8c0-5.6-3.3-9.6-9.8-12s-16.6-4.5-30.1-6.2c-16-2.4-29.2-5.2-39.6-8.4c-10.4-3.1-19.4-8.7-27-16.7
			c-7.6-8-11.4-19.4-11.4-34.1c0-12.3,3.6-23.3,10.7-32.9s17.5-17,31.2-22.3c13.7-5.3,29.8-8,48.5-8c13.8,0,27.5,1.5,41.2,4.5
			c13.7,3,25,7.2,33.9,12.5l-18.9,40.3c-17.2-9.7-35.9-14.5-56.3-14.5c-12.1,0-21.2,1.7-27.2,5.1c-6.1,3.4-9.1,7.8-9.1,13.1
			c0,6,3.3,10.3,9.8,12.7c6.5,2.4,16.9,4.7,31.2,6.9c16,2.7,29,5.5,39.2,8.5c10.2,3,19,8.5,26.5,16.5s11.3,19.1,11.3,33.4
			c0,12.1-3.6,22.9-10.9,32.3s-17.8,16.8-31.8,22c-13.9,5.2-30.4,7.8-49.6,7.8C1538.2,492.7,1522.4,490.7,1506.9,486.8z"/>
	</g>
</g>
<g>
	<g>
		<path class="st0" d="M733.5,867c-6.9-2.2-12.5-5.3-16.9-9.4l7.3-13.4c7.8,7,18,10.5,30.9,10.5c11.1,0,19.6-3.3,25.4-9.8
			s8.7-16,8.7-28.3V608.9H807v208.4c0,16.2-4.5,29.1-13.4,38.7c-9,9.6-21.5,14.3-37.8,14.3C747.8,870.3,740.4,869.2,733.5,867z
			 M787.4,558.6c-2.9-2.8-4.4-6.2-4.4-10.3c0-4.1,1.5-7.6,4.4-10.5c2.9-2.9,6.4-4.4,10.5-4.4c4.1,0,7.6,1.4,10.5,4.2
			c2.9,2.8,4.4,6.2,4.4,10.3s-1.5,7.6-4.4,10.5c-2.9,2.9-6.4,4.4-10.5,4.4C793.8,562.8,790.3,561.4,787.4,558.6z"/>
		<path class="st0" d="M909.2,787.5c-14.4-8.2-25.7-19.7-33.9-34.3c-8.2-14.6-12.3-31.2-12.3-49.5s4.1-34.9,12.3-49.5
			c8.2-14.6,19.5-26.1,33.9-34.3c14.4-8.2,30.5-12.3,48.5-12.3c17.9,0,34.1,4.1,48.5,12.3c14.4,8.2,25.7,19.7,33.9,34.3
			c8.2,14.7,12.3,31.2,12.3,49.5s-4.1,34.9-12.3,49.5c-8.2,14.7-19.5,26.1-33.9,34.3c-14.4,8.2-30.6,12.3-48.5,12.3
			C939.8,799.8,923.6,795.7,909.2,787.5z M996.7,773.3c11.5-6.8,20.6-16.2,27.2-28.3c6.6-12.1,10-25.9,10-41.4s-3.3-29.3-10-41.4
			c-6.7-12.1-15.7-21.5-27.2-28.3s-24.5-10.2-39-10.2s-27.5,3.4-39,10.2c-11.5,6.8-20.6,16.2-27.2,28.3c-6.7,12.1-10,25.9-10,41.4
			c0,15.5,3.3,29.3,10,41.4c6.7,12.1,15.7,21.5,27.2,28.3c11.5,6.8,24.5,10.2,39,10.2S985.2,780.1,996.7,773.3z"/>
		<path class="st0" d="M1251.7,619.6c14.3,8.1,25.5,19.5,33.6,34.1c8.1,14.7,12.2,31.3,12.2,49.9c0,18.6-4.1,35.2-12.2,49.7
			c-8.1,14.5-19.3,25.9-33.6,34.1c-14.3,8.2-30.3,12.3-47.9,12.3c-16.9,0-32.3-4-45.9-12.2c-13.7-8.1-24.3-19.4-31.8-33.9v44.7
			h-17.4V529h18.2v123.1c7.5-14,18-25,31.6-32.8c13.6-7.9,28.7-11.8,45.4-11.8C1221.4,607.4,1237.4,611.5,1251.7,619.6z
			 M1241.9,773.3c11.6-6.8,20.8-16.2,27.4-28.3c6.7-12.1,10-25.9,10-41.4s-3.3-29.3-10-41.4c-6.7-12.1-15.8-21.5-27.4-28.3
			s-24.7-10.2-39.2-10.2s-27.5,3.4-39,10.2c-11.5,6.8-20.6,16.2-27.2,28.3c-6.7,12.1-10,25.9-10,41.4c0,15.5,3.3,29.3,10,41.4
			c6.7,12.1,15.7,21.5,27.2,28.3c11.5,6.8,24.5,10.2,39,10.2S1230.3,780.1,1241.9,773.3z"/>
		<path class="st0" d="M1358.1,792.9c-13.8-4.6-24.6-10.4-32.3-17.4l8.3-14.5c7.7,6.5,17.7,12,29.9,16.3c12.2,4.4,25,6.5,38.3,6.5
			c19.1,0,33.2-3.1,42.3-9.4c9.1-6.3,13.6-15,13.6-26.1c0-8-2.5-14.3-7.4-18.9c-5-4.6-11.1-8-18.3-10.2c-7.3-2.2-17.3-4.5-30.1-6.9
			c-15-2.7-27.1-5.6-36.3-8.7c-9.2-3.1-17.1-8.2-23.6-15.3c-6.5-7-9.8-16.7-9.8-29c0-15,6.2-27.4,18.7-37.2
			c12.5-9.8,30.2-14.7,53.2-14.7c12.1,0,24.1,1.7,35.9,5.1c11.8,3.4,21.5,7.9,29,13.4l-8.3,14.5c-7.8-5.6-16.6-9.8-26.5-12.7
			c-9.9-2.9-20.1-4.4-30.5-4.4c-17.7,0-31,3.3-39.9,9.8c-9,6.5-13.4,15.1-13.4,25.8c0,8.5,2.5,15.1,7.6,19.8
			c5.1,4.7,11.3,8.2,18.7,10.5c7.4,2.3,17.7,4.8,31,7.4c14.8,2.7,26.7,5.5,35.8,8.5c9.1,3,16.8,7.9,23.1,14.7
			c6.3,6.8,9.4,16.1,9.4,28c0,15.7-6.5,28.3-19.6,37.8c-13.1,9.4-31.5,14.2-55.2,14.2C1386.4,799.8,1371.9,797.5,1358.1,792.9z"/>
	</g>
</g>
</svg>
