<?xml version="1.0" encoding="utf-8"?>
<!-- Generator: Adobe Illustrator 24.0.1, SVG Export Plug-In . SVG Version: 6.00 Build 0)  -->
<svg version="1.1" id="Camada_1" xmlns="http://www.w3.org/2000/svg" xmlns:xlink="http://www.w3.org/1999/xlink" x="0px" y="0px"
	 viewBox="0 0 1920 1080" style="enable-background:new 0 0 1920 1080;" xml:space="preserve">
<style type="text/css">
	.st0{fill:#240B47;}
	.st1{fill:#FC8C28;}
	.st2{fill:#8543E3;}
	.st3{fill:#C6A6F2;}
</style>
<path class="st0" d="M421.69,490.91L421.69,490.91c-27.75,0-50.25-22.5-50.25-50.25V334.73c0-27.75,22.5-50.25,50.25-50.25h0
	c27.75,0,50.25,22.5,50.25,50.25v105.94C471.94,468.41,449.44,490.91,421.69,490.91z"/>
<path class="st1" d="M420.33,796.49L420.33,796.49c-27.75,0-50.25-22.5-50.25-50.25V640.31c0-27.75,22.5-50.25,50.25-50.25h0
	c27.75,0,50.25,22.5,50.25,50.25v105.94C470.58,774,448.08,796.49,420.33,796.49z"/>
<path class="st2" d="M371.44,539.81L371.44,539.81c0,27.75-22.5,50.25-50.25,50.25H215.25c-27.75,0-50.25-22.5-50.25-50.25v0
	c0-27.75,22.5-50.25,50.25-50.25l105.94,0C348.94,489.55,371.44,512.05,371.44,539.81z"/>
<path class="st3" d="M678.38,539.81L678.38,539.81c0,27.75-22.5,50.25-50.25,50.25H522.19c-27.75,0-50.25-22.5-50.25-50.25v0
	c0-27.75,22.5-50.25,50.25-50.25l105.94,0C655.88,489.55,678.38,512.05,678.38,539.81z"/>
<g>
	<g>
		<path class="st2" d="M1083.09,313.22c14.39,14.4,21.6,36,21.6,64.8v111.81h-56.63v-103.1c0-15.48-3.21-27.04-9.62-34.67
			c-6.41-7.62-15.55-11.44-27.41-11.44c-13.31,0-23.84,4.3-31.58,12.89c-7.75,8.59-11.62,21.36-11.62,38.3v98.01H911.2v-103.1
			c0-30.73-12.34-46.1-37.03-46.1c-13.07,0-23.48,4.3-31.22,12.89c-7.75,8.59-11.62,21.36-11.62,38.3v98.01h-56.63v-195.3h54.09
			v22.51c7.26-8.22,16.15-14.52,26.68-18.88c10.53-4.36,22.08-6.53,34.67-6.53c13.79,0,26.26,2.72,37.39,8.17
			c11.13,5.45,20.08,13.38,26.86,23.78c7.99-10.16,18.09-18.03,30.31-23.6c12.22-5.56,25.59-8.35,40.11-8.35
			C1049.27,291.62,1068.69,298.83,1083.09,313.22z"/>
		<path class="st2" d="M1303.98,313.22c16.21,14.4,24.32,36.12,24.32,65.16v111.45h-53v-24.32c-10.65,18.15-30.49,27.23-59.53,27.23
			c-15.01,0-28.01-2.54-39.02-7.62c-11.02-5.08-19.42-12.1-25.23-21.06c-5.81-8.95-8.71-19.11-8.71-30.49
			c0-18.15,6.83-32.43,20.51-42.84c13.67-10.4,34.79-15.61,63.35-15.61h45.01c0-12.34-3.75-21.84-11.25-28.5
			c-7.5-6.65-18.76-9.98-33.76-9.98c-10.41,0-20.63,1.63-30.67,4.9c-10.04,3.27-18.58,7.69-25.59,13.25l-20.33-39.57
			c10.65-7.5,23.41-13.31,38.3-17.42c14.88-4.11,30.19-6.17,45.92-6.17C1264.53,291.62,1287.77,298.83,1303.98,313.22z
			 M1255.7,447.9c7.5-4.48,12.82-11.07,15.97-19.78v-19.97h-38.84c-23.23,0-34.85,7.62-34.85,22.87c0,7.26,2.84,13.01,8.53,17.24
			c5.68,4.24,13.49,6.35,23.42,6.35C1239.6,454.62,1248.2,452.38,1255.7,447.9z"/>
		<path class="st2" d="M1382.39,258.23c-6.53-6.05-9.8-13.55-9.8-22.51c0-8.95,3.27-16.46,9.8-22.51c6.53-6.05,15-9.08,25.41-9.08
			c10.4,0,18.88,2.9,25.41,8.71c6.54,5.81,9.8,13.07,9.8,21.78c0,9.44-3.27,17.24-9.8,23.42c-6.53,6.17-15.01,9.26-25.41,9.26
			C1397.39,267.3,1388.92,264.28,1382.39,258.23z M1379.49,294.53h56.63v195.3h-56.63V294.53z"/>
		<path class="st2" d="M1506.9,486.75c-15.49-3.99-27.83-9.01-37.03-15.07l18.88-40.66c8.71,5.57,19.24,10.11,31.58,13.61
			c12.34,3.51,24.44,5.26,36.3,5.26c23.96,0,35.94-5.93,35.94-17.79c0-5.56-3.27-9.56-9.8-11.98c-6.53-2.42-16.58-4.48-30.13-6.17
			c-15.97-2.42-29.17-5.2-39.57-8.35c-10.41-3.14-19.42-8.71-27.04-16.7c-7.62-7.99-11.44-19.36-11.44-34.12
			c0-12.34,3.57-23.29,10.71-32.85c7.14-9.56,17.54-17,31.22-22.33c13.67-5.32,29.82-7.99,48.46-7.99c13.79,0,27.53,1.51,41.2,4.54
			c13.67,3.03,24.99,7.2,33.94,12.52l-18.88,40.29c-17.19-9.68-35.94-14.52-56.27-14.52c-12.1,0-21.18,1.7-27.23,5.08
			c-6.05,3.39-9.08,7.75-9.08,13.07c0,6.05,3.27,10.29,9.8,12.71c6.54,2.42,16.94,4.72,31.22,6.9c15.97,2.67,29.04,5.51,39.21,8.53
			c10.16,3.03,19,8.53,26.5,16.52c7.5,7.99,11.25,19.12,11.25,33.4c0,12.1-3.63,22.87-10.89,32.31s-17.85,16.76-31.76,21.96
			c-13.92,5.2-30.44,7.81-49.55,7.81C1538.24,492.74,1522.39,490.74,1506.9,486.75z"/>
	</g>
</g>
<g>
	<g>
		<path class="st0" d="M733.5,866.99c-6.9-2.18-12.52-5.33-16.88-9.44l7.26-13.43c7.75,7.02,18.03,10.53,30.86,10.53
			c11.13,0,19.6-3.27,25.41-9.8s8.71-15.97,8.71-28.32V608.88h18.15v208.37c0,16.21-4.48,29.1-13.43,38.66
			c-8.96,9.56-21.54,14.34-37.75,14.34C747.84,870.25,740.4,869.17,733.5,866.99z M787.41,558.61c-2.9-2.78-4.36-6.23-4.36-10.35
			c0-4.11,1.45-7.62,4.36-10.53c2.9-2.9,6.41-4.36,10.53-4.36c4.11,0,7.62,1.4,10.53,4.17c2.9,2.79,4.36,6.23,4.36,10.35
			c0,4.12-1.45,7.62-4.36,10.53c-2.9,2.9-6.42,4.36-10.53,4.36C793.82,562.78,790.32,561.39,787.41,558.61z"/>
		<path class="st0" d="M909.2,787.49c-14.4-8.22-25.72-19.66-33.94-34.3c-8.23-14.64-12.34-31.16-12.34-49.55
			c0-18.39,4.11-34.91,12.34-49.55c8.22-14.64,19.54-26.08,33.94-34.31c14.4-8.22,30.55-12.34,48.46-12.34
			c17.91,0,34.06,4.12,48.46,12.34c14.4,8.23,25.71,19.67,33.94,34.31c8.22,14.65,12.34,31.16,12.34,49.55
			c0,18.39-4.12,34.91-12.34,49.55c-8.23,14.65-19.55,26.08-33.94,34.3c-14.4,8.23-30.56,12.34-48.46,12.34
			C939.75,799.83,923.6,795.72,909.2,787.49z M996.69,773.33c11.49-6.77,20.57-16.21,27.23-28.32c6.65-12.1,9.98-25.89,9.98-41.38
			c0-15.49-3.33-29.28-9.98-41.38c-6.66-12.1-15.73-21.54-27.23-28.31c-11.5-6.77-24.5-10.17-39.02-10.17s-27.53,3.39-39.02,10.17
			c-11.5,6.78-20.57,16.22-27.23,28.31c-6.66,12.1-9.98,25.9-9.98,41.38c0,15.49,3.32,29.29,9.98,41.38
			c6.65,12.1,15.73,21.54,27.23,28.32c11.49,6.78,24.5,10.16,39.02,10.16S985.19,780.11,996.69,773.33z"/>
		<path class="st0" d="M1251.71,619.59c14.28,8.11,25.47,19.48,33.58,34.12c8.11,14.65,12.16,31.28,12.16,49.92
			c0,18.64-4.06,35.21-12.16,49.73c-8.11,14.52-19.3,25.9-33.58,34.12c-14.28,8.23-30.26,12.34-47.92,12.34
			c-16.94,0-32.25-4.05-45.92-12.16c-13.68-8.11-24.27-19.42-31.76-33.94v44.65h-17.42V529.02h18.15v123.06
			c7.5-14.03,18.03-24.99,31.58-32.85c13.55-7.86,28.68-11.8,45.38-11.8C1221.45,607.43,1237.42,611.49,1251.71,619.59z
			 M1241.9,773.33c11.62-6.77,20.75-16.21,27.41-28.32c6.65-12.1,9.98-25.89,9.98-41.38c0-15.49-3.33-29.28-9.98-41.38
			c-6.66-12.1-15.79-21.54-27.41-28.31c-11.62-6.77-24.69-10.17-39.21-10.17s-27.53,3.39-39.02,10.17
			c-11.5,6.78-20.57,16.22-27.23,28.31c-6.66,12.1-9.98,25.9-9.98,41.38c0,15.49,3.32,29.29,9.98,41.38
			c6.65,12.1,15.73,21.54,27.23,28.32c11.49,6.78,24.5,10.16,39.02,10.16S1230.29,780.11,1241.9,773.33z"/>
		<path class="st0" d="M1358.06,792.93c-13.79-4.59-24.57-10.4-32.31-17.42l8.35-14.52c7.74,6.53,17.73,11.98,29.95,16.34
			c12.22,4.36,24.99,6.53,38.3,6.53c19.12,0,33.22-3.14,42.29-9.44c9.08-6.29,13.61-15,13.61-26.14c0-7.99-2.48-14.28-7.44-18.88
			c-4.96-4.59-11.07-7.99-18.33-10.16c-7.26-2.18-17.31-4.48-30.13-6.9c-15.01-2.66-27.11-5.56-36.3-8.71
			c-9.2-3.14-17.06-8.22-23.6-15.25c-6.53-7.02-9.8-16.7-9.8-29.04c0-15,6.23-27.41,18.7-37.21c12.46-9.8,30.19-14.7,53.18-14.7
			c12.1,0,24.08,1.7,35.94,5.08c11.85,3.39,21.54,7.87,29.04,13.43l-8.35,14.52c-7.75-5.56-16.58-9.8-26.5-12.71
			c-9.93-2.9-20.09-4.36-30.49-4.36c-17.67,0-30.98,3.27-39.93,9.8c-8.96,6.53-13.43,15.13-13.43,25.77
			c0,8.47,2.54,15.07,7.62,19.78c5.08,4.72,11.31,8.23,18.7,10.53c7.38,2.3,17.73,4.78,31.04,7.44c14.76,2.67,26.68,5.51,35.76,8.53
			c9.08,3.03,16.76,7.93,23.05,14.7c6.29,6.78,9.44,16.1,9.44,27.95c0,15.73-6.53,28.32-19.6,37.75
			c-13.07,9.44-31.46,14.16-55.18,14.16C1386.38,799.83,1371.86,797.53,1358.06,792.93z"/>
	</g>
</g>
</svg>
