<?xml version="1.0" encoding="utf-8"?>
<!-- Generator: Adobe Illustrator 24.0.1, SVG Export Plug-In . SVG Version: 6.00 Build 0)  -->
<svg version="1.1" id="Capa_1" xmlns="http://www.w3.org/2000/svg" xmlns:xlink="http://www.w3.org/1999/xlink" x="0px" y="0px"
	 viewBox="0 0 325 325" style="enable-background:new 0 0 325 325;" xml:space="preserve">
<style type="text/css">
	.st0{fill:#7645DD;}
</style>
<path class="st0" d="M310.4,104c21.4-21.4,18.9-58.8-5.6-83.3c-24.3-24.3-61-27.3-82.5-7c-0.4,0.2-0.8,0.5-1.1,0.9L14,222
	c-0.3,0.3-0.5,0.6-0.7,0.9c-0.1,0.1-0.1,0.2-0.2,0.3c-0.1,0.2-0.2,0.4-0.3,0.6c-0.1,0.1-0.1,0.3-0.2,0.4c-0.1,0.2-0.1,0.4-0.2,0.6
	c0,0.1-0.1,0.3-0.1,0.4c0,0.1,0,0.1,0,0.2L0.1,317.9c-0.2,1.8,0.4,3.7,1.7,5c1.1,1.1,2.7,1.8,4.3,1.8c0.2,0,0.5,0,0.7,0l93-11.5
	c0.1,0,0.1,0,0.2,0c0.1,0,0.3-0.1,0.4-0.1c0.2-0.1,0.4-0.1,0.6-0.2c0.1,0,0.3-0.1,0.4-0.2c0.2-0.1,0.4-0.2,0.6-0.3
	c0.1-0.1,0.2-0.1,0.3-0.2c0.3-0.2,0.6-0.4,0.9-0.7l181-181.2c0,0,0,0,0,0c0,0,0,0,0,0l25.8-25.8C310.2,104.2,310.3,104.1,310.4,104z
	 M296.3,29.2c18.1,18.1,21.8,44.5,9.5,61.7l-71.5-71.6C251.6,7.1,278.1,10.9,296.3,29.2z M99,298.6l-14.1-14.2l172.6-172.7
	l14.1,14.2L99,298.6z M50.5,307.1l-32.6-32.6l4.7-35.4l13.8,13.8c0.1,0.1,0.1,0.1,0.1,0.2c0.1,0.1,0.1,0.1,0.2,0.1l49.4,49.5
	L50.5,307.1z M76.4,276l-27.2-27.2L221.8,76l27.2,27.2L76.4,276z M40.7,240.3l-14-14L199.3,53.5l14,14L40.7,240.3z M15.9,289.5
	l19.5,19.5L13,311.7L15.9,289.5z M280,117.4L207.7,45l17.6-17.7l72.3,72.4L280,117.4z"/>
</svg>
