<?xml version="1.0" encoding="utf-8"?>
<!-- Generator: Adobe Illustrator 24.0.1, SVG Export Plug-In . SVG Version: 6.00 Build 0)  -->
<svg version="1.1" id="Camada_1" xmlns="http://www.w3.org/2000/svg" xmlns:xlink="http://www.w3.org/1999/xlink" x="0px" y="0px"
	 viewBox="0 0 1183 861" style="enable-background:new 0 0 1183 861;" xml:space="preserve">
<style type="text/css">
	.st0{fill:#FFFFFF;}
	.st1{fill:none;}
	.st2{enable-background:new    ;}
	.st3{fill:#8543E3;}
	.st4{fill:#8543E3;stroke:#6247AA;stroke-width:0.25;stroke-miterlimit:10;}
	.st5{fill:#FC8C28;}
</style>
<g>
	<g>
		
			<image style="overflow:visible;opacity:0.2;enable-background:new    ;" width="561" height="837" xlink:href="DC2412F2.png"  transform="matrix(1 0 0 1 26 15)">
		</image>
		<g>
			<path class="st0" d="M506.2,829.8h-413c-32.4,0-58.6-26.3-58.6-58.6V82.4c0-32.4,26.3-58.6,58.6-58.6h413.1
				c32.4,0,58.6,26.3,58.6,58.6v688.7C564.9,803.5,538.6,829.8,506.2,829.8z"/>
		</g>
	</g>
	<path class="st0" d="M505.8,181.5H93.6c-32.6,0-59.1-26.5-59.1-59.1V82.9c0-32.6,26.5-59.1,59.1-59.1h412.1
		c32.6,0,59.1,26.5,59.1,59.1v39.5C564.9,155,538.4,181.5,505.8,181.5z"/>
	<rect x="34.5" y="122.8" class="st0" width="531.5" height="58.2"/>
</g>
<rect x="33.4" y="80.8" class="st1" width="532.6" height="101.2"/>
<g class="st2">
	<path class="st3" d="M166.9,128.1c-3.3-1-6-2.2-8-3.8l3.6-7.9c1.9,1.4,4.2,2.6,6.9,3.4c2.7,0.9,5.3,1.3,8,1.3c3,0,5.2-0.4,6.6-1.3
		c1.4-0.9,2.1-2.1,2.1-3.5c0-1.1-0.4-2-1.3-2.7c-0.8-0.7-1.9-1.3-3.2-1.7c-1.3-0.4-3.1-0.9-5.3-1.4c-3.4-0.8-6.3-1.6-8.5-2.5
		c-2.2-0.8-4.1-2.1-5.7-3.9c-1.6-1.8-2.4-4.2-2.4-7.2c0-2.6,0.7-5,2.1-7.1c1.4-2.1,3.6-3.8,6.4-5.1c2.9-1.2,6.4-1.9,10.5-1.9
		c2.9,0,5.7,0.3,8.5,1s5.2,1.7,7.2,3l-3.2,7.9c-4.2-2.4-8.4-3.6-12.5-3.6c-2.9,0-5.1,0.5-6.5,1.4s-2.1,2.2-2.1,3.7s0.8,2.7,2.4,3.5
		c1.6,0.8,4.1,1.5,7.4,2.2c3.4,0.8,6.3,1.6,8.5,2.5c2.2,0.8,4.1,2.1,5.7,3.9c1.6,1.8,2.4,4.2,2.4,7.2c0,2.6-0.7,4.9-2.2,7.1
		c-1.4,2.1-3.6,3.8-6.5,5.1c-2.9,1.2-6.4,1.9-10.5,1.9C173.7,129.5,170.2,129,166.9,128.1z"/>
	<path class="st3" d="M225.3,127.1c-1,0.7-2.2,1.3-3.6,1.6c-1.4,0.4-3,0.5-4.6,0.5c-4.1,0-7.3-1.1-9.6-3.2c-2.3-2.1-3.4-5.2-3.4-9.3
		v-14.3h-5.4v-7.7h5.4v-8.5h10.1v8.5h8.7v7.7h-8.7v14.1c0,1.5,0.4,2.6,1.1,3.4c0.8,0.8,1.8,1.2,3.2,1.2c1.6,0,2.9-0.4,4.1-1.3
		L225.3,127.1z"/>
	<path class="st3" d="M257.4,97.3c2.9,2.6,4.3,6.4,4.3,11.6v19.8h-9.4v-4.3c-1.9,3.2-5.4,4.8-10.6,4.8c-2.7,0-5-0.5-6.9-1.4
		c-2-0.9-3.5-2.2-4.5-3.7c-1-1.6-1.5-3.4-1.5-5.4c0-3.2,1.2-5.8,3.6-7.6c2.4-1.9,6.2-2.8,11.3-2.8h8c0-2.2-0.7-3.9-2-5.1
		s-3.3-1.8-6-1.8c-1.9,0-3.7,0.3-5.5,0.9s-3.3,1.4-4.6,2.4l-3.6-7c1.9-1.3,4.2-2.4,6.8-3.1s5.4-1.1,8.2-1.1
		C250.4,93.5,254.5,94.8,257.4,97.3z M248.8,121.3c1.3-0.8,2.3-2,2.8-3.5v-3.6h-6.9c-4.1,0-6.2,1.4-6.2,4.1c0,1.3,0.5,2.3,1.5,3.1
		c1,0.8,2.4,1.1,4.2,1.1C246,122.5,247.5,122.1,248.8,121.3z"/>
	<path class="st3" d="M302.4,97.4c2.6,2.6,4,6.4,4,11.5v19.9h-10.1v-18.3c0-2.8-0.6-4.8-1.8-6.2c-1.2-1.4-2.9-2-5.2-2
		c-2.5,0-4.6,0.8-6.1,2.4s-2.3,3.9-2.3,7v17.2h-10.1V94h9.6v4.1c1.3-1.5,3-2.6,5-3.4s4.2-1.2,6.5-1.2
		C296.3,93.5,299.7,94.8,302.4,97.4z"/>
	<path class="st3" d="M351.2,80.8v47.9h-9.6v-4c-2.5,3-6.1,4.5-10.8,4.5c-3.3,0-6.2-0.7-8.9-2.2c-2.6-1.5-4.7-3.6-6.2-6.3
		c-1.5-2.7-2.3-5.9-2.3-9.4c0-3.6,0.8-6.7,2.3-9.4c1.5-2.7,3.6-4.8,6.2-6.3s5.6-2.2,8.9-2.2c4.4,0,7.9,1.4,10.4,4.2V80.8H351.2z
		 M338.8,118.4c1.7-1.7,2.5-4.1,2.5-7s-0.8-5.3-2.5-7s-3.8-2.6-6.3-2.6c-2.6,0-4.7,0.9-6.4,2.6c-1.7,1.7-2.5,4.1-2.5,7
		s0.8,5.3,2.5,7s3.8,2.6,6.4,2.6S337.2,120.1,338.8,118.4z"/>
	<path class="st3" d="M387,97.3c2.9,2.6,4.3,6.4,4.3,11.6v19.8h-9.4v-4.3c-1.9,3.2-5.4,4.8-10.6,4.8c-2.7,0-5-0.5-6.9-1.4
		c-2-0.9-3.5-2.2-4.5-3.7c-1-1.6-1.5-3.4-1.5-5.4c0-3.2,1.2-5.8,3.6-7.6c2.4-1.9,6.2-2.8,11.3-2.8h8c0-2.2-0.7-3.9-2-5.1
		s-3.3-1.8-6-1.8c-1.9,0-3.7,0.3-5.5,0.9s-3.3,1.4-4.6,2.4l-3.6-7c1.9-1.3,4.2-2.4,6.8-3.1c2.6-0.7,5.4-1.1,8.2-1.1
		C379.9,93.5,384.1,94.8,387,97.3z M378.4,121.3c1.3-0.8,2.3-2,2.8-3.5v-3.6h-6.9c-4.1,0-6.2,1.4-6.2,4.1c0,1.3,0.5,2.3,1.5,3.1
		c1,0.8,2.4,1.1,4.2,1.1C375.5,122.5,377,122.1,378.4,121.3z"/>
	<path class="st3" d="M414.9,94.8c2-0.9,4.4-1.3,7.1-1.3v9.3c-1.1-0.1-1.9-0.1-2.3-0.1c-2.9,0-5.1,0.8-6.8,2.4
		c-1.6,1.6-2.5,4-2.5,7.3v16.4h-10.1V94h9.6v4.6C411.2,96.9,412.8,95.6,414.9,94.8z"/>
	<path class="st3" d="M451.6,127.1c-1,0.7-2.2,1.3-3.6,1.6c-1.4,0.4-3,0.5-4.6,0.5c-4.1,0-7.3-1.1-9.6-3.2c-2.3-2.1-3.4-5.2-3.4-9.3
		v-14.3H425v-7.7h5.4v-8.5h10.1v8.5h8.7v7.7h-8.7v14.1c0,1.5,0.4,2.6,1.1,3.4c0.8,0.8,1.8,1.2,3.2,1.2c1.6,0,2.9-0.4,4.1-1.3
		L451.6,127.1z"/>
</g>
<rect x="262" y="523.1" transform="matrix(6.131480e-03 -1 1 6.131480e-03 -491.4961 1083.1748)" class="st1" width="74.3" height="531.5"/>
<rect x="203.8" y="710.5" class="st1" width="191.6" height="47"/>
<rect x="33" y="164" class="st4" width="534" height="1"/>
<g>
	<g>
		<path id="Check_1_" class="st5" d="M111.4,349.4c-0.5-0.5-1.3-0.5-1.9,0L91,367.8l-8.1-8c-0.5-0.5-1.3-0.5-1.9,0
			c-0.5,0.5-0.5,1.3,0,1.8l9.1,8.9c0.5,0.5,1.3,0.5,1.9,0l19.5-19.3C111.9,350.7,111.9,349.9,111.4,349.4S111.9,349.9,111.4,349.4z"
			/>
	</g>
</g>
<rect x="54.5" y="349.1" class="st1" width="489.5" height="25.9"/>
<g class="st2">
	<path class="st5" d="M148.6,371.4v-15.3l-7.6,12.8h-1.4l-7.6-12.7v15.2h-2.9v-21h2.5l8.8,14.8l8.6-14.8h2.5v21H148.6z"/>
	<path class="st5" d="M171.6,364.4h-12.9c0.2,1.4,0.8,2.5,1.8,3.4c1.1,0.9,2.4,1.3,3.9,1.3c1.9,0,3.4-0.6,4.6-1.9l1.6,1.9
		c-0.7,0.8-1.6,1.5-2.7,1.9c-1.1,0.4-2.3,0.7-3.6,0.7c-1.7,0-3.2-0.3-4.5-1s-2.3-1.7-3-2.9c-0.7-1.2-1.1-2.6-1.1-4.2
		c0-1.5,0.3-2.9,1-4.2c0.7-1.2,1.6-2.2,2.9-2.9c1.2-0.7,2.6-1,4.1-1s2.9,0.3,4.1,1c1.2,0.7,2.1,1.7,2.8,2.9c0.7,1.2,1,2.7,1,4.3
		C171.7,363.8,171.7,364.1,171.6,364.4z M160.4,359c-0.9,0.8-1.5,1.9-1.6,3.3H169c-0.2-1.3-0.7-2.4-1.6-3.3
		c-0.9-0.9-2.1-1.3-3.5-1.3C162.4,357.8,161.3,358.2,160.4,359z"/>
	<path class="st5" d="M175.7,351.9c-0.4-0.4-0.6-0.8-0.6-1.3s0.2-1,0.6-1.3c0.4-0.4,0.8-0.6,1.4-0.6c0.6,0,1,0.2,1.4,0.5
		s0.6,0.8,0.6,1.3s-0.2,1-0.6,1.4s-0.8,0.6-1.4,0.6C176.6,352.4,176.1,352.3,175.7,351.9z M175.7,355.5h2.9v15.9h-2.9V355.5z"/>
	<path class="st5" d="M194.9,357c1.2,1.1,1.8,2.7,1.8,4.8v9.6H194v-2.1c-0.5,0.7-1.2,1.3-2.1,1.7c-0.9,0.4-1.9,0.6-3.2,0.6
		c-1.8,0-3.2-0.4-4.3-1.3s-1.6-2-1.6-3.4s0.5-2.5,1.5-3.4c1-0.8,2.6-1.3,4.9-1.3h4.6v-0.6c0-1.2-0.4-2.2-1.1-2.9
		c-0.7-0.7-1.8-1-3.2-1c-0.9,0-1.9,0.2-2.8,0.5c-0.9,0.3-1.7,0.7-2.3,1.2l-1.2-2.2c0.8-0.7,1.8-1.2,2.9-1.5c1.1-0.3,2.3-0.5,3.6-0.5
		C192,355.4,193.7,355.9,194.9,357z M192,368.6c0.8-0.5,1.4-1.2,1.7-2.1v-2.2h-4.4c-2.4,0-3.7,0.8-3.7,2.5c0,0.8,0.3,1.4,0.9,1.9
		c0.6,0.5,1.5,0.7,2.6,0.7C190.3,369.4,191.2,369.1,192,368.6z"/>
	<path class="st5" d="M223.4,357.1c1.2,1.2,1.8,2.9,1.8,5.1v9.2h-2.9v-8.8c0-1.5-0.4-2.7-1.1-3.5c-0.7-0.8-1.8-1.2-3.2-1.2
		c-1.6,0-2.8,0.5-3.7,1.4s-1.4,2.2-1.4,3.9v8.2H210v-22.3h2.9v8.6c0.6-0.8,1.4-1.3,2.4-1.8s2.1-0.6,3.3-0.6
		C220.6,355.4,222.2,355.9,223.4,357.1z"/>
	<path class="st5" d="M233.1,370.5c-1.3-0.7-2.2-1.7-3-2.9c-0.7-1.2-1.1-2.6-1.1-4.2s0.4-3,1.1-4.2c0.7-1.2,1.7-2.2,3-2.9
		c1.3-0.7,2.7-1,4.3-1s3,0.3,4.2,1s2.2,1.6,2.9,2.9c0.7,1.2,1.1,2.6,1.1,4.2s-0.4,3-1.1,4.2c-0.7,1.2-1.7,2.2-2.9,2.9
		c-1.3,0.7-2.7,1-4.2,1C235.8,371.6,234.4,371.2,233.1,370.5z M240.1,368.4c0.8-0.5,1.4-1.1,1.9-2c0.5-0.8,0.7-1.8,0.7-2.9
		s-0.2-2.1-0.7-2.9s-1.1-1.5-1.9-2s-1.7-0.7-2.7-0.7s-1.9,0.2-2.7,0.7s-1.5,1.1-1.9,2c-0.5,0.9-0.7,1.8-0.7,2.9s0.2,2.1,0.7,2.9
		c0.5,0.9,1.1,1.5,1.9,2s1.7,0.7,2.7,0.7S239.3,368.8,240.1,368.4z"/>
	<path class="st5" d="M254.6,356.1c1-0.5,2.2-0.7,3.6-0.7v2.8c-0.2,0-0.4,0-0.7,0c-1.6,0-2.8,0.5-3.7,1.4s-1.3,2.3-1.3,4v7.9h-2.9
		v-15.9h2.8v2.7C252.9,357.3,253.6,356.6,254.6,356.1z"/>
	<path class="st5" d="M272.5,357c1.2,1.1,1.8,2.7,1.8,4.8v9.6h-2.7v-2.1c-0.5,0.7-1.2,1.3-2.1,1.7c-0.9,0.4-1.9,0.6-3.2,0.6
		c-1.8,0-3.2-0.4-4.3-1.3c-1.1-0.9-1.6-2-1.6-3.4s0.5-2.5,1.5-3.4c1-0.8,2.6-1.3,4.9-1.3h4.6v-0.6c0-1.2-0.4-2.2-1.1-2.9
		c-0.7-0.7-1.8-1-3.2-1c-0.9,0-1.9,0.2-2.8,0.5s-1.7,0.7-2.3,1.2l-1.2-2.2c0.8-0.7,1.8-1.2,2.9-1.5s2.3-0.5,3.6-0.5
		C269.7,355.4,271.4,355.9,272.5,357z M269.7,368.6c0.8-0.5,1.4-1.2,1.7-2.1v-2.2H267c-2.4,0-3.7,0.8-3.7,2.5c0,0.8,0.3,1.4,0.9,1.9
		s1.5,0.7,2.6,0.7S268.9,369.1,269.7,368.6z"/>
	<path class="st5" d="M302.7,349.1v22.3h-2.8v-2.5c-0.6,0.9-1.5,1.5-2.4,2c-1,0.5-2.1,0.7-3.2,0.7c-1.5,0-2.9-0.3-4.1-1
		s-2.2-1.6-2.9-2.9c-0.7-1.2-1-2.6-1-4.2s0.3-3,1-4.2s1.6-2.2,2.9-2.9c1.2-0.7,2.6-1,4.1-1c1.1,0,2.2,0.2,3.2,0.6s1.8,1.1,2.4,1.9
		v-8.8H302.7z M297.2,368.4c0.8-0.5,1.5-1.1,1.9-2c0.5-0.8,0.7-1.8,0.7-2.9s-0.2-2.1-0.7-2.9s-1.1-1.5-1.9-2s-1.7-0.7-2.7-0.7
		s-1.9,0.2-2.7,0.7s-1.5,1.1-1.9,2c-0.5,0.9-0.7,1.8-0.7,2.9s0.2,2.1,0.7,2.9c0.5,0.9,1.1,1.5,1.9,2s1.7,0.7,2.7,0.7
		S296.4,368.8,297.2,368.4z"/>
	<path class="st5" d="M322.5,364.4h-12.9c0.2,1.4,0.8,2.5,1.8,3.4c1.1,0.9,2.4,1.3,3.9,1.3c1.9,0,3.4-0.6,4.6-1.9l1.6,1.9
		c-0.7,0.8-1.6,1.5-2.7,1.9s-2.3,0.7-3.6,0.7c-1.7,0-3.2-0.3-4.5-1s-2.3-1.7-3-2.9c-0.7-1.2-1.1-2.6-1.1-4.2c0-1.5,0.3-2.9,1-4.2
		c0.7-1.2,1.6-2.2,2.9-2.9c1.2-0.7,2.6-1,4.1-1s2.9,0.3,4.1,1s2.1,1.7,2.8,2.9c0.7,1.2,1,2.7,1,4.3
		C322.5,363.8,322.5,364.1,322.5,364.4z M311.2,359c-0.9,0.8-1.5,1.9-1.6,3.3h10.2c-0.2-1.3-0.7-2.4-1.6-3.3s-2.1-1.3-3.5-1.3
		C313.3,357.8,312.1,358.2,311.2,359z"/>
	<path class="st5" d="M359.2,357.1c1.2,1.2,1.8,2.9,1.8,5.2v9.2h-2.9v-8.8c0-1.5-0.4-2.7-1.1-3.5s-1.7-1.2-3-1.2
		c-1.5,0-2.6,0.5-3.5,1.4s-1.3,2.2-1.3,3.9v8.2h-2.9v-8.8c0-1.5-0.4-2.7-1.1-3.5s-1.7-1.2-3-1.2c-1.5,0-2.6,0.5-3.5,1.4
		s-1.3,2.2-1.3,3.9v8.2h-2.9v-15.9h2.8v2.4c0.6-0.8,1.3-1.4,2.3-1.9c0.9-0.4,2-0.6,3.2-0.6s2.3,0.3,3.3,0.8s1.7,1.2,2.2,2.2
		c0.6-0.9,1.4-1.6,2.5-2.2c1.1-0.5,2.3-0.8,3.6-0.8C356.5,355.4,358.1,355.9,359.2,357.1z"/>
	<path class="st5" d="M380.7,364.4h-12.9c0.2,1.4,0.8,2.5,1.8,3.4c1.1,0.9,2.4,1.3,3.9,1.3c1.9,0,3.4-0.6,4.6-1.9l1.6,1.9
		c-0.7,0.8-1.6,1.5-2.7,1.9s-2.3,0.7-3.6,0.7c-1.7,0-3.2-0.3-4.5-1s-2.3-1.7-3-2.9c-0.7-1.2-1.1-2.6-1.1-4.2c0-1.5,0.3-2.9,1-4.2
		c0.7-1.2,1.6-2.2,2.9-2.9c1.2-0.7,2.6-1,4.1-1s2.9,0.3,4.1,1s2.1,1.7,2.8,2.9c0.7,1.2,1,2.7,1,4.3
		C380.8,363.8,380.7,364.1,380.7,364.4z M369.4,359c-0.9,0.8-1.5,1.9-1.6,3.3H378c-0.2-1.3-0.7-2.4-1.6-3.3s-2.1-1.3-3.5-1.3
		C371.5,357.8,370.4,358.2,369.4,359z"/>
	<path class="st5" d="M398.1,357.1c1.2,1.2,1.8,2.9,1.8,5.1v9.2H397v-8.8c0-1.5-0.4-2.7-1.1-3.5s-1.8-1.2-3.2-1.2
		c-1.6,0-2.8,0.5-3.7,1.4c-0.9,0.9-1.4,2.2-1.4,3.9v8.2h-2.9v-15.9h2.8v2.4c0.6-0.8,1.4-1.5,2.4-1.9s2.1-0.7,3.4-0.7
		C395.3,355.4,396.9,355.9,398.1,357.1z"/>
	<path class="st5" d="M414.1,370.5c-0.4,0.4-0.9,0.6-1.6,0.8c-0.6,0.2-1.3,0.3-1.9,0.3c-1.6,0-2.8-0.4-3.7-1.3
		c-0.9-0.9-1.3-2.1-1.3-3.7v-8.7h-2.7v-2.4h2.7V352h2.9v3.5h4.6v2.4h-4.6v8.6c0,0.9,0.2,1.5,0.6,2s1,0.7,1.8,0.7
		c0.9,0,1.6-0.3,2.3-0.8L414.1,370.5z"/>
	<path class="st5" d="M419.6,370.5c-1.3-0.7-2.2-1.7-3-2.9c-0.7-1.2-1.1-2.6-1.1-4.2s0.4-3,1.1-4.2s1.7-2.2,3-2.9
		c1.3-0.7,2.7-1,4.3-1c1.6,0,3,0.3,4.2,1s2.2,1.6,2.9,2.9c0.7,1.2,1.1,2.6,1.1,4.2s-0.4,3-1.1,4.2s-1.7,2.2-2.9,2.9
		c-1.3,0.7-2.7,1-4.2,1C422.3,371.6,420.9,371.2,419.6,370.5z M426.6,368.4c0.8-0.5,1.4-1.1,1.9-2c0.5-0.8,0.7-1.8,0.7-2.9
		s-0.2-2.1-0.7-2.9s-1.1-1.5-1.9-2s-1.7-0.7-2.7-0.7s-1.9,0.2-2.7,0.7s-1.5,1.1-1.9,2c-0.5,0.9-0.7,1.8-0.7,2.9s0.2,2.1,0.7,2.9
		c0.5,0.9,1.1,1.5,1.9,2s1.7,0.7,2.7,0.7S425.8,368.8,426.6,368.4z"/>
	<path class="st5" d="M441.1,356.1c1-0.5,2.2-0.7,3.6-0.7v2.8c-0.2,0-0.4,0-0.7,0c-1.6,0-2.8,0.5-3.7,1.4c-0.9,0.9-1.3,2.3-1.3,4
		v7.9h-2.9v-15.9h2.8v2.7C439.4,357.3,440.1,356.6,441.1,356.1z"/>
	<path class="st5" d="M448.2,351.9c-0.4-0.4-0.6-0.8-0.6-1.3s0.2-1,0.6-1.3c0.4-0.4,0.8-0.6,1.4-0.6s1,0.2,1.4,0.5s0.6,0.8,0.6,1.3
		s-0.2,1-0.6,1.4s-0.8,0.6-1.4,0.6C449.1,352.4,448.6,352.3,448.2,351.9z M448.2,355.5h2.9v15.9h-2.9V355.5z"/>
	<path class="st5" d="M467.4,357c1.2,1.1,1.8,2.7,1.8,4.8v9.6h-2.7v-2.1c-0.5,0.7-1.2,1.3-2.1,1.7c-0.9,0.4-1.9,0.6-3.2,0.6
		c-1.8,0-3.2-0.4-4.3-1.3c-1.1-0.9-1.6-2-1.6-3.4s0.5-2.5,1.5-3.4c1-0.8,2.6-1.3,4.9-1.3h4.6v-0.6c0-1.2-0.4-2.2-1.1-2.9
		c-0.7-0.7-1.8-1-3.2-1c-0.9,0-1.9,0.2-2.8,0.5s-1.7,0.7-2.3,1.2l-1.2-2.2c0.8-0.7,1.8-1.2,2.9-1.5s2.3-0.5,3.6-0.5
		C464.6,355.4,466.2,355.9,467.4,357z M464.5,368.6c0.8-0.5,1.4-1.2,1.7-2.1v-2.2h-4.4c-2.4,0-3.7,0.8-3.7,2.5
		c0,0.8,0.3,1.4,0.9,1.9s1.5,0.7,2.6,0.7C462.8,369.4,463.7,369.1,464.5,368.6z"/>
</g>
<g>
	<g>
		<path id="Check_2_" class="st5" d="M111.4,427.4c-0.5-0.5-1.3-0.5-1.9,0L91,445.8l-8.1-8c-0.5-0.5-1.3-0.5-1.9,0
			c-0.5,0.5-0.5,1.3,0,1.8l9.1,8.9c0.5,0.5,1.3,0.5,1.9,0l19.5-19.3C111.9,428.7,111.9,427.9,111.4,427.4S111.9,427.9,111.4,427.4z"
			/>
	</g>
</g>
<rect x="54.5" y="427.1" class="st1" width="489.5" height="37.9"/>
<g class="st2">
	<path class="st5" d="M158.5,446.8v2.6h-15.2v-21h14.8v2.6h-11.8v6.4h10.5v2.6h-10.5v6.8H158.5z"/>
	<path class="st5" d="M163.5,449.1c-1.2-0.3-2.1-0.8-2.8-1.3l1.2-2.3c0.7,0.5,1.5,0.9,2.6,1.2c1,0.3,2,0.5,3,0.5
		c2.5,0,3.8-0.7,3.8-2.2c0-0.5-0.2-0.9-0.5-1.1c-0.3-0.3-0.8-0.5-1.3-0.6s-1.2-0.3-2.2-0.4c-1.3-0.2-2.3-0.4-3.1-0.7
		s-1.5-0.7-2.1-1.3c-0.6-0.6-0.9-1.5-0.9-2.6c0-1.4,0.6-2.6,1.8-3.5s2.8-1.3,4.8-1.3c1.1,0,2.1,0.1,3.2,0.4c1.1,0.3,1.9,0.6,2.6,1.1
		l-1.2,2.3c-1.3-0.8-2.8-1.3-4.6-1.3c-1.2,0-2.2,0.2-2.8,0.6s-1,0.9-1,1.6c0,0.5,0.2,0.9,0.5,1.2c0.4,0.3,0.8,0.5,1.3,0.7
		c0.5,0.1,1.3,0.3,2.2,0.5c1.3,0.2,2.3,0.5,3.1,0.7s1.5,0.7,2,1.3c0.6,0.6,0.8,1.4,0.8,2.5c0,1.4-0.6,2.6-1.8,3.4s-2.9,1.3-5,1.3
		C166,449.6,164.7,449.4,163.5,449.1z"/>
	<path class="st5" d="M180.4,448.5c-1.3-0.7-2.3-1.7-3-2.9c-0.7-1.2-1.1-2.6-1.1-4.2s0.4-3,1.1-4.2c0.7-1.2,1.7-2.2,3-2.9
		c1.3-0.7,2.7-1,4.3-1c1.4,0,2.7,0.3,3.9,0.9c1.1,0.6,2,1.4,2.6,2.5l-2.2,1.4c-0.5-0.8-1.1-1.3-1.9-1.7c-0.7-0.4-1.6-0.6-2.5-0.6
		c-1,0-2,0.2-2.8,0.7s-1.5,1.1-2,2s-0.7,1.8-0.7,2.9s0.2,2.1,0.7,3c0.5,0.8,1.1,1.5,2,2c0.8,0.5,1.8,0.7,2.8,0.7
		c0.9,0,1.7-0.2,2.5-0.6c0.7-0.4,1.4-0.9,1.9-1.7l2.2,1.4c-0.6,1.1-1.5,1.9-2.6,2.5s-2.4,0.9-3.9,0.9
		C183.1,449.6,181.6,449.2,180.4,448.5z"/>
	<path class="st5" d="M197.2,448.5c-1.3-0.7-2.2-1.7-3-2.9c-0.7-1.2-1.1-2.6-1.1-4.2s0.4-3,1.1-4.2c0.7-1.2,1.7-2.2,3-2.9
		c1.3-0.7,2.7-1,4.3-1s3,0.3,4.2,1s2.2,1.6,2.9,2.9c0.7,1.2,1.1,2.6,1.1,4.2s-0.4,3-1.1,4.2c-0.7,1.2-1.7,2.2-2.9,2.9
		c-1.3,0.7-2.7,1-4.2,1C199.9,449.6,198.5,449.2,197.2,448.5z M204.2,446.4c0.8-0.5,1.4-1.1,1.9-2c0.5-0.8,0.7-1.8,0.7-2.9
		s-0.2-2.1-0.7-2.9s-1.1-1.5-1.9-2c-0.8-0.5-1.7-0.7-2.7-0.7s-1.9,0.2-2.7,0.7s-1.5,1.1-1.9,2c-0.5,0.9-0.7,1.8-0.7,2.9
		s0.2,2.1,0.7,2.9c0.5,0.9,1.1,1.5,1.9,2c0.8,0.5,1.7,0.7,2.7,0.7S203.4,446.8,204.2,446.4z"/>
	<path class="st5" d="M213.7,427.1h2.9v22.3h-2.9V427.1z"/>
	<path class="st5" d="M235.4,435.1c1.2,1.2,1.8,2.9,1.8,5.1v9.2h-2.9v-8.8c0-1.5-0.4-2.7-1.1-3.5c-0.7-0.8-1.8-1.2-3.2-1.2
		c-1.6,0-2.8,0.5-3.7,1.4s-1.4,2.2-1.4,3.9v8.2H222v-22.3h2.9v8.6c0.6-0.8,1.4-1.3,2.4-1.8s2.1-0.6,3.3-0.6
		C232.6,433.4,234.2,433.9,235.4,435.1z"/>
	<path class="st5" d="M253.3,435c1.2,1.1,1.8,2.7,1.8,4.8v9.6h-2.7v-2.1c-0.5,0.7-1.2,1.3-2.1,1.7c-0.9,0.4-1.9,0.6-3.2,0.6
		c-1.8,0-3.2-0.4-4.3-1.3s-1.6-2-1.6-3.4s0.5-2.5,1.5-3.4c1-0.8,2.6-1.3,4.9-1.3h4.6v-0.6c0-1.2-0.4-2.2-1.1-2.9
		c-0.7-0.7-1.8-1-3.2-1c-0.9,0-1.9,0.2-2.8,0.5c-0.9,0.3-1.7,0.7-2.3,1.2l-1.2-2.2c0.8-0.7,1.8-1.2,2.9-1.5c1.1-0.3,2.3-0.5,3.6-0.5
		C250.5,433.4,252.2,433.9,253.3,435z M250.5,446.6c0.8-0.5,1.4-1.2,1.7-2.1v-2.2h-4.4c-2.4,0-3.7,0.8-3.7,2.5
		c0,0.8,0.3,1.4,0.9,1.9c0.6,0.5,1.5,0.7,2.6,0.7C248.7,447.4,249.7,447.1,250.5,446.6z"/>
	<path class="st5" d="M271.1,448.5c-1.3-0.7-2.2-1.7-3-2.9c-0.7-1.2-1.1-2.6-1.1-4.2s0.4-3,1.1-4.2s1.7-2.2,3-2.9
		c1.3-0.7,2.7-1,4.3-1c1.6,0,3,0.3,4.2,1s2.2,1.6,2.9,2.9c0.7,1.2,1.1,2.6,1.1,4.2s-0.4,3-1.1,4.2s-1.7,2.2-2.9,2.9
		c-1.3,0.7-2.7,1-4.2,1C273.7,449.6,272.3,449.2,271.1,448.5z M278.1,446.4c0.8-0.5,1.4-1.1,1.9-2c0.5-0.8,0.7-1.8,0.7-2.9
		s-0.2-2.1-0.7-2.9s-1.1-1.5-1.9-2s-1.7-0.7-2.7-0.7s-1.9,0.2-2.7,0.7c-0.8,0.5-1.5,1.1-1.9,2c-0.5,0.9-0.7,1.8-0.7,2.9
		s0.2,2.1,0.7,2.9c0.5,0.9,1.1,1.5,1.9,2s1.7,0.7,2.7,0.7S277.3,446.8,278.1,446.4z"/>
	<path class="st5" d="M320.3,435.1c1.2,1.2,1.8,2.9,1.8,5.2v9.2h-2.9v-8.8c0-1.5-0.4-2.7-1.1-3.5s-1.7-1.2-3-1.2
		c-1.5,0-2.6,0.5-3.5,1.4s-1.3,2.2-1.3,3.9v8.2h-2.9v-8.8c0-1.5-0.4-2.7-1.1-3.5s-1.7-1.2-3-1.2c-1.5,0-2.6,0.5-3.5,1.4
		s-1.3,2.2-1.3,3.9v8.2h-2.9v-15.9h2.8v2.4c0.6-0.8,1.3-1.4,2.3-1.9c0.9-0.4,2-0.6,3.2-0.6s2.3,0.3,3.3,0.8s1.7,1.2,2.2,2.2
		c0.6-0.9,1.4-1.6,2.5-2.2s2.3-0.8,3.6-0.8C317.5,433.4,319.1,433.9,320.3,435.1z"/>
	<path class="st5" d="M341.7,442.4h-12.9c0.2,1.4,0.8,2.5,1.8,3.4c1.1,0.9,2.4,1.3,3.9,1.3c1.9,0,3.4-0.6,4.6-1.9l1.6,1.9
		c-0.7,0.8-1.6,1.5-2.7,1.9s-2.3,0.7-3.6,0.7c-1.7,0-3.2-0.3-4.5-1s-2.3-1.7-3-2.9c-0.7-1.2-1.1-2.6-1.1-4.2c0-1.5,0.3-2.9,1-4.2
		s1.6-2.2,2.9-2.9c1.2-0.7,2.6-1,4.1-1s2.9,0.3,4.1,1s2.1,1.7,2.8,2.9c0.7,1.2,1,2.7,1,4.3C341.8,441.8,341.8,442.1,341.7,442.4z
		 M330.5,437c-0.9,0.8-1.5,1.9-1.6,3.3H339c-0.2-1.3-0.7-2.4-1.6-3.3s-2.1-1.3-3.5-1.3C332.6,435.8,331.4,436.2,330.5,437z"/>
	<path class="st5" d="M345.8,427.1h2.9v22.3h-2.9V427.1z"/>
	<path class="st5" d="M367.5,435.1c1.2,1.2,1.8,2.9,1.8,5.1v9.2h-2.9v-8.8c0-1.5-0.4-2.7-1.1-3.5s-1.8-1.2-3.2-1.2
		c-1.6,0-2.8,0.5-3.7,1.4c-0.9,0.9-1.4,2.2-1.4,3.9v8.2h-2.9v-22.3h2.9v8.6c0.6-0.8,1.4-1.3,2.4-1.8s2.1-0.6,3.3-0.6
		C364.7,433.4,366.3,433.9,367.5,435.1z"/>
	<path class="st5" d="M377.2,448.5c-1.3-0.7-2.2-1.7-3-2.9c-0.7-1.2-1.1-2.6-1.1-4.2s0.4-3,1.1-4.2s1.7-2.2,3-2.9
		c1.3-0.7,2.7-1,4.3-1c1.6,0,3,0.3,4.2,1s2.2,1.6,2.9,2.9c0.7,1.2,1.1,2.6,1.1,4.2s-0.4,3-1.1,4.2s-1.7,2.2-2.9,2.9
		c-1.3,0.7-2.7,1-4.2,1C379.9,449.6,378.5,449.2,377.2,448.5z M384.2,446.4c0.8-0.5,1.4-1.1,1.9-2c0.5-0.8,0.7-1.8,0.7-2.9
		s-0.2-2.1-0.7-2.9s-1.1-1.5-1.9-2s-1.7-0.7-2.7-0.7s-1.9,0.2-2.7,0.7c-0.8,0.5-1.5,1.1-1.9,2c-0.5,0.9-0.7,1.8-0.7,2.9
		s0.2,2.1,0.7,2.9c0.5,0.9,1.1,1.5,1.9,2s1.7,0.7,2.7,0.7S383.4,446.8,384.2,446.4z"/>
	<path class="st5" d="M398.7,434.1c1-0.5,2.2-0.7,3.6-0.7v2.8c-0.2,0-0.4,0-0.7,0c-1.6,0-2.8,0.5-3.7,1.4c-0.9,0.9-1.3,2.3-1.3,4
		v7.9h-2.9v-15.9h2.8v2.7C397,435.3,397.7,434.6,398.7,434.1z"/>
	<path class="st5" d="M429.1,427.1v22.3h-2.8v-2.5c-0.6,0.9-1.5,1.6-2.4,2c-1,0.5-2.1,0.7-3.2,0.7c-1.5,0-2.9-0.3-4.1-1
		s-2.2-1.6-2.9-2.9c-0.7-1.2-1-2.6-1-4.2s0.3-3,1-4.2s1.6-2.2,2.9-2.8c1.2-0.7,2.6-1,4.1-1c1.1,0,2.2,0.2,3.2,0.6s1.8,1.1,2.4,1.9
		v-8.8h2.8V427.1z M423.6,446.4c0.8-0.5,1.5-1.1,1.9-2c0.5-0.8,0.7-1.8,0.7-2.9s-0.2-2.1-0.7-2.9s-1.1-1.5-1.9-2s-1.7-0.7-2.7-0.7
		s-1.9,0.2-2.7,0.7c-0.8,0.5-1.5,1.1-1.9,2c-0.5,0.9-0.7,1.8-0.7,2.9s0.2,2.1,0.7,2.9c0.5,0.9,1.1,1.5,1.9,2s1.7,0.7,2.7,0.7
		S422.8,446.8,423.6,446.4z"/>
	<path class="st5" d="M434.6,429.9c-0.4-0.4-0.6-0.8-0.6-1.3s0.2-1,0.6-1.3c0.4-0.4,0.8-0.6,1.4-0.6s1,0.2,1.4,0.5s0.6,0.8,0.6,1.3
		s-0.2,1-0.6,1.4s-0.8,0.6-1.4,0.6C435.4,430.4,435,430.3,434.6,429.9z M434.6,433.5h2.9v15.9h-2.9V433.5z"/>
	<path class="st5" d="M453.8,435c1.2,1.1,1.8,2.7,1.8,4.8v9.6h-2.7v-2.1c-0.5,0.7-1.2,1.3-2.1,1.7c-0.9,0.4-1.9,0.6-3.2,0.6
		c-1.8,0-3.2-0.4-4.3-1.3c-1.1-0.9-1.6-2-1.6-3.4s0.5-2.5,1.5-3.4c1-0.8,2.6-1.3,4.9-1.3h4.6v-0.6c0-1.2-0.4-2.2-1.1-2.9
		c-0.7-0.7-1.8-1-3.2-1c-0.9,0-1.9,0.2-2.8,0.5s-1.7,0.7-2.3,1.2l-1.2-2.2c0.8-0.7,1.8-1.2,2.9-1.5s2.3-0.5,3.6-0.5
		C450.9,433.4,452.6,433.9,453.8,435z M450.9,446.6c0.8-0.5,1.4-1.2,1.7-2.1v-2.2h-4.4c-2.4,0-3.7,0.8-3.7,2.5
		c0,0.8,0.3,1.4,0.9,1.9s1.5,0.7,2.6,0.7C449.2,447.4,450.1,447.1,450.9,446.6z"/>
</g>
<g>
	<g>
		<path id="Check_3_" class="st5" d="M111.4,506.4c-0.5-0.5-1.3-0.5-1.9,0L91,524.8l-8.1-8c-0.5-0.5-1.3-0.5-1.9,0
			c-0.5,0.5-0.5,1.3,0,1.8l9.1,8.9c0.5,0.5,1.3,0.5,1.9,0l19.5-19.3C111.9,507.7,111.9,506.9,111.4,506.4S111.9,506.9,111.4,506.4z"
			/>
	</g>
</g>
<rect x="54.5" y="506.1" class="st1" width="489.5" height="37.9"/>
<g class="st2">
	<path class="st5" d="M147,523.2h-11.2l-2.3,5.3h-3.1l9.5-21h3l9.5,21h-3.2L147,523.2z M145.9,520.8l-4.5-10.3l-4.5,10.3H145.9z"/>
	<path class="st5" d="M167.7,513.4c1.2,0.7,2.2,1.6,2.9,2.8s1,2.6,1,4.2s-0.3,3-1,4.2s-1.6,2.2-2.9,2.9s-2.6,1-4.1,1
		c-1.1,0-2.2-0.2-3.1-0.7c-1-0.4-1.8-1.1-2.4-1.9v8.2h-2.9v-21.7h2.8v2.5c0.6-0.9,1.4-1.5,2.4-2c1-0.4,2.1-0.7,3.2-0.7
		C165.1,512.4,166.5,512.7,167.7,513.4z M166,525.4c0.8-0.5,1.4-1.1,1.9-2c0.5-0.8,0.7-1.8,0.7-2.9s-0.2-2.1-0.7-2.9
		c-0.5-0.8-1.1-1.5-1.9-2c-0.8-0.5-1.7-0.7-2.7-0.7s-1.9,0.2-2.7,0.7s-1.5,1.1-1.9,2c-0.5,0.8-0.7,1.8-0.7,2.9s0.2,2.1,0.7,2.9
		c0.5,0.9,1.1,1.5,1.9,2c0.8,0.5,1.7,0.7,2.7,0.7C164.3,526.1,165.2,525.8,166,525.4z"/>
	<path class="st5" d="M180.6,513.1c1-0.5,2.2-0.7,3.6-0.7v2.8c-0.2,0-0.4,0-0.7,0c-1.6,0-2.8,0.5-3.7,1.4s-1.3,2.3-1.3,4v7.9h-2.9
		v-15.9h2.8v2.7C178.8,514.3,179.6,513.6,180.6,513.1z"/>
	<path class="st5" d="M201.8,521.4h-12.9c0.2,1.4,0.8,2.5,1.8,3.4c1.1,0.9,2.4,1.3,3.9,1.3c1.9,0,3.4-0.6,4.6-1.9l1.6,1.9
		c-0.7,0.8-1.6,1.5-2.7,1.9c-1.1,0.4-2.3,0.7-3.6,0.7c-1.7,0-3.2-0.3-4.5-1s-2.3-1.7-3-2.9s-1.1-2.6-1.1-4.2c0-1.5,0.3-2.9,1-4.2
		s1.6-2.2,2.9-2.9c1.2-0.7,2.6-1,4.1-1s2.9,0.3,4.1,1c1.2,0.7,2.1,1.7,2.8,2.9s1,2.7,1,4.3C201.9,520.8,201.9,521.1,201.8,521.4z
		 M190.6,516c-0.9,0.8-1.5,1.9-1.6,3.3h10.2c-0.2-1.3-0.7-2.4-1.6-3.3c-0.9-0.9-2.1-1.3-3.5-1.3C192.6,514.8,191.5,515.2,190.6,516z
		"/>
	<path class="st5" d="M206.7,528.1c-1.2-0.3-2.1-0.8-2.8-1.3l1.2-2.3c0.7,0.5,1.5,0.9,2.6,1.2c1,0.3,2,0.5,3,0.5
		c2.5,0,3.8-0.7,3.8-2.2c0-0.5-0.2-0.9-0.5-1.1c-0.3-0.3-0.8-0.5-1.3-0.6s-1.2-0.3-2.2-0.4c-1.3-0.2-2.3-0.4-3.1-0.7
		s-1.5-0.7-2.1-1.3s-0.9-1.5-0.9-2.6c0-1.4,0.6-2.6,1.8-3.5s2.8-1.3,4.8-1.3c1.1,0,2.1,0.1,3.2,0.4c1.1,0.3,1.9,0.6,2.6,1.1
		l-1.2,2.3c-1.3-0.8-2.8-1.3-4.6-1.3c-1.2,0-2.2,0.2-2.8,0.6c-0.6,0.4-1,0.9-1,1.6c0,0.5,0.2,0.9,0.5,1.2c0.4,0.3,0.8,0.5,1.3,0.7
		c0.5,0.1,1.3,0.3,2.2,0.5c1.3,0.2,2.3,0.5,3.1,0.7s1.5,0.7,2,1.3c0.6,0.6,0.8,1.4,0.8,2.5c0,1.4-0.6,2.6-1.8,3.4
		c-1.2,0.8-2.9,1.3-5,1.3C209.1,528.6,207.9,528.4,206.7,528.1z"/>
	<path class="st5" d="M235.2,521.4h-12.9c0.2,1.4,0.8,2.5,1.8,3.4c1.1,0.9,2.4,1.3,3.9,1.3c1.9,0,3.4-0.6,4.6-1.9l1.6,1.9
		c-0.7,0.8-1.6,1.5-2.7,1.9c-1.1,0.4-2.3,0.7-3.6,0.7c-1.7,0-3.2-0.3-4.5-1s-2.3-1.7-3-2.9s-1.1-2.6-1.1-4.2c0-1.5,0.3-2.9,1-4.2
		s1.6-2.2,2.9-2.9c1.2-0.7,2.6-1,4.1-1s2.9,0.3,4.1,1c1.2,0.7,2.1,1.7,2.8,2.9s1,2.7,1,4.3C235.3,520.8,235.3,521.1,235.2,521.4z
		 M223.9,516c-0.9,0.8-1.5,1.9-1.6,3.3h10.2c-0.2-1.3-0.7-2.4-1.6-3.3c-0.9-0.9-2.1-1.3-3.5-1.3C226,514.8,224.9,515.2,223.9,516z"
		/>
	<path class="st5" d="M252.6,514.1c1.2,1.2,1.8,2.9,1.8,5.1v9.2h-2.9v-8.8c0-1.5-0.4-2.7-1.1-3.5c-0.7-0.8-1.8-1.2-3.2-1.2
		c-1.6,0-2.8,0.5-3.7,1.4s-1.4,2.2-1.4,3.9v8.2h-2.9v-15.9h2.8v2.4c0.6-0.8,1.4-1.4,2.4-1.9c1-0.4,2.1-0.7,3.4-0.7
		C249.8,512.4,251.4,512.9,252.6,514.1z"/>
	<path class="st5" d="M268.6,527.5c-0.4,0.4-0.9,0.6-1.6,0.8c-0.6,0.2-1.3,0.3-1.9,0.3c-1.6,0-2.8-0.4-3.7-1.3
		c-0.9-0.9-1.3-2.1-1.3-3.7v-8.7h-2.7v-2.4h2.7V509h2.9v3.5h4.6v2.4H263v8.6c0,0.9,0.2,1.5,0.6,2s1,0.7,1.8,0.7
		c0.9,0,1.6-0.3,2.3-0.8L268.6,527.5z"/>
	<path class="st5" d="M285.9,521.4H273c0.2,1.4,0.8,2.5,1.8,3.4c1.1,0.9,2.4,1.3,3.9,1.3c1.9,0,3.4-0.6,4.6-1.9l1.6,1.9
		c-0.7,0.8-1.6,1.5-2.7,1.9s-2.3,0.7-3.6,0.7c-1.7,0-3.2-0.3-4.5-1s-2.3-1.7-3-2.9s-1.1-2.6-1.1-4.2c0-1.5,0.3-2.9,1-4.2
		s1.6-2.2,2.9-2.9c1.2-0.7,2.6-1,4.1-1s2.9,0.3,4.1,1s2.1,1.7,2.8,2.9c0.7,1.2,1,2.7,1,4.3C285.9,520.8,285.9,521.1,285.9,521.4z
		 M274.6,516c-0.9,0.8-1.5,1.9-1.6,3.3h10.2c-0.2-1.3-0.7-2.4-1.6-3.3c-0.9-0.9-2.1-1.3-3.5-1.3C276.7,514.8,275.5,515.2,274.6,516z
		"/>
	<path class="st5" d="M298.8,528.1c-1.2-0.3-2.1-0.8-2.8-1.3l1.2-2.3c0.7,0.5,1.5,0.9,2.6,1.2c1,0.3,2,0.5,3,0.5
		c2.5,0,3.8-0.7,3.8-2.2c0-0.5-0.2-0.9-0.5-1.1c-0.3-0.3-0.8-0.5-1.3-0.6s-1.2-0.3-2.2-0.4c-1.3-0.2-2.3-0.4-3.1-0.7
		s-1.5-0.7-2.1-1.3s-0.9-1.5-0.9-2.6c0-1.4,0.6-2.6,1.8-3.5c1.2-0.9,2.8-1.3,4.8-1.3c1.1,0,2.1,0.1,3.2,0.4c1.1,0.3,1.9,0.6,2.6,1.1
		l-1.2,2.3c-1.3-0.8-2.8-1.3-4.6-1.3c-1.2,0-2.2,0.2-2.8,0.6c-0.6,0.4-1,0.9-1,1.6c0,0.5,0.2,0.9,0.5,1.2c0.4,0.3,0.8,0.5,1.3,0.7
		c0.5,0.1,1.3,0.3,2.2,0.5c1.3,0.2,2.3,0.5,3.1,0.7s1.5,0.7,2,1.3c0.6,0.6,0.8,1.4,0.8,2.5c0,1.4-0.6,2.6-1.8,3.4
		c-1.2,0.8-2.9,1.3-5,1.3C301.3,528.6,300,528.4,298.8,528.1z"/>
	<path class="st5" d="M327.3,521.4h-12.9c0.2,1.4,0.8,2.5,1.8,3.4c1.1,0.9,2.4,1.3,3.9,1.3c1.9,0,3.4-0.6,4.6-1.9l1.6,1.9
		c-0.7,0.8-1.6,1.5-2.7,1.9s-2.3,0.7-3.6,0.7c-1.7,0-3.2-0.3-4.5-1s-2.3-1.7-3-2.9s-1.1-2.6-1.1-4.2c0-1.5,0.3-2.9,1-4.2
		s1.6-2.2,2.9-2.9c1.2-0.7,2.6-1,4.1-1s2.9,0.3,4.1,1s2.1,1.7,2.8,2.9c0.7,1.2,1,2.7,1,4.3C327.4,520.8,327.4,521.1,327.3,521.4z
		 M316.1,516c-0.9,0.8-1.5,1.9-1.6,3.3h10.2c-0.2-1.3-0.7-2.4-1.6-3.3c-0.9-0.9-2.1-1.3-3.5-1.3C318.2,514.8,317,515.2,316.1,516z"
		/>
	<path class="st5" d="M346.2,512.5v15.9h-2.7V526c-0.6,0.8-1.3,1.5-2.3,1.9s-2,0.7-3.1,0.7c-2.1,0-3.8-0.6-5-1.8s-1.8-2.9-1.8-5.2
		v-9.2h2.9v8.8c0,1.5,0.4,2.7,1.1,3.5s1.8,1.2,3.2,1.2c1.5,0,2.7-0.5,3.6-1.4s1.3-2.2,1.3-3.9v-8.2h2.8V512.5z"/>
	<path class="st5" d="M372.3,513.4c1.2,0.7,2.2,1.6,2.9,2.8c0.7,1.2,1,2.6,1,4.2s-0.3,3-1,4.2s-1.6,2.2-2.9,2.9s-2.6,1-4.1,1
		c-1.1,0-2.2-0.2-3.1-0.7c-1-0.4-1.8-1.1-2.4-1.9v8.2h-2.9v-21.7h2.8v2.5c0.6-0.9,1.4-1.5,2.4-2c1-0.4,2.1-0.7,3.2-0.7
		C369.7,512.4,371.1,512.7,372.3,513.4z M370.7,525.4c0.8-0.5,1.4-1.1,1.9-2c0.5-0.8,0.7-1.8,0.7-2.9s-0.2-2.1-0.7-2.9
		c-0.5-0.8-1.1-1.5-1.9-2s-1.7-0.7-2.7-0.7s-1.9,0.2-2.7,0.7s-1.5,1.1-1.9,2c-0.5,0.8-0.7,1.8-0.7,2.9s0.2,2.1,0.7,2.9
		c0.5,0.9,1.1,1.5,1.9,2s1.7,0.7,2.7,0.7C369,526.1,369.9,525.8,370.7,525.4z"/>
	<path class="st5" d="M385.2,513.1c1-0.5,2.2-0.7,3.6-0.7v2.8c-0.2,0-0.4,0-0.7,0c-1.6,0-2.8,0.5-3.7,1.4c-0.9,0.9-1.3,2.3-1.3,4
		v7.9h-2.9v-15.9h2.8v2.7C383.5,514.3,384.2,513.6,385.2,513.1z"/>
	<path class="st5" d="M394.7,527.5c-1.3-0.7-2.2-1.7-3-2.9c-0.7-1.2-1.1-2.6-1.1-4.2s0.4-3,1.1-4.2s1.7-2.2,3-2.9s2.7-1,4.3-1
		c1.6,0,3,0.3,4.2,1s2.2,1.6,2.9,2.9c0.7,1.2,1.1,2.6,1.1,4.2s-0.4,3-1.1,4.2s-1.7,2.2-2.9,2.9c-1.3,0.7-2.7,1-4.2,1
		C397.4,528.6,396,528.2,394.7,527.5z M401.7,525.4c0.8-0.5,1.4-1.1,1.9-2c0.5-0.8,0.7-1.8,0.7-2.9s-0.2-2.1-0.7-2.9
		c-0.5-0.8-1.1-1.5-1.9-2s-1.7-0.7-2.7-0.7s-1.9,0.2-2.7,0.7c-0.8,0.5-1.5,1.1-1.9,2c-0.5,0.9-0.7,1.8-0.7,2.9s0.2,2.1,0.7,2.9
		c0.5,0.9,1.1,1.5,1.9,2s1.7,0.7,2.7,0.7S400.9,525.8,401.7,525.4z"/>
	<path class="st5" d="M407.2,534.2c-0.6-0.2-1.1-0.4-1.5-0.7l0.9-2.2c0.6,0.5,1.4,0.8,2.3,0.8c0.8,0,1.3-0.2,1.8-0.7
		c0.4-0.5,0.6-1.2,0.6-2.1v-16.7h2.9v16.6c0,1.6-0.4,2.9-1.3,3.9c-0.9,0.9-2.1,1.4-3.8,1.4C408.5,534.4,407.8,534.3,407.2,534.2z
		 M411.4,508.9c-0.4-0.4-0.6-0.8-0.6-1.3s0.2-1,0.6-1.3s0.8-0.6,1.4-0.6s1,0.2,1.4,0.5s0.6,0.8,0.6,1.3s-0.2,1-0.6,1.4
		s-0.8,0.6-1.4,0.6S411.8,509.3,411.4,508.9z"/>
	<path class="st5" d="M434.1,521.4h-12.9c0.2,1.4,0.8,2.5,1.8,3.4c1.1,0.9,2.4,1.3,3.9,1.3c1.9,0,3.4-0.6,4.6-1.9l1.6,1.9
		c-0.7,0.8-1.6,1.5-2.7,1.9s-2.3,0.7-3.6,0.7c-1.7,0-3.2-0.3-4.5-1s-2.3-1.7-3-2.9s-1.1-2.6-1.1-4.2c0-1.5,0.3-2.9,1-4.2
		s1.6-2.2,2.9-2.9c1.2-0.7,2.6-1,4.1-1s2.9,0.3,4.1,1s2.1,1.7,2.8,2.9c0.7,1.2,1,2.7,1,4.3C434.1,520.8,434.1,521.1,434.1,521.4z
		 M422.8,516c-0.9,0.8-1.5,1.9-1.6,3.3h10.2c-0.2-1.3-0.7-2.4-1.6-3.3c-0.9-0.9-2.1-1.3-3.5-1.3C424.9,514.8,423.7,515.2,422.8,516z
		"/>
	<path class="st5" d="M447,527.5c-0.4,0.4-0.9,0.6-1.6,0.8c-0.6,0.2-1.3,0.3-1.9,0.3c-1.6,0-2.8-0.4-3.7-1.3
		c-0.9-0.9-1.3-2.1-1.3-3.7v-8.7h-2.7v-2.4h2.7V509h2.9v3.5h4.6v2.4h-4.6v8.6c0,0.9,0.2,1.5,0.6,2s1,0.7,1.8,0.7
		c0.9,0,1.6-0.3,2.3-0.8L447,527.5z"/>
	<path class="st5" d="M452.5,527.5c-1.3-0.7-2.2-1.7-3-2.9c-0.7-1.2-1.1-2.6-1.1-4.2s0.4-3,1.1-4.2s1.7-2.2,3-2.9s2.7-1,4.3-1
		c1.6,0,3,0.3,4.2,1s2.2,1.6,2.9,2.9c0.7,1.2,1.1,2.6,1.1,4.2s-0.4,3-1.1,4.2s-1.7,2.2-2.9,2.9c-1.3,0.7-2.7,1-4.2,1
		C455.2,528.6,453.8,528.2,452.5,527.5z M459.5,525.4c0.8-0.5,1.4-1.1,1.9-2c0.5-0.8,0.7-1.8,0.7-2.9s-0.2-2.1-0.7-2.9
		c-0.5-0.8-1.1-1.5-1.9-2s-1.7-0.7-2.7-0.7s-1.9,0.2-2.7,0.7c-0.8,0.5-1.5,1.1-1.9,2c-0.5,0.9-0.7,1.8-0.7,2.9s0.2,2.1,0.7,2.9
		c0.5,0.9,1.1,1.5,1.9,2s1.7,0.7,2.7,0.7S458.7,525.8,459.5,525.4z"/>
</g>
<g>
	<g>
		
			<image style="overflow:visible;opacity:0.2;enable-background:new    ;" width="561" height="837" xlink:href="DC2412F6.png"  transform="matrix(1 0 0 1 611 16)">
		</image>
		<g>
			<path class="st0" d="M1091.2,830.8h-413c-32.4,0-58.6-26.3-58.6-58.6V83.4c0-32.4,26.3-58.6,58.6-58.6h413.1
				c32.4,0,58.6,26.3,58.6,58.6v688.7C1149.9,804.5,1123.6,830.8,1091.2,830.8z"/>
		</g>
	</g>
	<path class="st0" d="M1090.8,182.5H678.6c-32.6,0-59.1-26.5-59.1-59.1V83.9c0-32.6,26.5-59.1,59.1-59.1h412.1
		c32.6,0,59.1,26.5,59.1,59.1v39.5C1149.9,156,1123.4,182.5,1090.8,182.5z"/>
	<rect x="619.5" y="123.8" class="st0" width="531.5" height="58.2"/>
</g>
<rect x="618.4" y="81.8" class="st1" width="532.6" height="101.2"/>
<g class="st2">
	<path class="st3" d="M764.6,86.5c2.9,1.3,5.2,3.2,6.8,5.7s2.4,5.4,2.4,8.7c0,3.3-0.8,6.2-2.4,8.7c-1.6,2.5-3.9,4.4-6.8,5.7
		s-6.4,2-10.4,2h-9.1v12.5h-10.5V84.5h19.6C758.2,84.5,761.7,85.2,764.6,86.5z M760.8,106.7c1.6-1.4,2.5-3.3,2.5-5.8
		s-0.8-4.5-2.5-5.8c-1.6-1.4-4-2-7.2-2h-8.5v15.7h8.5C756.8,108.8,759.2,108.1,760.8,106.7z"/>
	<path class="st3" d="M795,95.8c2-0.9,4.4-1.3,7.1-1.3v9.3c-1.1-0.1-1.9-0.1-2.3-0.1c-2.9,0-5.1,0.8-6.8,2.4c-1.6,1.6-2.5,4-2.5,7.3
		v16.4h-10.1V95h9.6v4.6C791.4,97.9,793,96.6,795,95.8z"/>
	<path class="st3" d="M841.6,115.2h-26.3c0.5,2.2,1.6,3.9,3.4,5.1c1.8,1.3,4,1.9,6.6,1.9c1.8,0,3.4-0.3,4.8-0.8
		c1.4-0.5,2.7-1.4,3.9-2.6l5.4,5.8c-3.3,3.7-8.1,5.6-14.3,5.6c-3.9,0-7.4-0.8-10.4-2.3s-5.3-3.6-7-6.4c-1.6-2.7-2.5-5.8-2.5-9.2
		c0-3.4,0.8-6.5,2.4-9.2c1.6-2.7,3.8-4.9,6.7-6.4c2.8-1.5,6-2.3,9.5-2.3c3.4,0,6.5,0.7,9.2,2.2c2.8,1.5,4.9,3.6,6.5,6.3
		c1.6,2.7,2.4,5.9,2.4,9.5C841.8,112.6,841.8,113.5,841.6,115.2z M818.1,104c-1.6,1.3-2.5,3.1-2.8,5.3h17.1
		c-0.3-2.2-1.3-3.9-2.8-5.3c-1.6-1.3-3.4-2-5.7-2C821.5,102.1,819.6,102.8,818.1,104z"/>
	<path class="st3" d="M903.4,98.3c2.6,2.6,3.8,6.4,3.8,11.5v19.9h-10.1v-18.3c0-2.8-0.6-4.8-1.7-6.2s-2.8-2-4.9-2
		c-2.4,0-4.2,0.8-5.6,2.3c-1.4,1.5-2.1,3.8-2.1,6.8v17.4h-10.1v-18.3c0-5.5-2.2-8.2-6.6-8.2c-2.3,0-4.2,0.8-5.6,2.3
		c-1.4,1.5-2.1,3.8-2.1,6.8v17.4h-10.1V95h9.6v4c1.3-1.5,2.9-2.6,4.7-3.4c1.9-0.8,3.9-1.2,6.2-1.2c2.5,0,4.7,0.5,6.7,1.5
		s3.6,2.4,4.8,4.2c1.4-1.8,3.2-3.2,5.4-4.2s4.6-1.5,7.1-1.5C897.4,94.5,900.8,95.8,903.4,98.3z"/>
	<path class="st3" d="M916.8,88.5c-1.2-1.1-1.7-2.4-1.7-4s0.6-2.9,1.7-4c1.2-1.1,2.7-1.6,4.5-1.6s3.4,0.5,4.5,1.5s1.7,2.3,1.7,3.9
		c0,1.7-0.6,3.1-1.7,4.2s-2.7,1.6-4.5,1.6C919.5,90.2,918,89.6,916.8,88.5z M916.3,95h10.1v34.7h-10.1V95z"/>
	<path class="st3" d="M970.7,95v34.7h-9.6v-4.1c-1.3,1.5-2.9,2.7-4.8,3.5c-1.9,0.8-3.9,1.2-6,1.2c-4.6,0-8.2-1.3-10.8-3.9
		c-2.7-2.6-4-6.5-4-11.7V95h10.1v18.1c0,5.6,2.3,8.4,7,8.4c2.4,0,4.3-0.8,5.8-2.4s2.2-3.9,2.2-7V95H970.7z"/>
	<path class="st3" d="M1035,98.3c2.6,2.6,3.8,6.4,3.8,11.5v19.9h-10.1v-18.3c0-2.8-0.6-4.8-1.7-6.2c-1.1-1.4-2.8-2-4.9-2
		c-2.4,0-4.2,0.8-5.6,2.3c-1.4,1.5-2.1,3.8-2.1,6.8v17.4h-10.1v-18.3c0-5.5-2.2-8.2-6.6-8.2c-2.3,0-4.2,0.8-5.6,2.3
		c-1.4,1.5-2.1,3.8-2.1,6.8v17.4h-10.1V95h9.6v4c1.3-1.5,2.9-2.6,4.7-3.4c1.9-0.8,3.9-1.2,6.2-1.2c2.5,0,4.7,0.5,6.7,1.5
		s3.6,2.4,4.8,4.2c1.4-1.8,3.2-3.2,5.4-4.2s4.6-1.5,7.1-1.5C1028.9,94.5,1032.4,95.8,1035,98.3z"/>
</g>
<rect x="847" y="524.1" transform="matrix(6.131480e-03 -1 1 6.131480e-03 88.9498 1669.1471)" class="st1" width="74.3" height="531.5"/>
<rect x="788.8" y="711.5" class="st1" width="191.6" height="47"/>
<rect x="618" y="165" class="st4" width="534" height="1"/>
<g>
	<g>
		<path id="Check_6_" class="st5" d="M697.4,258.4c-0.5-0.5-1.3-0.5-1.9,0L677,276.8l-8.1-8c-0.5-0.5-1.3-0.5-1.9,0s-0.5,1.3,0,1.8
			l9.1,8.9c0.5,0.5,1.3,0.5,1.9,0l19.5-19.3C697.9,259.7,697.9,258.9,697.4,258.4S697.9,258.9,697.4,258.4z"/>
	</g>
</g>
<rect x="640.5" y="256.1" class="st1" width="489.5" height="25.9"/>
<g class="st2">
	<path class="st5" d="M717.2,276.2c-1.6-1.6-2.3-3.9-2.3-6.9v-11.9h3v11.8c0,4.5,2,6.8,5.9,6.8c1.9,0,3.4-0.6,4.4-1.7
		s1.5-2.8,1.5-5.1v-11.8h2.9v11.9c0,3-0.8,5.3-2.3,6.9c-1.6,1.6-3.7,2.4-6.5,2.4C721,278.6,718.8,277.8,717.2,276.2z"/>
	<path class="st5" d="M763,264.1c1.2,1.2,1.8,2.9,1.8,5.2v9.2h-2.9v-8.8c0-1.5-0.4-2.7-1.1-3.5c-0.7-0.8-1.7-1.2-3-1.2
		c-1.5,0-2.6,0.5-3.5,1.4s-1.3,2.2-1.3,3.9v8.2h-2.9v-8.8c0-1.5-0.4-2.7-1.1-3.5s-1.7-1.2-3-1.2c-1.5,0-2.6,0.5-3.5,1.4
		s-1.3,2.2-1.3,3.9v8.2h-2.9v-15.9h2.8v2.4c0.6-0.8,1.3-1.4,2.3-1.9c0.9-0.4,2-0.6,3.2-0.6s2.3,0.3,3.3,0.8s1.7,1.2,2.2,2.2
		c0.6-0.9,1.4-1.6,2.5-2.2c1.1-0.5,2.3-0.8,3.6-0.8C760.3,262.4,761.8,262.9,763,264.1z"/>
	<path class="st5" d="M780.9,264c1.2,1.1,1.8,2.7,1.8,4.8v9.6H780v-2.1c-0.5,0.7-1.2,1.3-2.1,1.7c-0.9,0.4-1.9,0.6-3.2,0.6
		c-1.8,0-3.2-0.4-4.3-1.3s-1.6-2-1.6-3.4s0.5-2.5,1.5-3.4c1-0.8,2.6-1.3,4.9-1.3h4.6v-0.6c0-1.2-0.4-2.2-1.1-2.9
		c-0.7-0.7-1.8-1-3.2-1c-0.9,0-1.9,0.2-2.8,0.5c-0.9,0.3-1.7,0.7-2.3,1.2l-1.2-2.2c0.8-0.7,1.8-1.2,2.9-1.5c1.1-0.3,2.3-0.5,3.6-0.5
		C778.1,262.4,779.8,262.9,780.9,264z M778.1,275.6c0.8-0.5,1.4-1.2,1.7-2.1v-2.2h-4.4c-2.4,0-3.7,0.8-3.7,2.5
		c0,0.8,0.3,1.4,0.9,1.9c0.6,0.5,1.5,0.7,2.6,0.7C776.3,276.4,777.3,276.1,778.1,275.6z"/>
	<path class="st5" d="M809.4,264.1c1.2,1.2,1.8,2.9,1.8,5.1v9.2h-2.9v-8.8c0-1.5-0.4-2.7-1.1-3.5c-0.7-0.8-1.8-1.2-3.2-1.2
		c-1.6,0-2.8,0.5-3.7,1.4s-1.3,2.2-1.3,3.9v8.2h-2.9v-22.3h2.9v8.6c0.6-0.8,1.4-1.3,2.4-1.8s2.1-0.6,3.3-0.6
		C806.6,262.4,808.2,262.9,809.4,264.1z"/>
	<path class="st5" d="M819.2,277.5c-1.3-0.7-2.2-1.7-3-2.9c-0.7-1.2-1.1-2.6-1.1-4.2s0.4-3,1.1-4.2c0.7-1.2,1.7-2.2,3-2.9
		c1.3-0.7,2.7-1,4.3-1s3,0.3,4.2,1s2.2,1.6,2.9,2.9c0.7,1.2,1.1,2.6,1.1,4.2s-0.4,3-1.1,4.2c-0.7,1.2-1.7,2.2-2.9,2.9
		c-1.3,0.7-2.7,1-4.2,1S820.4,278.2,819.2,277.5z M826.2,275.4c0.8-0.5,1.4-1.1,1.9-2c0.5-0.8,0.7-1.8,0.7-2.9s-0.2-2.1-0.7-2.9
		s-1.1-1.5-1.9-2s-1.7-0.7-2.7-0.7s-1.9,0.2-2.7,0.7s-1.5,1.1-1.9,2c-0.5,0.9-0.7,1.8-0.7,2.9s0.2,2.1,0.7,2.9
		c0.5,0.9,1.1,1.5,1.9,2s1.7,0.7,2.7,0.7S825.4,275.8,826.2,275.4z"/>
	<path class="st5" d="M840.6,263.1c1-0.5,2.2-0.7,3.6-0.7v2.8c-0.2,0-0.4,0-0.7,0c-1.6,0-2.8,0.5-3.7,1.4s-1.3,2.3-1.3,4v7.9h-2.9
		v-15.9h2.8v2.7C838.9,264.3,839.7,263.6,840.6,263.1z"/>
	<path class="st5" d="M858.6,264c1.2,1.1,1.8,2.7,1.8,4.8v9.6h-2.7v-2.1c-0.5,0.7-1.2,1.3-2.1,1.7c-0.9,0.4-1.9,0.6-3.2,0.6
		c-1.8,0-3.2-0.4-4.3-1.3s-1.6-2-1.6-3.4s0.5-2.5,1.5-3.4c1-0.8,2.6-1.3,4.9-1.3h4.6v-0.6c0-1.2-0.4-2.2-1.1-2.9
		c-0.7-0.7-1.8-1-3.2-1c-0.9,0-1.9,0.2-2.8,0.5c-0.9,0.3-1.7,0.7-2.3,1.2l-1.2-2.2c0.8-0.7,1.8-1.2,2.9-1.5c1.1-0.3,2.3-0.5,3.6-0.5
		C855.7,262.4,857.4,262.9,858.6,264z M855.7,275.6c0.8-0.5,1.4-1.2,1.7-2.1v-2.2H853c-2.4,0-3.7,0.8-3.7,2.5c0,0.8,0.3,1.4,0.9,1.9
		c0.6,0.5,1.5,0.7,2.6,0.7C853.9,276.4,854.9,276.1,855.7,275.6z"/>
	<path class="st5" d="M888.7,256.1v22.3H886v-2.5c-0.6,0.9-1.5,1.5-2.4,2c-1,0.5-2.1,0.7-3.2,0.7c-1.5,0-2.9-0.3-4.1-1
		s-2.2-1.6-2.9-2.9c-0.7-1.2-1-2.6-1-4.2s0.3-3,1-4.2s1.6-2.2,2.9-2.9c1.2-0.7,2.6-1,4.1-1c1.1,0,2.2,0.2,3.2,0.6s1.8,1.1,2.4,1.9
		v-8.8H888.7z M883.3,275.4c0.8-0.5,1.5-1.1,1.9-2c0.5-0.8,0.7-1.8,0.7-2.9s-0.2-2.1-0.7-2.9s-1.1-1.5-1.9-2
		c-0.8-0.5-1.7-0.7-2.7-0.7s-1.9,0.2-2.7,0.7s-1.5,1.1-1.9,2c-0.5,0.9-0.7,1.8-0.7,2.9s0.2,2.1,0.7,2.9c0.5,0.9,1.1,1.5,1.9,2
		s1.7,0.7,2.7,0.7C881.5,276.1,882.4,275.8,883.3,275.4z"/>
	<path class="st5" d="M908.5,271.4h-12.9c0.2,1.4,0.8,2.5,1.8,3.4c1.1,0.9,2.4,1.3,3.9,1.3c1.9,0,3.4-0.6,4.6-1.9l1.6,1.9
		c-0.7,0.8-1.6,1.5-2.7,1.9c-1.1,0.4-2.3,0.7-3.6,0.7c-1.7,0-3.2-0.3-4.5-1s-2.3-1.7-3-2.9s-1.1-2.6-1.1-4.2c0-1.5,0.3-2.9,1-4.2
		c0.7-1.2,1.6-2.2,2.8-2.9c1.2-0.7,2.6-1,4.1-1s2.9,0.3,4.1,1c1.2,0.7,2.1,1.7,2.8,2.9c0.7,1.2,1,2.7,1,4.3
		C908.6,270.8,908.5,271.1,908.5,271.4z M897.2,266c-0.9,0.8-1.5,1.9-1.6,3.3h10.2c-0.2-1.3-0.7-2.4-1.6-3.3
		c-0.9-0.9-2.1-1.3-3.5-1.3C899.3,264.8,898.2,265.2,897.2,266z"/>
	<path class="st5" d="M945.3,264.1c1.2,1.2,1.8,2.9,1.8,5.2v9.2h-2.9v-8.8c0-1.5-0.4-2.7-1.1-3.5c-0.7-0.8-1.7-1.2-3-1.2
		c-1.5,0-2.6,0.5-3.5,1.4s-1.3,2.2-1.3,3.9v8.2h-2.9v-8.8c0-1.5-0.4-2.7-1.1-3.5s-1.7-1.2-3-1.2c-1.5,0-2.6,0.5-3.5,1.4
		s-1.3,2.2-1.3,3.9v8.2h-2.9v-15.9h2.8v2.4c0.6-0.8,1.3-1.4,2.3-1.9c0.9-0.4,2-0.6,3.2-0.6s2.3,0.3,3.3,0.8s1.7,1.2,2.2,2.2
		c0.6-0.9,1.4-1.6,2.5-2.2c1.1-0.5,2.3-0.8,3.6-0.8C942.5,262.4,944.1,262.9,945.3,264.1z"/>
	<path class="st5" d="M966.7,271.4h-12.9c0.2,1.4,0.8,2.5,1.8,3.4s2.4,1.3,3.9,1.3c1.9,0,3.4-0.6,4.6-1.9l1.6,1.9
		c-0.7,0.8-1.6,1.5-2.7,1.9c-1.1,0.4-2.3,0.7-3.6,0.7c-1.7,0-3.2-0.3-4.5-1s-2.3-1.7-3-2.9c-0.7-1.2-1.1-2.6-1.1-4.2
		c0-1.5,0.3-2.9,1-4.2c0.7-1.2,1.6-2.2,2.9-2.9c1.2-0.7,2.6-1,4.1-1s2.9,0.3,4.1,1c1.2,0.7,2.1,1.7,2.8,2.9c0.7,1.2,1,2.7,1,4.3
		C966.8,270.8,966.8,271.1,966.7,271.4z M955.5,266c-0.9,0.8-1.5,1.9-1.6,3.3H964c-0.2-1.3-0.7-2.4-1.6-3.3
		c-0.9-0.9-2.1-1.3-3.5-1.3S956.4,265.2,955.5,266z"/>
	<path class="st5" d="M984.1,264.1c1.2,1.2,1.8,2.9,1.8,5.1v9.2H983v-8.8c0-1.5-0.4-2.7-1.1-3.5c-0.7-0.8-1.8-1.2-3.2-1.2
		c-1.6,0-2.8,0.5-3.7,1.4s-1.3,2.2-1.3,3.9v8.2h-2.9v-15.9h2.8v2.4c0.6-0.8,1.4-1.5,2.4-1.9s2.1-0.7,3.4-0.7
		C981.3,262.4,982.9,262.9,984.1,264.1z"/>
	<path class="st5" d="M1000.1,277.5c-0.4,0.4-0.9,0.6-1.6,0.8c-0.6,0.2-1.3,0.3-1.9,0.3c-1.6,0-2.8-0.4-3.7-1.3s-1.3-2.1-1.3-3.7
		v-8.7h-2.7v-2.4h2.7V259h2.9v3.5h4.6v2.4h-4.6v8.6c0,0.9,0.2,1.5,0.6,2c0.4,0.5,1,0.7,1.8,0.7c0.9,0,1.6-0.3,2.3-0.8L1000.1,277.5z
		"/>
	<path class="st5" d="M1005.6,277.5c-1.3-0.7-2.2-1.7-3-2.9c-0.7-1.2-1.1-2.6-1.1-4.2s0.4-3,1.1-4.2c0.7-1.2,1.7-2.2,3-2.9
		c1.3-0.7,2.7-1,4.3-1s3,0.3,4.2,1c1.3,0.7,2.2,1.6,2.9,2.9c0.7,1.2,1.1,2.6,1.1,4.2s-0.4,3-1.1,4.2c-0.7,1.2-1.7,2.2-2.9,2.9
		s-2.7,1-4.2,1C1008.3,278.6,1006.9,278.2,1005.6,277.5z M1012.6,275.4c0.8-0.5,1.4-1.1,1.9-2c0.5-0.8,0.7-1.8,0.7-2.9
		s-0.2-2.1-0.7-2.9s-1.1-1.5-1.9-2c-0.8-0.5-1.7-0.7-2.7-0.7s-1.9,0.2-2.7,0.7s-1.4,1.1-1.9,2s-0.7,1.8-0.7,2.9s0.2,2.1,0.7,2.9
		c0.5,0.9,1.1,1.5,1.9,2c0.8,0.5,1.7,0.7,2.7,0.7C1010.9,276.1,1011.8,275.8,1012.6,275.4z"/>
	<path class="st5" d="M1027.1,263.1c1-0.5,2.2-0.7,3.6-0.7v2.8c-0.2,0-0.4,0-0.7,0c-1.6,0-2.8,0.5-3.7,1.4c-0.9,0.9-1.3,2.3-1.3,4
		v7.9h-2.9v-15.9h2.8v2.7C1025.4,264.3,1026.1,263.6,1027.1,263.1z"/>
	<path class="st5" d="M1034.3,258.9c-0.4-0.4-0.6-0.8-0.6-1.3s0.2-1,0.6-1.3c0.4-0.4,0.8-0.6,1.4-0.6s1,0.2,1.4,0.5
		c0.4,0.3,0.6,0.8,0.6,1.3s-0.2,1-0.6,1.4s-0.8,0.6-1.4,0.6C1035.1,259.4,1034.6,259.3,1034.3,258.9z M1034.2,262.5h2.9v15.9h-2.9
		V262.5z"/>
	<path class="st5" d="M1053.4,264c1.2,1.1,1.8,2.7,1.8,4.8v9.6h-2.7v-2.1c-0.5,0.7-1.2,1.3-2.1,1.7c-0.9,0.4-1.9,0.6-3.2,0.6
		c-1.8,0-3.2-0.4-4.3-1.3c-1.1-0.9-1.6-2-1.6-3.4s0.5-2.5,1.5-3.4c1-0.8,2.6-1.3,4.9-1.3h4.6v-0.6c0-1.2-0.4-2.2-1.1-2.9
		c-0.7-0.7-1.8-1-3.2-1c-0.9,0-1.9,0.2-2.8,0.5s-1.7,0.7-2.3,1.2l-1.2-2.2c0.8-0.7,1.8-1.2,2.9-1.5s2.3-0.5,3.6-0.5
		C1050.6,262.4,1052.3,262.9,1053.4,264z M1050.6,275.6c0.8-0.5,1.4-1.2,1.7-2.1v-2.2h-4.4c-2.4,0-3.7,0.8-3.7,2.5
		c0,0.8,0.3,1.4,0.9,1.9s1.5,0.7,2.6,0.7C1048.8,276.4,1049.8,276.1,1050.6,275.6z"/>
</g>
<g>
	<g>
		<path id="Check_5_" class="st5" d="M697.4,339.4c-0.5-0.5-1.3-0.5-1.9,0L677,357.8l-8.1-8c-0.5-0.5-1.3-0.5-1.9,0s-0.5,1.3,0,1.8
			l9.1,8.9c0.5,0.5,1.3,0.5,1.9,0l19.5-19.3C697.9,340.7,697.9,339.9,697.4,339.4S697.9,339.9,697.4,339.4z"/>
	</g>
</g>
<rect x="640.5" y="334.1" class="st1" width="489.5" height="59.9"/>
<g class="st2">
	<path class="st5" d="M744.5,353.8v2.6h-15.2v-21h14.8v2.6h-11.8v6.4h10.5v2.6h-10.5v6.8H744.5z"/>
	<path class="st5" d="M749.5,356.1c-1.2-0.3-2.1-0.8-2.8-1.3l1.2-2.3c0.7,0.5,1.6,0.9,2.6,1.2s2,0.5,3,0.5c2.5,0,3.8-0.7,3.8-2.2
		c0-0.5-0.2-0.9-0.5-1.1c-0.3-0.3-0.8-0.5-1.3-0.6s-1.2-0.3-2.2-0.4c-1.3-0.2-2.3-0.4-3.1-0.7s-1.5-0.7-2.1-1.3
		c-0.6-0.6-0.9-1.5-0.9-2.6c0-1.4,0.6-2.6,1.8-3.5s2.8-1.3,4.8-1.3c1.1,0,2.1,0.1,3.2,0.4c1.1,0.3,1.9,0.6,2.6,1l-1.2,2.3
		c-1.3-0.8-2.8-1.3-4.6-1.3c-1.2,0-2.2,0.2-2.8,0.6s-1,0.9-1,1.6c0,0.5,0.2,0.9,0.5,1.2c0.4,0.3,0.8,0.5,1.3,0.7
		c0.5,0.1,1.3,0.3,2.2,0.5c1.3,0.2,2.3,0.5,3.1,0.7c0.8,0.3,1.5,0.7,2,1.3c0.6,0.6,0.8,1.4,0.8,2.5c0,1.4-0.6,2.6-1.8,3.4
		s-2.9,1.3-5,1.3C752,356.6,750.7,356.4,749.5,356.1z"/>
	<path class="st5" d="M766.4,355.5c-1.3-0.7-2.3-1.7-3-2.9c-0.7-1.2-1.1-2.6-1.1-4.2s0.4-3,1.1-4.2c0.7-1.2,1.7-2.2,3-2.9
		c1.3-0.7,2.7-1,4.3-1c1.4,0,2.7,0.3,3.9,0.9s2,1.4,2.6,2.5l-2.2,1.4c-0.5-0.8-1.1-1.3-1.9-1.7c-0.7-0.4-1.6-0.6-2.5-0.6
		c-1,0-2,0.2-2.8,0.7s-1.5,1.1-2,2s-0.7,1.8-0.7,2.9s0.2,2.1,0.7,3s1.1,1.5,2,2c0.8,0.5,1.8,0.7,2.8,0.7c0.9,0,1.7-0.2,2.5-0.6
		c0.7-0.4,1.4-0.9,1.9-1.7l2.2,1.4c-0.6,1.1-1.5,1.9-2.6,2.5s-2.4,0.9-3.9,0.9C769.1,356.6,767.6,356.2,766.4,355.5z"/>
	<path class="st5" d="M783.2,355.5c-1.3-0.7-2.2-1.7-3-2.9c-0.7-1.2-1.1-2.6-1.1-4.2s0.4-3,1.1-4.2c0.7-1.2,1.7-2.2,3-2.9
		c1.3-0.7,2.7-1,4.3-1s3,0.3,4.2,1c1.3,0.7,2.2,1.6,2.9,2.9c0.7,1.2,1.1,2.6,1.1,4.2s-0.4,3-1.1,4.2c-0.7,1.2-1.7,2.2-2.9,2.9
		s-2.7,1-4.2,1C785.9,356.6,784.5,356.2,783.2,355.5z M790.2,353.4c0.8-0.5,1.4-1.1,1.9-2c0.5-0.8,0.7-1.8,0.7-2.9s-0.2-2.1-0.7-2.9
		s-1.1-1.5-1.9-2c-0.8-0.5-1.7-0.7-2.7-0.7s-1.9,0.2-2.7,0.7s-1.4,1.1-1.9,2s-0.7,1.8-0.7,2.9s0.2,2.1,0.7,2.9
		c0.5,0.9,1.1,1.5,1.9,2c0.8,0.5,1.7,0.7,2.7,0.7S789.4,353.8,790.2,353.4z"/>
	<path class="st5" d="M799.7,334.1h2.9v22.3h-2.9V334.1z"/>
	<path class="st5" d="M821.4,342.1c1.2,1.2,1.8,2.9,1.8,5.1v9.2h-2.9v-8.8c0-1.5-0.4-2.7-1.1-3.5s-1.8-1.2-3.2-1.2
		c-1.6,0-2.8,0.5-3.7,1.4s-1.4,2.2-1.4,3.9v8.2H808v-22.3h2.9v8.6c0.6-0.8,1.4-1.3,2.4-1.8s2.1-0.6,3.3-0.6
		C818.6,340.4,820.2,340.9,821.4,342.1z"/>
	<path class="st5" d="M839.3,342c1.2,1.1,1.8,2.7,1.8,4.8v9.6h-2.7v-2.1c-0.5,0.7-1.2,1.3-2.1,1.7c-0.9,0.4-1.9,0.6-3.2,0.6
		c-1.8,0-3.2-0.4-4.3-1.3s-1.6-2-1.6-3.4s0.5-2.5,1.5-3.4c1-0.8,2.6-1.3,4.9-1.3h4.6v-0.6c0-1.2-0.4-2.2-1.1-2.9
		c-0.7-0.7-1.8-1-3.2-1c-0.9,0-1.9,0.2-2.8,0.5c-0.9,0.3-1.7,0.7-2.3,1.2l-1.2-2.2c0.8-0.7,1.8-1.2,2.9-1.5c1.1-0.3,2.3-0.5,3.6-0.5
		C836.5,340.4,838.2,340.9,839.3,342z M836.5,353.6c0.8-0.5,1.4-1.2,1.7-2.1v-2.2h-4.4c-2.4,0-3.7,0.8-3.7,2.5
		c0,0.8,0.3,1.4,0.9,1.9c0.6,0.5,1.5,0.7,2.6,0.7C834.7,354.4,835.7,354.1,836.5,353.6z"/>
	<path class="st5" d="M857.1,355.5c-1.3-0.7-2.2-1.7-3-2.9c-0.7-1.2-1.1-2.6-1.1-4.2s0.4-3,1.1-4.2c0.7-1.2,1.7-2.2,3-2.9
		c1.3-0.7,2.7-1,4.3-1s3,0.3,4.2,1c1.3,0.7,2.2,1.6,2.9,2.9c0.7,1.2,1.1,2.6,1.1,4.2s-0.4,3-1.1,4.2c-0.7,1.2-1.7,2.2-2.9,2.9
		s-2.7,1-4.2,1C859.7,356.6,858.3,356.2,857.1,355.5z M864.1,353.4c0.8-0.5,1.4-1.1,1.9-2c0.5-0.8,0.7-1.8,0.7-2.9s-0.2-2.1-0.7-2.9
		s-1.1-1.5-1.9-2c-0.8-0.5-1.7-0.7-2.7-0.7s-1.9,0.2-2.7,0.7s-1.4,1.1-1.9,2s-0.7,1.8-0.7,2.9s0.2,2.1,0.7,2.9
		c0.5,0.9,1.1,1.5,1.9,2c0.8,0.5,1.7,0.7,2.7,0.7C862.3,354.1,863.3,353.8,864.1,353.4z"/>
	<path class="st5" d="M906.3,342.1c1.2,1.2,1.8,2.9,1.8,5.2v9.2h-2.9v-8.8c0-1.5-0.4-2.7-1.1-3.5s-1.7-1.2-3-1.2
		c-1.5,0-2.6,0.5-3.5,1.4s-1.3,2.2-1.3,3.9v8.2h-2.9v-8.8c0-1.5-0.4-2.7-1.1-3.5s-1.7-1.2-3-1.2c-1.5,0-2.6,0.5-3.5,1.4
		s-1.3,2.2-1.3,3.9v8.2h-2.9v-15.9h2.8v2.4c0.6-0.8,1.3-1.4,2.3-1.9c0.9-0.4,2-0.6,3.2-0.6s2.3,0.3,3.3,0.8s1.7,1.2,2.2,2.2
		c0.6-0.9,1.4-1.6,2.5-2.2c1.1-0.5,2.3-0.8,3.6-0.8C903.5,340.4,905.1,340.9,906.3,342.1z"/>
	<path class="st5" d="M927.7,349.4h-12.9c0.2,1.4,0.8,2.5,1.8,3.4c1.1,0.9,2.4,1.3,3.9,1.3c1.9,0,3.4-0.6,4.6-1.9l1.6,1.9
		c-0.7,0.8-1.6,1.5-2.7,1.9c-1.1,0.4-2.3,0.7-3.6,0.7c-1.7,0-3.2-0.3-4.5-1s-2.3-1.7-3-2.9s-1.1-2.6-1.1-4.2c0-1.5,0.3-2.9,1-4.2
		c0.7-1.2,1.6-2.2,2.8-2.9c1.2-0.7,2.6-1,4.1-1s2.9,0.3,4.1,1c1.2,0.7,2.1,1.7,2.8,2.9c0.7,1.2,1,2.7,1,4.3
		C927.8,348.8,927.8,349.1,927.7,349.4z M916.5,344c-0.9,0.8-1.5,1.9-1.6,3.3H925c-0.2-1.3-0.7-2.4-1.6-3.3
		c-0.9-0.9-2.1-1.3-3.5-1.3C918.6,342.8,917.4,343.2,916.5,344z"/>
	<path class="st5" d="M931.8,334.1h2.9v22.3h-2.9V334.1z"/>
	<path class="st5" d="M953.5,342.1c1.2,1.2,1.8,2.9,1.8,5.1v9.2h-2.9v-8.8c0-1.5-0.4-2.7-1.1-3.5c-0.7-0.8-1.8-1.2-3.2-1.2
		c-1.6,0-2.8,0.5-3.7,1.4s-1.3,2.2-1.3,3.9v8.2h-2.9v-22.3h2.9v8.6c0.6-0.8,1.4-1.3,2.4-1.8s2.1-0.6,3.3-0.6
		C950.7,340.4,952.3,340.9,953.5,342.1z"/>
	<path class="st5" d="M963.2,355.5c-1.3-0.7-2.2-1.7-3-2.9c-0.7-1.2-1.1-2.6-1.1-4.2s0.4-3,1.1-4.2c0.7-1.2,1.7-2.2,3-2.9
		c1.3-0.7,2.7-1,4.3-1s3,0.3,4.2,1s2.2,1.6,2.9,2.9c0.7,1.2,1.1,2.6,1.1,4.2s-0.4,3-1.1,4.2c-0.7,1.2-1.7,2.2-2.9,2.9
		c-1.3,0.7-2.7,1-4.2,1S964.5,356.2,963.2,355.5z M970.2,353.4c0.8-0.5,1.4-1.1,1.9-2c0.5-0.8,0.7-1.8,0.7-2.9s-0.2-2.1-0.7-2.9
		s-1.1-1.5-1.9-2s-1.7-0.7-2.7-0.7s-1.9,0.2-2.7,0.7s-1.5,1.1-1.9,2c-0.5,0.9-0.7,1.8-0.7,2.9s0.2,2.1,0.7,2.9
		c0.5,0.9,1.1,1.5,1.9,2s1.7,0.7,2.7,0.7S969.4,353.8,970.2,353.4z"/>
	<path class="st5" d="M984.7,341.1c1-0.5,2.2-0.7,3.6-0.7v2.8c-0.2,0-0.4,0-0.7,0c-1.6,0-2.8,0.5-3.7,1.4s-1.3,2.3-1.3,4v7.9h-2.9
		v-15.9h2.8v2.7C983,342.3,983.7,341.6,984.7,341.1z"/>
	<path class="st5" d="M1015.1,334.1v22.3h-2.8v-2.5c-0.6,0.9-1.5,1.5-2.4,2c-1,0.5-2.1,0.7-3.2,0.7c-1.5,0-2.9-0.3-4.1-1
		c-1.2-0.7-2.2-1.6-2.9-2.9c-0.7-1.2-1-2.6-1-4.2s0.3-3,1-4.2s1.6-2.2,2.9-2.9c1.2-0.7,2.6-1,4.1-1c1.1,0,2.2,0.2,3.2,0.6
		s1.8,1.1,2.4,1.9v-8.8H1015.1z M1009.6,353.4c0.8-0.5,1.5-1.1,1.9-2c0.5-0.8,0.7-1.8,0.7-2.9s-0.2-2.1-0.7-2.9s-1.1-1.5-1.9-2
		c-0.8-0.5-1.7-0.7-2.7-0.7s-1.9,0.2-2.7,0.7s-1.4,1.1-1.9,2s-0.7,1.8-0.7,2.9s0.2,2.1,0.7,2.9c0.5,0.9,1.1,1.5,1.9,2
		c0.8,0.5,1.7,0.7,2.7,0.7C1007.9,354.1,1008.8,353.8,1009.6,353.4z"/>
	<path class="st5" d="M1020.6,336.9c-0.4-0.4-0.6-0.8-0.6-1.3s0.2-1,0.6-1.3c0.4-0.4,0.8-0.6,1.4-0.6c0.6,0,1,0.2,1.4,0.5
		s0.6,0.8,0.6,1.3s-0.2,1-0.6,1.4s-0.8,0.6-1.4,0.6C1021.4,337.4,1021,337.3,1020.6,336.9z M1020.6,340.5h2.9v15.9h-2.9V340.5z"/>
	<path class="st5" d="M1039.8,342c1.2,1.1,1.8,2.7,1.8,4.8v9.6h-2.7v-2.1c-0.5,0.7-1.2,1.3-2.1,1.7c-0.9,0.4-1.9,0.6-3.2,0.6
		c-1.8,0-3.2-0.4-4.3-1.3c-1.1-0.9-1.6-2-1.6-3.4s0.5-2.5,1.5-3.4c1-0.8,2.6-1.3,4.9-1.3h4.6v-0.6c0-1.2-0.4-2.2-1.1-2.9
		s-1.8-1-3.2-1c-0.9,0-1.9,0.2-2.8,0.5s-1.7,0.7-2.3,1.2l-1.2-2.2c0.8-0.7,1.8-1.2,2.9-1.5s2.3-0.5,3.6-0.5
		C1036.9,340.4,1038.6,340.9,1039.8,342z M1036.9,353.6c0.8-0.5,1.4-1.2,1.7-2.1v-2.2h-4.4c-2.4,0-3.7,0.8-3.7,2.5
		c0,0.8,0.3,1.4,0.9,1.9s1.5,0.7,2.6,0.7S1036.1,354.1,1036.9,353.6z"/>
</g>
<g class="st2">
	<path class="st5" d="M834.4,385.4h-12.9c0.2,1.4,0.8,2.5,1.8,3.4c1.1,0.9,2.4,1.3,3.9,1.3c1.9,0,3.4-0.6,4.6-1.9l1.6,1.9
		c-0.7,0.8-1.6,1.5-2.7,1.9c-1.1,0.4-2.3,0.7-3.6,0.7c-1.7,0-3.2-0.3-4.5-1s-2.3-1.7-3-2.9c-0.7-1.2-1.1-2.6-1.1-4.2
		c0-1.5,0.3-2.9,1-4.2c0.7-1.2,1.6-2.2,2.8-2.9c1.2-0.7,2.6-1,4.1-1s2.9,0.3,4.1,1c1.2,0.7,2.1,1.7,2.8,2.9c0.7,1.2,1,2.7,1,4.3
		C834.4,384.8,834.4,385.1,834.4,385.4z M823.1,380c-0.9,0.8-1.5,1.9-1.6,3.3h10.2c-0.2-1.3-0.7-2.4-1.6-3.3
		c-0.9-0.9-2.1-1.3-3.5-1.3C825.2,378.8,824,379.2,823.1,380z"/>
	<path class="st5" d="M859.8,378.1c1.2,1.2,1.8,2.9,1.8,5.1v9.2h-2.9v-8.8c0-1.5-0.4-2.7-1.1-3.5c-0.7-0.8-1.8-1.2-3.2-1.2
		c-1.6,0-2.8,0.5-3.7,1.4s-1.4,2.2-1.4,3.9v8.2h-2.9v-22.3h2.9v8.6c0.6-0.8,1.4-1.3,2.4-1.8c1-0.4,2.1-0.6,3.3-0.6
		C857,376.4,858.6,376.9,859.8,378.1z"/>
	<path class="st5" d="M869.5,391.5c-1.3-0.7-2.2-1.7-3-2.9c-0.7-1.2-1.1-2.6-1.1-4.2s0.4-3,1.1-4.2c0.7-1.2,1.7-2.2,3-2.9
		c1.3-0.7,2.7-1,4.3-1s3,0.3,4.2,1c1.3,0.7,2.2,1.6,2.9,2.9c0.7,1.2,1.1,2.6,1.1,4.2s-0.4,3-1.1,4.2c-0.7,1.2-1.7,2.2-2.9,2.9
		s-2.7,1-4.2,1S870.8,392.2,869.5,391.5z M876.5,389.4c0.8-0.5,1.4-1.1,1.9-2c0.5-0.8,0.7-1.8,0.7-2.9s-0.2-2.1-0.7-2.9
		s-1.1-1.5-1.9-2c-0.8-0.5-1.7-0.7-2.7-0.7s-1.9,0.2-2.7,0.7s-1.5,1.1-1.9,2c-0.5,0.9-0.7,1.8-0.7,2.9s0.2,2.1,0.7,2.9
		c0.5,0.9,1.1,1.5,1.9,2c0.8,0.5,1.7,0.7,2.7,0.7S875.7,389.8,876.5,389.4z"/>
	<path class="st5" d="M891,377.1c1-0.5,2.2-0.7,3.6-0.7v2.8c-0.2,0-0.4,0-0.7,0c-1.6,0-2.8,0.5-3.7,1.4s-1.3,2.3-1.3,4v7.9H886
		v-15.9h2.8v2.7C889.3,378.3,890,377.6,891,377.1z"/>
	<path class="st5" d="M908.9,378c1.2,1.1,1.8,2.7,1.8,4.8v9.6H908v-2.1c-0.5,0.7-1.2,1.3-2.1,1.7c-0.9,0.4-1.9,0.6-3.2,0.6
		c-1.8,0-3.2-0.4-4.3-1.3s-1.6-2-1.6-3.4s0.5-2.5,1.5-3.4c1-0.8,2.6-1.3,4.9-1.3h4.6v-0.6c0-1.2-0.4-2.2-1.1-2.9s-1.8-1-3.2-1
		c-0.9,0-1.9,0.2-2.8,0.5c-0.9,0.3-1.7,0.7-2.3,1.2l-1.2-2.2c0.8-0.7,1.8-1.2,2.9-1.5c1.1-0.3,2.3-0.5,3.6-0.5
		C906.1,376.4,907.8,376.9,908.9,378z M906.1,389.6c0.8-0.5,1.4-1.2,1.7-2.1v-2.2h-4.4c-2.4,0-3.7,0.8-3.7,2.5
		c0,0.8,0.3,1.4,0.9,1.9c0.6,0.5,1.5,0.7,2.6,0.7C904.3,390.4,905.3,390.1,906.1,389.6z M905.9,370.3h3.7l-5,3.9h-2.7L905.9,370.3z"
		/>
	<path class="st5" d="M921,377.1c1-0.5,2.2-0.7,3.6-0.7v2.8c-0.2,0-0.4,0-0.7,0c-1.6,0-2.8,0.5-3.7,1.4s-1.3,2.3-1.3,4v7.9H916
		v-15.9h2.8v2.7C919.3,378.3,920,377.6,921,377.1z"/>
	<path class="st5" d="M928.2,372.9c-0.4-0.4-0.6-0.8-0.6-1.3s0.2-1,0.6-1.3c0.4-0.4,0.8-0.6,1.4-0.6c0.6,0,1,0.2,1.4,0.5
		s0.6,0.8,0.6,1.3s-0.2,1-0.6,1.4s-0.8,0.6-1.4,0.6C929,373.4,928.5,373.3,928.2,372.9z M928.1,376.5h2.9v15.9h-2.9V376.5z"/>
	<path class="st5" d="M939.1,391.5c-1.3-0.7-2.2-1.7-3-2.9c-0.7-1.2-1.1-2.6-1.1-4.2s0.4-3,1.1-4.2c0.7-1.2,1.7-2.2,3-2.9
		c1.3-0.7,2.7-1,4.3-1s3,0.3,4.2,1s2.2,1.6,2.9,2.9c0.7,1.2,1.1,2.6,1.1,4.2s-0.4,3-1.1,4.2c-0.7,1.2-1.7,2.2-2.9,2.9
		c-1.3,0.7-2.7,1-4.2,1C941.7,392.6,940.3,392.2,939.1,391.5z M946.1,389.4c0.8-0.5,1.4-1.1,1.9-2c0.5-0.8,0.7-1.8,0.7-2.9
		s-0.2-2.1-0.7-2.9s-1.1-1.5-1.9-2c-0.8-0.5-1.7-0.7-2.7-0.7s-1.9,0.2-2.7,0.7s-1.5,1.1-1.9,2c-0.5,0.9-0.7,1.8-0.7,2.9
		s0.2,2.1,0.7,2.9c0.5,0.9,1.1,1.5,1.9,2c0.8,0.5,1.7,0.7,2.7,0.7C944.3,390.1,945.2,389.8,946.1,389.4z"/>
</g>
<g>
	<g>
		<path id="Check_4_" class="st5" d="M697.4,428.4c-0.5-0.5-1.3-0.5-1.9,0L677,446.8l-8.1-8c-0.5-0.5-1.3-0.5-1.9,0s-0.5,1.3,0,1.8
			l9.1,8.9c0.5,0.5,1.3,0.5,1.9,0l19.5-19.3C697.9,429.7,697.9,428.9,697.4,428.4S697.9,428.9,697.4,428.4z"/>
	</g>
</g>
<rect x="640.5" y="431.1" class="st1" width="489.5" height="37.9"/>
<g class="st2">
	<path class="st5" d="M733,448.2h-11.2l-2.3,5.3h-3.1l9.5-21h3l9.5,21h-3.2L733,448.2z M731.9,445.8l-4.5-10.3l-4.5,10.3H731.9z"/>
	<path class="st5" d="M753.7,438.4c1.2,0.7,2.2,1.6,2.9,2.8c0.7,1.2,1,2.6,1,4.2s-0.3,3-1,4.2s-1.6,2.2-2.9,2.9
		c-1.2,0.7-2.6,1-4.1,1c-1.1,0-2.2-0.2-3.1-0.7c-1-0.4-1.8-1.1-2.4-1.9v8.2h-2.9v-21.7h2.8v2.5c0.6-0.9,1.4-1.5,2.4-2
		c1-0.4,2.1-0.7,3.2-0.7C751.1,437.4,752.5,437.7,753.7,438.4z M752,450.4c0.8-0.5,1.5-1.1,1.9-2c0.5-0.8,0.7-1.8,0.7-2.9
		s-0.2-2.1-0.7-2.9s-1.1-1.5-1.9-2c-0.8-0.5-1.7-0.7-2.7-0.7s-1.9,0.2-2.7,0.7s-1.5,1.1-1.9,2c-0.5,0.8-0.7,1.8-0.7,2.9
		s0.2,2.1,0.7,2.9c0.5,0.9,1.1,1.5,1.9,2c0.8,0.5,1.7,0.7,2.7,0.7S751.2,450.8,752,450.4z"/>
	<path class="st5" d="M766.6,438.1c1-0.5,2.2-0.7,3.6-0.7v2.8c-0.2,0-0.4,0-0.7,0c-1.6,0-2.8,0.5-3.7,1.4s-1.3,2.3-1.3,4v7.9h-2.9
		v-15.9h2.8v2.7C764.8,439.3,765.6,438.6,766.6,438.1z"/>
	<path class="st5" d="M787.8,446.4h-12.9c0.2,1.4,0.8,2.5,1.8,3.4s2.4,1.3,3.9,1.3c1.9,0,3.4-0.6,4.6-1.9l1.6,1.9
		c-0.7,0.8-1.6,1.5-2.7,1.9c-1.1,0.4-2.3,0.7-3.6,0.7c-1.7,0-3.2-0.3-4.5-1s-2.3-1.7-3-2.9c-0.7-1.2-1.1-2.6-1.1-4.2
		c0-1.5,0.3-2.9,1-4.2c0.7-1.2,1.6-2.2,2.9-2.9c1.2-0.7,2.6-1,4.1-1s2.9,0.3,4.1,1c1.2,0.7,2.1,1.7,2.8,2.9s1,2.7,1,4.3
		C787.9,445.8,787.9,446.1,787.8,446.4z M776.6,441c-0.9,0.8-1.5,1.9-1.6,3.3h10.2c-0.2-1.3-0.7-2.4-1.6-3.3
		c-0.9-0.9-2.1-1.3-3.5-1.3C778.6,439.8,777.5,440.2,776.6,441z"/>
	<path class="st5" d="M792.7,453.1c-1.2-0.3-2.1-0.8-2.8-1.3l1.2-2.3c0.7,0.5,1.5,0.9,2.5,1.2c1,0.3,2,0.5,3,0.5
		c2.5,0,3.8-0.7,3.8-2.2c0-0.5-0.2-0.9-0.5-1.1c-0.3-0.3-0.8-0.5-1.3-0.6s-1.2-0.3-2.2-0.4c-1.3-0.2-2.3-0.4-3.1-0.7
		c-0.8-0.3-1.5-0.7-2.1-1.3c-0.6-0.6-0.9-1.5-0.9-2.6c0-1.4,0.6-2.6,1.8-3.5s2.8-1.3,4.8-1.3c1.1,0,2.1,0.1,3.2,0.4
		c1.1,0.3,1.9,0.6,2.6,1.1l-1.2,2.3c-1.3-0.8-2.8-1.3-4.6-1.3c-1.2,0-2.2,0.2-2.8,0.6s-1,0.9-1,1.6c0,0.5,0.2,0.9,0.5,1.2
		c0.4,0.3,0.8,0.5,1.3,0.7c0.5,0.1,1.3,0.3,2.2,0.5c1.3,0.2,2.3,0.5,3.1,0.7s1.5,0.7,2,1.3c0.6,0.6,0.8,1.4,0.8,2.5
		c0,1.4-0.6,2.6-1.8,3.4s-2.9,1.3-5,1.3C795.1,453.6,793.9,453.4,792.7,453.1z"/>
	<path class="st5" d="M821.2,446.4h-12.9c0.2,1.4,0.8,2.5,1.8,3.4c1.1,0.9,2.4,1.3,3.9,1.3c1.9,0,3.4-0.6,4.6-1.9l1.6,1.9
		c-0.7,0.8-1.6,1.5-2.7,1.9c-1.1,0.4-2.3,0.7-3.6,0.7c-1.7,0-3.2-0.3-4.5-1s-2.3-1.7-3-2.9s-1.1-2.6-1.1-4.2c0-1.5,0.3-2.9,1-4.2
		c0.7-1.2,1.6-2.2,2.8-2.9c1.2-0.7,2.6-1,4.1-1s2.9,0.3,4.1,1c1.2,0.7,2.1,1.7,2.8,2.9c0.7,1.2,1,2.7,1,4.3
		C821.3,445.8,821.3,446.1,821.2,446.4z M809.9,441c-0.9,0.8-1.5,1.9-1.6,3.3h10.2c-0.2-1.3-0.7-2.4-1.6-3.3
		c-0.9-0.9-2.1-1.3-3.5-1.3C812,439.8,810.9,440.2,809.9,441z"/>
	<path class="st5" d="M838.6,439.1c1.2,1.2,1.8,2.9,1.8,5.1v9.2h-2.9v-8.8c0-1.5-0.4-2.7-1.1-3.5c-0.7-0.8-1.8-1.2-3.2-1.2
		c-1.6,0-2.8,0.5-3.7,1.4s-1.4,2.2-1.4,3.9v8.2h-2.9v-15.9h2.8v2.4c0.6-0.8,1.4-1.4,2.4-1.9c1-0.4,2.1-0.7,3.4-0.7
		C835.8,437.4,837.4,437.9,838.6,439.1z"/>
	<path class="st5" d="M854.6,452.5c-0.4,0.4-0.9,0.6-1.6,0.8c-0.6,0.2-1.3,0.3-1.9,0.3c-1.6,0-2.8-0.4-3.7-1.3s-1.3-2.1-1.3-3.7
		v-8.7h-2.7v-2.4h2.7V434h2.9v3.5h4.6v2.4H849v8.6c0,0.9,0.2,1.5,0.6,2c0.4,0.5,1,0.7,1.8,0.7c0.9,0,1.6-0.3,2.3-0.8L854.6,452.5z"
		/>
	<path class="st5" d="M871.9,446.4H859c0.2,1.4,0.8,2.5,1.8,3.4c1.1,0.9,2.4,1.3,3.9,1.3c1.9,0,3.4-0.6,4.6-1.9l1.6,1.9
		c-0.7,0.8-1.6,1.5-2.7,1.9c-1.1,0.4-2.3,0.7-3.6,0.7c-1.7,0-3.2-0.3-4.5-1s-2.3-1.7-3-2.9s-1.1-2.6-1.1-4.2c0-1.5,0.3-2.9,1-4.2
		c0.7-1.2,1.6-2.2,2.8-2.9c1.2-0.7,2.6-1,4.1-1s2.9,0.3,4.1,1c1.2,0.7,2.1,1.7,2.8,2.9c0.7,1.2,1,2.7,1,4.3
		C871.9,445.8,871.9,446.1,871.9,446.4z M860.6,441c-0.9,0.8-1.5,1.9-1.6,3.3h10.2c-0.2-1.3-0.7-2.4-1.6-3.3
		c-0.9-0.9-2.1-1.3-3.5-1.3C862.7,439.8,861.5,440.2,860.6,441z"/>
	<path class="st5" d="M884.8,453.1c-1.2-0.3-2.1-0.8-2.8-1.3l1.2-2.3c0.7,0.5,1.5,0.9,2.6,1.2c1,0.3,2,0.5,3,0.5
		c2.5,0,3.8-0.7,3.8-2.2c0-0.5-0.2-0.9-0.5-1.1s-0.8-0.5-1.3-0.6s-1.2-0.3-2.2-0.4c-1.3-0.2-2.3-0.4-3.1-0.7
		c-0.8-0.3-1.5-0.7-2.1-1.3c-0.6-0.6-0.9-1.5-0.9-2.6c0-1.4,0.6-2.6,1.8-3.5s2.8-1.3,4.8-1.3c1.1,0,2.1,0.1,3.2,0.4
		c1.1,0.3,1.9,0.6,2.6,1.1l-1.2,2.3c-1.3-0.8-2.8-1.3-4.6-1.3c-1.2,0-2.2,0.2-2.8,0.6s-1,0.9-1,1.6c0,0.5,0.2,0.9,0.5,1.2
		c0.4,0.3,0.8,0.5,1.3,0.7c0.5,0.1,1.3,0.3,2.2,0.5c1.3,0.2,2.3,0.5,3.1,0.7s1.5,0.7,2,1.3c0.6,0.6,0.8,1.4,0.8,2.5
		c0,1.4-0.6,2.6-1.8,3.4s-2.9,1.3-5,1.3C887.3,453.6,886,453.4,884.8,453.1z"/>
	<path class="st5" d="M913.3,446.4h-12.9c0.2,1.4,0.8,2.5,1.8,3.4s2.4,1.3,3.9,1.3c1.9,0,3.4-0.6,4.6-1.9l1.6,1.9
		c-0.7,0.8-1.6,1.5-2.7,1.9c-1.1,0.4-2.3,0.7-3.6,0.7c-1.7,0-3.2-0.3-4.5-1s-2.3-1.7-3-2.9c-0.7-1.2-1.1-2.6-1.1-4.2
		c0-1.5,0.3-2.9,1-4.2c0.7-1.2,1.6-2.2,2.9-2.9c1.2-0.7,2.6-1,4.1-1s2.9,0.3,4.1,1c1.2,0.7,2.1,1.7,2.8,2.9s1,2.7,1,4.3
		C913.4,445.8,913.4,446.1,913.3,446.4z M902.1,441c-0.9,0.8-1.5,1.9-1.6,3.3h10.2c-0.2-1.3-0.7-2.4-1.6-3.3
		c-0.9-0.9-2.1-1.3-3.5-1.3C904.2,439.8,903,440.2,902.1,441z"/>
	<path class="st5" d="M932.2,437.5v15.9h-2.7V451c-0.6,0.8-1.3,1.5-2.3,1.9c-0.9,0.4-2,0.7-3.1,0.7c-2.1,0-3.8-0.6-5-1.8
		s-1.8-2.9-1.8-5.2v-9.2h2.9v8.8c0,1.5,0.4,2.7,1.1,3.5c0.7,0.8,1.8,1.2,3.2,1.2c1.5,0,2.7-0.5,3.6-1.4c0.9-0.9,1.3-2.2,1.3-3.9
		v-8.2h2.8V437.5z"/>
	<path class="st5" d="M958.3,438.4c1.2,0.7,2.2,1.6,2.9,2.8c0.7,1.2,1,2.6,1,4.2s-0.3,3-1,4.2s-1.6,2.2-2.9,2.9
		c-1.2,0.7-2.6,1-4.1,1c-1.1,0-2.2-0.2-3.1-0.7c-1-0.4-1.8-1.1-2.4-1.9v8.2h-2.9v-21.7h2.8v2.5c0.6-0.9,1.4-1.5,2.4-2
		c1-0.4,2.1-0.7,3.2-0.7C955.7,437.4,957.1,437.7,958.3,438.4z M956.7,450.4c0.8-0.5,1.5-1.1,1.9-2c0.5-0.8,0.7-1.8,0.7-2.9
		s-0.2-2.1-0.7-2.9s-1.1-1.5-1.9-2c-0.8-0.5-1.7-0.7-2.7-0.7s-1.9,0.2-2.7,0.7s-1.5,1.1-1.9,2c-0.5,0.8-0.7,1.8-0.7,2.9
		s0.2,2.1,0.7,2.9c0.5,0.9,1.1,1.5,1.9,2c0.8,0.5,1.7,0.7,2.7,0.7S955.9,450.8,956.7,450.4z"/>
	<path class="st5" d="M971.2,438.1c1-0.5,2.2-0.7,3.6-0.7v2.8c-0.2,0-0.4,0-0.7,0c-1.6,0-2.8,0.5-3.7,1.4s-1.3,2.3-1.3,4v7.9h-2.9
		v-15.9h2.8v2.7C969.5,439.3,970.2,438.6,971.2,438.1z"/>
	<path class="st5" d="M980.7,452.5c-1.3-0.7-2.2-1.7-3-2.9c-0.7-1.2-1.1-2.6-1.1-4.2s0.4-3,1.1-4.2c0.7-1.2,1.7-2.2,3-2.9
		c1.3-0.7,2.7-1,4.3-1s3,0.3,4.2,1c1.3,0.7,2.2,1.6,2.9,2.9s1.1,2.6,1.1,4.2s-0.4,3-1.1,4.2c-0.7,1.2-1.7,2.2-2.9,2.9
		c-1.3,0.7-2.7,1-4.2,1C983.4,453.6,982,453.2,980.7,452.5z M987.7,450.4c0.8-0.5,1.4-1.1,1.9-2c0.5-0.8,0.7-1.8,0.7-2.9
		s-0.2-2.1-0.7-2.9s-1.1-1.5-1.9-2c-0.8-0.5-1.7-0.7-2.7-0.7s-1.9,0.2-2.7,0.7s-1.4,1.1-1.9,2s-0.7,1.8-0.7,2.9s0.2,2.1,0.7,2.9
		c0.5,0.9,1.1,1.5,1.9,2c0.8,0.5,1.7,0.7,2.7,0.7S986.9,450.8,987.7,450.4z"/>
	<path class="st5" d="M993.2,459.2c-0.6-0.2-1.1-0.4-1.5-0.7l0.9-2.2c0.6,0.5,1.4,0.8,2.3,0.8c0.8,0,1.3-0.2,1.8-0.7
		c0.4-0.5,0.6-1.2,0.6-2.1v-16.7h2.9v16.6c0,1.6-0.4,2.9-1.3,3.9c-0.9,0.9-2.1,1.4-3.8,1.4C994.5,459.4,993.8,459.3,993.2,459.2z
		 M997.4,433.9c-0.4-0.4-0.6-0.8-0.6-1.3s0.2-1,0.6-1.3c0.4-0.4,0.8-0.6,1.4-0.6s1,0.2,1.4,0.5s0.6,0.8,0.6,1.3s-0.2,1-0.6,1.4
		c-0.4,0.4-0.8,0.6-1.4,0.6S997.8,434.3,997.4,433.9z"/>
	<path class="st5" d="M1020.1,446.4h-12.9c0.2,1.4,0.8,2.5,1.8,3.4c1.1,0.9,2.4,1.3,3.9,1.3c1.9,0,3.4-0.6,4.6-1.9l1.6,1.9
		c-0.7,0.8-1.6,1.5-2.7,1.9c-1.1,0.4-2.3,0.7-3.6,0.7c-1.7,0-3.2-0.3-4.5-1s-2.3-1.7-3-2.9s-1.1-2.6-1.1-4.2c0-1.5,0.3-2.9,1-4.2
		s1.6-2.2,2.8-2.9c1.2-0.7,2.6-1,4.1-1s2.9,0.3,4.1,1c1.2,0.7,2.1,1.7,2.8,2.9c0.7,1.2,1,2.7,1,4.3
		C1020.1,445.8,1020.1,446.1,1020.1,446.4z M1008.8,441c-0.9,0.8-1.5,1.9-1.6,3.3h10.2c-0.2-1.3-0.7-2.4-1.6-3.3
		c-0.9-0.9-2.1-1.3-3.5-1.3C1010.9,439.8,1009.7,440.2,1008.8,441z"/>
	<path class="st5" d="M1033,452.5c-0.4,0.4-0.9,0.6-1.6,0.8c-0.6,0.2-1.3,0.3-1.9,0.3c-1.6,0-2.8-0.4-3.7-1.3
		c-0.9-0.9-1.3-2.1-1.3-3.7v-8.7h-2.7v-2.4h2.7V434h2.9v3.5h4.6v2.4h-4.6v8.6c0,0.9,0.2,1.5,0.6,2s1,0.7,1.8,0.7
		c0.9,0,1.6-0.3,2.3-0.8L1033,452.5z"/>
	<path class="st5" d="M1038.5,452.5c-1.3-0.7-2.2-1.7-3-2.9c-0.7-1.2-1.1-2.6-1.1-4.2s0.4-3,1.1-4.2s1.7-2.2,3-2.9
		c1.3-0.7,2.7-1,4.3-1s3,0.3,4.2,1s2.2,1.6,2.9,2.9c0.7,1.2,1.1,2.6,1.1,4.2s-0.4,3-1.1,4.2s-1.7,2.2-2.9,2.9c-1.3,0.7-2.7,1-4.2,1
		S1039.8,453.2,1038.5,452.5z M1045.5,450.4c0.8-0.5,1.4-1.1,1.9-2c0.5-0.8,0.7-1.8,0.7-2.9s-0.2-2.1-0.7-2.9s-1.1-1.5-1.9-2
		s-1.7-0.7-2.7-0.7s-1.9,0.2-2.7,0.7c-0.8,0.5-1.5,1.1-1.9,2c-0.5,0.9-0.7,1.8-0.7,2.9s0.2,2.1,0.7,2.9c0.5,0.9,1.1,1.5,1.9,2
		s1.7,0.7,2.7,0.7S1044.7,450.8,1045.5,450.4z"/>
</g>
<g>
	<g>
		<path id="Check_7_" class="st5" d="M697.4,499.4c-0.5-0.5-1.3-0.5-1.9,0L677,517.8l-8.1-8c-0.5-0.5-1.3-0.5-1.9,0s-0.5,1.3,0,1.8
			l9.1,8.9c0.5,0.5,1.3,0.5,1.9,0l19.5-19.3C697.9,500.7,697.9,499.9,697.4,499.4S697.9,499.9,697.4,499.4z"/>
	</g>
</g>
<rect x="640.5" y="502.1" class="st1" width="489.5" height="37.9"/>
<g class="st2">
	<path class="st5" d="M752.6,521.8v2.6h-15.2v-21h14.8v2.6h-11.8v6.4h10.5v2.6h-10.5v6.8L752.6,521.8L752.6,521.8z"/>
	<path class="st5" d="M757.6,524.1c-1.2-0.3-2.1-0.8-2.8-1.3l1.2-2.3c0.7,0.5,1.5,0.9,2.6,1.2c1,0.3,2,0.5,3,0.5
		c2.5,0,3.8-0.7,3.8-2.2c0-0.5-0.2-0.9-0.5-1.1s-0.8-0.5-1.3-0.6s-1.2-0.3-2.2-0.4c-1.3-0.2-2.3-0.4-3.1-0.7s-1.5-0.7-2.1-1.3
		s-0.9-1.5-0.9-2.6c0-1.4,0.6-2.6,1.8-3.5s2.8-1.3,4.8-1.3c1.1,0,2.1,0.1,3.2,0.4c1.1,0.3,1.9,0.6,2.6,1.1l-1.2,2.3
		c-1.3-0.8-2.8-1.3-4.6-1.3c-1.2,0-2.2,0.2-2.8,0.6s-1,0.9-1,1.6c0,0.5,0.2,0.9,0.5,1.2c0.4,0.3,0.8,0.5,1.3,0.7
		c0.5,0.1,1.3,0.3,2.2,0.5c1.3,0.2,2.3,0.5,3.1,0.7s1.5,0.7,2,1.3c0.6,0.6,0.8,1.4,0.8,2.5c0,1.4-0.6,2.6-1.8,3.4
		c-1.2,0.8-2.9,1.3-5,1.3C760.1,524.6,758.8,524.4,757.6,524.1z"/>
	<path class="st5" d="M774.4,523.5c-1.3-0.7-2.3-1.7-3-2.9s-1.1-2.6-1.1-4.2s0.4-3,1.1-4.2c0.7-1.2,1.7-2.2,3-2.9
		c1.3-0.7,2.7-1,4.3-1c1.4,0,2.7,0.3,3.9,0.9c1.1,0.6,2,1.4,2.6,2.5l-2.2,1.4c-0.5-0.8-1.1-1.3-1.9-1.7c-0.7-0.4-1.6-0.6-2.5-0.6
		c-1,0-2,0.2-2.8,0.7s-1.5,1.1-2,2s-0.7,1.8-0.7,2.9c0,1.1,0.2,2.1,0.7,3c0.5,0.8,1.1,1.5,2,2c0.8,0.5,1.8,0.7,2.8,0.7
		c0.9,0,1.7-0.2,2.5-0.6c0.7-0.4,1.4-0.9,1.9-1.7l2.2,1.4c-0.6,1.1-1.5,1.9-2.6,2.5s-2.4,0.9-3.9,0.9
		C777.1,524.6,775.7,524.2,774.4,523.5z"/>
	<path class="st5" d="M791.3,523.5c-1.3-0.7-2.2-1.7-3-2.9c-0.7-1.2-1.1-2.6-1.1-4.2s0.4-3,1.1-4.2s1.7-2.2,3-2.9
		c1.3-0.7,2.7-1,4.3-1s3,0.3,4.2,1c1.3,0.7,2.2,1.6,2.9,2.9s1.1,2.6,1.1,4.2s-0.4,3-1.1,4.2c-0.7,1.2-1.7,2.2-2.9,2.9
		c-1.3,0.7-2.7,1-4.2,1C794,524.6,792.5,524.2,791.3,523.5z M798.3,521.4c0.8-0.5,1.4-1.1,1.9-2c0.5-0.8,0.7-1.8,0.7-2.9
		s-0.2-2.1-0.7-2.9c-0.5-0.8-1.1-1.5-1.9-2c-0.8-0.5-1.7-0.7-2.7-0.7s-1.9,0.2-2.7,0.7s-1.5,1.1-1.9,2c-0.5,0.9-0.7,1.8-0.7,2.9
		s0.2,2.1,0.7,2.9c0.5,0.9,1.1,1.5,1.9,2c0.8,0.5,1.7,0.7,2.7,0.7S797.5,521.8,798.3,521.4z"/>
	<path class="st5" d="M807.8,502.1h2.9v22.3h-2.9V502.1z"/>
	<path class="st5" d="M829.4,510.1c1.2,1.2,1.8,2.9,1.8,5.1v9.2h-2.9v-8.8c0-1.5-0.4-2.7-1.1-3.5c-0.7-0.8-1.8-1.2-3.2-1.2
		c-1.6,0-2.8,0.5-3.7,1.4s-1.3,2.2-1.3,3.9v8.2h-2.9v-22.3h2.9v8.6c0.6-0.8,1.4-1.3,2.4-1.8c1-0.4,2.1-0.6,3.3-0.6
		C826.7,508.4,828.3,508.9,829.4,510.1z"/>
	<path class="st5" d="M847.4,510c1.2,1.1,1.8,2.7,1.8,4.8v9.6h-2.7v-2.1c-0.5,0.7-1.2,1.3-2.1,1.7c-0.9,0.4-1.9,0.6-3.2,0.6
		c-1.8,0-3.2-0.4-4.3-1.3c-1.1-0.9-1.6-2-1.6-3.4s0.5-2.5,1.5-3.4c1-0.8,2.6-1.3,4.9-1.3h4.6v-0.6c0-1.2-0.4-2.2-1.1-2.9
		s-1.8-1-3.2-1c-0.9,0-1.9,0.2-2.8,0.5c-0.9,0.3-1.7,0.7-2.3,1.2l-1.2-2.2c0.8-0.7,1.8-1.2,2.9-1.5c1.1-0.3,2.3-0.5,3.6-0.5
		C844.6,508.4,846.2,508.9,847.4,510z M844.6,521.6c0.8-0.5,1.4-1.2,1.7-2.1v-2.2h-4.4c-2.4,0-3.7,0.8-3.7,2.5
		c0,0.8,0.3,1.4,0.9,1.9c0.6,0.5,1.5,0.7,2.6,0.7S843.8,522.1,844.6,521.6z"/>
	<path class="st5" d="M863.4,524.1c-1.2-0.3-2.1-0.8-2.8-1.3l1.2-2.3c0.7,0.5,1.5,0.9,2.6,1.2c1,0.3,2,0.5,3,0.5
		c2.5,0,3.8-0.7,3.8-2.2c0-0.5-0.2-0.9-0.5-1.1s-0.8-0.5-1.3-0.6s-1.2-0.3-2.2-0.4c-1.3-0.2-2.3-0.4-3.1-0.7s-1.5-0.7-2.1-1.3
		s-0.9-1.5-0.9-2.6c0-1.4,0.6-2.6,1.8-3.5s2.8-1.3,4.8-1.3c1.1,0,2.1,0.1,3.2,0.4c1.1,0.3,1.9,0.6,2.6,1.1l-1.2,2.3
		c-1.3-0.8-2.8-1.3-4.6-1.3c-1.2,0-2.2,0.2-2.8,0.6s-1,0.9-1,1.6c0,0.5,0.2,0.9,0.5,1.2c0.4,0.3,0.8,0.5,1.3,0.7
		c0.5,0.1,1.3,0.3,2.2,0.5c1.3,0.2,2.3,0.5,3.1,0.7s1.5,0.7,2,1.3c0.6,0.6,0.8,1.4,0.8,2.5c0,1.4-0.6,2.6-1.8,3.4
		c-1.2,0.8-2.9,1.3-5,1.3C865.8,524.6,864.6,524.4,863.4,524.1z"/>
	<path class="st5" d="M891.9,517.4H879c0.2,1.4,0.8,2.5,1.8,3.4s2.4,1.3,3.9,1.3c1.9,0,3.4-0.6,4.6-1.9l1.6,1.9
		c-0.7,0.8-1.6,1.5-2.7,1.9c-1.1,0.4-2.3,0.7-3.6,0.7c-1.7,0-3.2-0.3-4.5-1s-2.3-1.7-3-2.9s-1.1-2.6-1.1-4.2c0-1.5,0.3-2.9,1-4.2
		c0.7-1.2,1.6-2.2,2.9-2.9c1.2-0.7,2.6-1,4.1-1s2.9,0.3,4.1,1c1.2,0.7,2.1,1.7,2.8,2.9c0.7,1.2,1,2.7,1,4.3
		C892,516.8,892,517.1,891.9,517.4z M880.7,512c-0.9,0.8-1.5,1.9-1.6,3.3h10.2c-0.2-1.3-0.7-2.4-1.6-3.3c-0.9-0.9-2.1-1.3-3.5-1.3
		C882.7,510.8,881.6,511.2,880.7,512z"/>
	<path class="st5" d="M910.8,508.5v15.9h-2.7V522c-0.6,0.8-1.3,1.5-2.3,1.9c-0.9,0.4-2,0.7-3.1,0.7c-2.1,0-3.8-0.6-5-1.8
		s-1.8-2.9-1.8-5.2v-9.2h2.9v8.8c0,1.5,0.4,2.7,1.1,3.5c0.7,0.8,1.8,1.2,3.2,1.2c1.5,0,2.7-0.5,3.6-1.4c0.9-0.9,1.3-2.2,1.3-3.9
		v-8.2h2.8V508.5z"/>
	<path class="st5" d="M949,510.1c1.2,1.2,1.8,2.9,1.8,5.2v9.2h-2.9v-8.8c0-1.5-0.4-2.7-1.1-3.5c-0.7-0.8-1.7-1.2-3-1.2
		c-1.5,0-2.6,0.5-3.5,1.4s-1.3,2.2-1.3,3.9v8.2h-2.9v-8.8c0-1.5-0.4-2.7-1.1-3.5c-0.7-0.8-1.7-1.2-3-1.2c-1.5,0-2.6,0.5-3.5,1.4
		s-1.3,2.2-1.3,3.9v8.2h-2.9v-15.9h2.8v2.4c0.6-0.8,1.3-1.4,2.3-1.9c0.9-0.4,2-0.6,3.2-0.6s2.3,0.3,3.3,0.8s1.7,1.2,2.2,2.2
		c0.6-0.9,1.4-1.6,2.5-2.2c1.1-0.5,2.3-0.8,3.6-0.8C946.2,508.4,947.8,508.9,949,510.1z"/>
	<path class="st5" d="M970.5,517.4h-12.9c0.2,1.4,0.8,2.5,1.8,3.4s2.4,1.3,3.9,1.3c1.9,0,3.4-0.6,4.6-1.9l1.6,1.9
		c-0.7,0.8-1.6,1.5-2.7,1.9c-1.1,0.4-2.3,0.7-3.6,0.7c-1.7,0-3.2-0.3-4.5-1s-2.3-1.7-3-2.9s-1.1-2.6-1.1-4.2c0-1.5,0.3-2.9,1-4.2
		c0.7-1.2,1.6-2.2,2.9-2.9c1.2-0.7,2.6-1,4.1-1s2.9,0.3,4.1,1c1.2,0.7,2.1,1.7,2.8,2.9c0.7,1.2,1,2.7,1,4.3
		C970.5,516.8,970.5,517.1,970.5,517.4z M959.2,512c-0.9,0.8-1.5,1.9-1.6,3.3h10.2c-0.2-1.3-0.7-2.4-1.6-3.3
		c-0.9-0.9-2.1-1.3-3.5-1.3C961.3,510.8,960.1,511.2,959.2,512z"/>
	<path class="st5" d="M987.8,510.1c1.2,1.2,1.8,2.9,1.8,5.1v9.2h-2.9v-8.8c0-1.5-0.4-2.7-1.1-3.5c-0.7-0.8-1.8-1.2-3.2-1.2
		c-1.6,0-2.8,0.5-3.7,1.4s-1.3,2.2-1.3,3.9v8.2h-2.9v-15.9h2.8v2.4c0.6-0.8,1.4-1.4,2.4-1.9c1-0.4,2.1-0.7,3.4-0.7
		C985,508.4,986.6,508.9,987.8,510.1z"/>
	<path class="st5" d="M1003.9,523.5c-0.4,0.4-0.9,0.6-1.6,0.8c-0.6,0.2-1.3,0.3-1.9,0.3c-1.6,0-2.8-0.4-3.7-1.3s-1.3-2.1-1.3-3.7
		v-8.7h-2.7v-2.4h2.7V505h2.9v3.5h4.6v2.4h-4.6v8.6c0,0.9,0.2,1.5,0.6,2c0.4,0.5,1,0.7,1.8,0.7c0.9,0,1.6-0.3,2.3-0.8L1003.9,523.5z
		"/>
	<path class="st5" d="M1009.4,523.5c-1.3-0.7-2.2-1.7-3-2.9c-0.7-1.2-1.1-2.6-1.1-4.2s0.4-3,1.1-4.2c0.7-1.2,1.7-2.2,3-2.9
		c1.3-0.7,2.7-1,4.3-1s3,0.3,4.2,1c1.3,0.7,2.2,1.6,2.9,2.9s1.1,2.6,1.1,4.2s-0.4,3-1.1,4.2c-0.7,1.2-1.7,2.2-2.9,2.9
		c-1.3,0.7-2.7,1-4.2,1C1012.1,524.6,1010.6,524.2,1009.4,523.5z M1016.4,521.4c0.8-0.5,1.4-1.1,1.9-2c0.5-0.8,0.7-1.8,0.7-2.9
		s-0.2-2.1-0.7-2.9c-0.5-0.8-1.1-1.5-1.9-2c-0.8-0.5-1.7-0.7-2.7-0.7s-1.9,0.2-2.7,0.7s-1.4,1.1-1.9,2s-0.7,1.8-0.7,2.9
		s0.2,2.1,0.7,2.9c0.5,0.9,1.1,1.5,1.9,2c0.8,0.5,1.7,0.7,2.7,0.7C1014.7,522.1,1015.6,521.8,1016.4,521.4z"/>
	<path class="st5" d="M1030.9,509.1c1-0.5,2.2-0.7,3.6-0.7v2.8c-0.2,0-0.4,0-0.7,0c-1.6,0-2.8,0.5-3.7,1.4c-0.9,0.9-1.3,2.3-1.3,4
		v7.9h-2.9v-15.9h2.8v2.7C1029.1,510.3,1029.9,509.6,1030.9,509.1z"/>
</g>
<g>
	<g>
		<path id="Check_8_" class="st5" d="M697.4,573.4c-0.5-0.5-1.3-0.5-1.9,0L677,591.8l-8.1-8c-0.5-0.5-1.3-0.5-1.9,0
			c-0.5,0.5-0.5,1.3,0,1.8l9.1,8.9c0.5,0.5,1.3,0.5,1.9,0l19.5-19.3C697.9,574.7,697.9,573.9,697.4,573.4S697.9,573.9,697.4,573.4z"
			/>
	</g>
</g>
<rect x="640.5" y="576.1" class="st1" width="489.5" height="80.9"/>
<g class="st2">
	<path class="st5" d="M777.7,598.4l-4.5-6.5c-0.6,0-1,0.1-1.3,0.1h-5.2v6.4h-3v-21h8.2c2.7,0,4.9,0.7,6.4,2c1.6,1.3,2.3,3.1,2.3,5.4
		c0,1.6-0.4,3-1.2,4.1s-1.9,2-3.4,2.5l5,7H777.7z M776.1,588.2c1-0.8,1.5-2,1.5-3.5s-0.5-2.7-1.5-3.5s-2.4-1.2-4.3-1.2h-5.1v9.4h5.1
		C773.6,589.5,775.1,589.1,776.1,588.2z"/>
	<path class="st5" d="M799.3,591.4h-12.9c0.2,1.4,0.8,2.5,1.8,3.4s2.4,1.3,3.9,1.3c1.9,0,3.4-0.6,4.6-1.9l1.6,1.9
		c-0.7,0.8-1.6,1.5-2.7,1.9c-1.1,0.4-2.3,0.7-3.6,0.7c-1.7,0-3.2-0.3-4.5-1s-2.3-1.7-3-2.9s-1.1-2.6-1.1-4.2c0-1.5,0.3-2.9,1-4.2
		c0.7-1.2,1.6-2.2,2.9-2.9c1.2-0.7,2.6-1,4.1-1s2.9,0.3,4.1,1c1.2,0.7,2.1,1.7,2.8,2.9s1,2.7,1,4.3
		C799.4,590.8,799.4,591.1,799.3,591.4z M788.1,586c-0.9,0.8-1.5,1.9-1.6,3.3h10.2c-0.2-1.3-0.7-2.4-1.6-3.3
		c-0.9-0.9-2.1-1.3-3.5-1.3S789,585.2,788.1,586z"/>
	<path class="st5" d="M806,597.5c-1.3-0.7-2.3-1.7-3-2.9s-1.1-2.6-1.1-4.2c0-1.6,0.4-3,1.1-4.2c0.7-1.2,1.7-2.2,3-2.9s2.7-1,4.3-1
		c1.4,0,2.7,0.3,3.9,0.9c1.1,0.6,2,1.4,2.6,2.5l-2.2,1.4c-0.5-0.8-1.1-1.3-1.9-1.7s-1.6-0.6-2.5-0.6c-1,0-2,0.2-2.8,0.7
		s-1.5,1.1-2,2s-0.7,1.8-0.7,2.9c0,1.1,0.2,2.1,0.7,3s1.1,1.5,2,2c0.8,0.5,1.8,0.7,2.8,0.7c0.9,0,1.7-0.2,2.5-0.6s1.4-0.9,1.9-1.7
		l2.2,1.4c-0.6,1.1-1.5,1.9-2.6,2.5s-2.4,0.9-3.9,0.9C808.7,598.6,807.3,598.2,806,597.5z"/>
	<path class="st5" d="M834.6,591.4h-12.9c0.2,1.4,0.8,2.5,1.8,3.4s2.4,1.3,3.9,1.3c1.9,0,3.4-0.6,4.6-1.9l1.6,1.9
		c-0.7,0.8-1.6,1.5-2.7,1.9c-1.1,0.4-2.3,0.7-3.6,0.7c-1.7,0-3.2-0.3-4.5-1s-2.3-1.7-3-2.9s-1.1-2.6-1.1-4.2c0-1.5,0.3-2.9,1-4.2
		c0.7-1.2,1.6-2.2,2.9-2.9c1.2-0.7,2.6-1,4.1-1s2.9,0.3,4.1,1c1.2,0.7,2.1,1.7,2.8,2.9s1,2.7,1,4.3
		C834.7,590.8,834.6,591.1,834.6,591.4z M823.3,586c-0.9,0.8-1.5,1.9-1.6,3.3h10.2c-0.2-1.3-0.7-2.4-1.6-3.3
		c-0.9-0.9-2.1-1.3-3.5-1.3S824.3,585.2,823.3,586z"/>
	<path class="st5" d="M851.2,583.4c1.2,0.7,2.2,1.6,2.9,2.9s1,2.6,1,4.2c0,1.6-0.3,3-1,4.2s-1.6,2.2-2.9,2.9s-2.6,1-4.1,1
		c-1.2,0-2.3-0.2-3.2-0.7s-1.8-1.1-2.4-2v2.5h-2.8v-22.3h2.9v8.8c0.6-0.8,1.4-1.5,2.4-1.9s2-0.6,3.2-0.6
		C848.6,582.4,850,582.7,851.2,583.4z M849.6,595.4c0.8-0.5,1.5-1.1,1.9-2c0.5-0.8,0.7-1.8,0.7-2.9c0-1.1-0.2-2.1-0.7-2.9
		c-0.5-0.8-1.1-1.5-1.9-2s-1.7-0.7-2.7-0.7s-1.9,0.2-2.7,0.7s-1.5,1.1-1.9,2c-0.5,0.9-0.7,1.8-0.7,2.9c0,1.1,0.2,2.1,0.7,2.9
		c0.5,0.9,1.1,1.5,1.9,2s1.7,0.7,2.7,0.7C847.9,596.1,848.8,595.8,849.6,595.4z"/>
	<path class="st5" d="M869.8,584c1.2,1.1,1.8,2.7,1.8,4.8v9.6h-2.7v-2.1c-0.5,0.7-1.2,1.3-2.1,1.7c-0.9,0.4-1.9,0.6-3.2,0.6
		c-1.8,0-3.2-0.4-4.3-1.3c-1.1-0.9-1.6-2-1.6-3.4s0.5-2.5,1.5-3.4c1-0.8,2.6-1.3,4.9-1.3h4.6v-0.6c0-1.2-0.4-2.2-1.1-2.9
		c-0.7-0.7-1.8-1-3.2-1c-0.9,0-1.9,0.2-2.8,0.5c-0.9,0.3-1.7,0.7-2.3,1.2l-1.2-2.2c0.8-0.7,1.8-1.2,2.9-1.5c1.1-0.3,2.3-0.5,3.6-0.5
		C866.9,582.4,868.6,582.9,869.8,584z M866.9,595.6c0.8-0.5,1.4-1.2,1.7-2.1v-2.2h-4.4c-2.4,0-3.7,0.8-3.7,2.5
		c0,0.8,0.3,1.4,0.9,1.9c0.6,0.5,1.5,0.7,2.6,0.7S866.1,596.1,866.9,595.6z"/>
	<path class="st5" d="M909.6,584.1c1.2,1.2,1.8,2.9,1.8,5.2v9.2h-2.9v-8.8c0-1.5-0.4-2.7-1.1-3.5s-1.7-1.2-3-1.2
		c-1.5,0-2.6,0.5-3.5,1.4s-1.3,2.2-1.3,3.9v8.2h-2.9v-8.8c0-1.5-0.4-2.7-1.1-3.5s-1.7-1.2-3-1.2c-1.5,0-2.6,0.5-3.5,1.4
		s-1.3,2.2-1.3,3.9v8.2H885v-15.9h2.8v2.4c0.6-0.8,1.3-1.4,2.3-1.9c0.9-0.4,2-0.6,3.2-0.6s2.3,0.3,3.3,0.8s1.7,1.2,2.2,2.2
		c0.6-0.9,1.4-1.6,2.5-2.2c1.1-0.5,2.3-0.8,3.6-0.8C906.9,582.4,908.4,582.9,909.6,584.1z"/>
	<path class="st5" d="M927.5,584c1.2,1.1,1.8,2.7,1.8,4.8v9.6h-2.7v-2.1c-0.5,0.7-1.2,1.3-2.1,1.7c-0.9,0.4-1.9,0.6-3.2,0.6
		c-1.8,0-3.2-0.4-4.3-1.3c-1.1-0.9-1.6-2-1.6-3.4s0.5-2.5,1.5-3.4c1-0.8,2.6-1.3,4.9-1.3h4.6v-0.6c0-1.2-0.4-2.2-1.1-2.9
		s-1.8-1-3.2-1c-0.9,0-1.9,0.2-2.8,0.5c-0.9,0.3-1.7,0.7-2.3,1.2l-1.2-2.2c0.8-0.7,1.8-1.2,2.9-1.5c1.1-0.3,2.3-0.5,3.6-0.5
		C924.7,582.4,926.3,582.9,927.5,584z M924.7,595.6c0.8-0.5,1.4-1.2,1.7-2.1v-2.2H922c-2.4,0-3.7,0.8-3.7,2.5c0,0.8,0.3,1.4,0.9,1.9
		c0.6,0.5,1.5,0.7,2.6,0.7S923.9,596.1,924.7,595.6z"/>
	<path class="st5" d="M943.6,597.5c-0.4,0.4-0.9,0.6-1.6,0.8c-0.6,0.2-1.3,0.3-1.9,0.3c-1.6,0-2.8-0.4-3.7-1.3
		c-0.9-0.9-1.3-2.1-1.3-3.7v-8.7h-2.7v-2.4h2.7V579h2.9v3.5h4.6v2.4H938v8.6c0,0.9,0.2,1.5,0.6,2c0.4,0.5,1,0.7,1.8,0.7
		c0.9,0,1.6-0.3,2.3-0.8L943.6,597.5z"/>
	<path class="st5" d="M960.8,591.4h-12.9c0.2,1.4,0.8,2.5,1.8,3.4c1.1,0.9,2.4,1.3,3.9,1.3c1.9,0,3.4-0.6,4.6-1.9l1.6,1.9
		c-0.7,0.8-1.6,1.5-2.7,1.9c-1.1,0.4-2.3,0.7-3.6,0.7c-1.7,0-3.2-0.3-4.5-1s-2.3-1.7-3-2.9s-1.1-2.6-1.1-4.2c0-1.5,0.3-2.9,1-4.2
		c0.7-1.2,1.6-2.2,2.8-2.9s2.6-1,4.1-1s2.9,0.3,4.1,1c1.2,0.7,2.1,1.7,2.8,2.9s1,2.7,1,4.3C960.9,590.8,960.8,591.1,960.8,591.4z
		 M949.5,586c-0.9,0.8-1.5,1.9-1.6,3.3h10.2c-0.2-1.3-0.7-2.4-1.6-3.3c-0.9-0.9-2.1-1.3-3.5-1.3C951.6,584.8,950.5,585.2,949.5,586z
		"/>
	<path class="st5" d="M969.8,583.1c1-0.5,2.2-0.7,3.6-0.7v2.8c-0.2,0-0.4,0-0.7,0c-1.6,0-2.8,0.5-3.7,1.4s-1.3,2.3-1.3,4v7.9h-2.9
		v-15.9h2.8v2.7C968.1,584.3,968.9,583.6,969.8,583.1z"/>
	<path class="st5" d="M977,578.9c-0.4-0.4-0.6-0.8-0.6-1.3s0.2-1,0.6-1.3c0.4-0.4,0.8-0.6,1.4-0.6c0.6,0,1,0.2,1.4,0.5
		s0.6,0.8,0.6,1.3s-0.2,1-0.6,1.4c-0.4,0.4-0.8,0.6-1.4,0.6C977.8,579.4,977.4,579.3,977,578.9z M976.9,582.5h2.9v15.9h-2.9V582.5z"
		/>
	<path class="st5" d="M996.2,584c1.2,1.1,1.8,2.7,1.8,4.8v9.6h-2.7v-2.1c-0.5,0.7-1.2,1.3-2.1,1.7c-0.9,0.4-1.9,0.6-3.2,0.6
		c-1.8,0-3.2-0.4-4.3-1.3c-1.1-0.9-1.6-2-1.6-3.4s0.5-2.5,1.5-3.4c1-0.8,2.6-1.3,4.9-1.3h4.6v-0.6c0-1.2-0.4-2.2-1.1-2.9
		c-0.7-0.7-1.8-1-3.2-1c-0.9,0-1.9,0.2-2.8,0.5c-0.9,0.3-1.7,0.7-2.3,1.2l-1.2-2.2c0.8-0.7,1.8-1.2,2.9-1.5c1.1-0.3,2.3-0.5,3.6-0.5
		C993.3,582.4,995,582.9,996.2,584z M993.3,595.6c0.8-0.5,1.4-1.2,1.7-2.1v-2.2h-4.4c-2.4,0-3.7,0.8-3.7,2.5c0,0.8,0.3,1.4,0.9,1.9
		c0.6,0.5,1.5,0.7,2.6,0.7C991.5,596.4,992.5,596.1,993.3,595.6z"/>
	<path class="st5" d="M1003.3,576.1h2.9v22.3h-2.9V576.1z"/>
</g>
<g class="st2">
	<path class="st5" d="M832.3,627.4h-12.9c0.2,1.4,0.8,2.5,1.8,3.4s2.4,1.3,3.9,1.3c1.9,0,3.4-0.6,4.6-1.9l1.6,1.9
		c-0.7,0.8-1.6,1.5-2.7,1.9c-1.1,0.4-2.3,0.7-3.6,0.7c-1.7,0-3.2-0.3-4.5-1s-2.3-1.7-3-2.9s-1.1-2.6-1.1-4.2c0-1.5,0.3-2.9,1-4.2
		c0.7-1.2,1.6-2.2,2.9-2.9c1.2-0.7,2.6-1,4.1-1s2.9,0.3,4.1,1c1.2,0.7,2.1,1.7,2.8,2.9s1,2.7,1,4.3
		C832.4,626.8,832.4,627.1,832.3,627.4z M821.1,622c-0.9,0.8-1.5,1.9-1.6,3.3h10.2c-0.2-1.3-0.7-2.4-1.6-3.3
		c-0.9-0.9-2.1-1.3-3.5-1.3S822,621.2,821.1,622z"/>
	<path class="st5" d="M846.1,634.4l-4.6-6.1l-4.7,6.1h-3.2l6.3-8.1l-6-7.8h3.2l4.4,5.7l4.3-5.7h3.2l-6,7.8l6.3,8.1H846.1z"/>
	<path class="st5" d="M854.5,633.5c-1.3-0.7-2.3-1.7-3-2.9s-1.1-2.6-1.1-4.2c0-1.6,0.4-3,1.1-4.2c0.7-1.2,1.7-2.2,3-2.9s2.7-1,4.3-1
		c1.4,0,2.7,0.3,3.9,0.9c1.1,0.6,2,1.4,2.6,2.5l-2.2,1.4c-0.5-0.8-1.1-1.3-1.9-1.7s-1.6-0.6-2.5-0.6c-1,0-2,0.2-2.8,0.7
		s-1.5,1.1-2,2s-0.7,1.8-0.7,2.9c0,1.1,0.2,2.1,0.7,3s1.1,1.5,2,2c0.8,0.5,1.8,0.7,2.8,0.7c0.9,0,1.7-0.2,2.5-0.6s1.4-0.9,1.9-1.7
		l2.2,1.4c-0.6,1.1-1.5,1.9-2.6,2.5s-2.4,0.9-3.9,0.9C857.3,634.6,855.8,634.2,854.5,633.5z"/>
	<path class="st5" d="M868.9,612.1h2.9v22.3h-2.9V612.1z"/>
	<path class="st5" d="M892.1,618.5v15.9h-2.7V632c-0.6,0.8-1.3,1.5-2.3,1.9c-1,0.5-2,0.7-3.1,0.7c-2.1,0-3.8-0.6-5-1.8
		s-1.8-2.9-1.8-5.2v-9.2h2.9v8.8c0,1.5,0.4,2.7,1.1,3.5c0.7,0.8,1.8,1.2,3.2,1.2c1.5,0,2.7-0.5,3.6-1.4c0.9-0.9,1.3-2.2,1.3-3.9
		v-8.2h2.8V618.5z"/>
	<path class="st5" d="M898.4,634.1c-1.2-0.3-2.1-0.8-2.8-1.3l1.2-2.3c0.7,0.5,1.5,0.9,2.5,1.2s2,0.5,3,0.5c2.5,0,3.8-0.7,3.8-2.2
		c0-0.5-0.2-0.9-0.5-1.1c-0.3-0.3-0.8-0.5-1.3-0.6s-1.2-0.3-2.2-0.4c-1.3-0.2-2.3-0.4-3.1-0.7s-1.5-0.7-2.1-1.3s-0.9-1.5-0.9-2.6
		c0-1.4,0.6-2.6,1.8-3.5s2.8-1.3,4.8-1.3c1.1,0,2.1,0.1,3.2,0.4c1.1,0.3,1.9,0.6,2.6,1l-1.2,2.3c-1.3-0.8-2.8-1.3-4.6-1.3
		c-1.2,0-2.2,0.2-2.8,0.6c-0.6,0.4-1,0.9-1,1.6c0,0.5,0.2,0.9,0.5,1.2c0.4,0.3,0.8,0.5,1.3,0.7c0.5,0.1,1.3,0.3,2.2,0.5
		c1.3,0.2,2.3,0.5,3.1,0.7c0.8,0.3,1.5,0.7,2,1.3c0.6,0.6,0.8,1.4,0.8,2.5c0,1.4-0.6,2.6-1.8,3.4c-1.2,0.8-2.9,1.3-5,1.3
		C900.8,634.6,899.6,634.4,898.4,634.1z"/>
	<path class="st5" d="M912.6,614.9c-0.4-0.4-0.6-0.8-0.6-1.3s0.2-1,0.6-1.3c0.4-0.4,0.8-0.6,1.4-0.6s1,0.2,1.4,0.5s0.6,0.8,0.6,1.3
		s-0.2,1-0.6,1.4s-0.8,0.6-1.4,0.6S913,615.3,912.6,614.9z M912.6,618.5h2.9v15.9h-2.9V618.5z"/>
	<path class="st5" d="M935,618.5l-7,15.9h-2.9l-7-15.9h3l5.5,12.8l5.6-12.8H935z"/>
	<path class="st5" d="M939.8,633.5c-1.3-0.7-2.2-1.7-3-2.9c-0.7-1.2-1.1-2.6-1.1-4.2c0-1.6,0.4-3,1.1-4.2c0.7-1.2,1.7-2.2,3-2.9
		s2.7-1,4.3-1s3,0.3,4.2,1c1.3,0.7,2.2,1.6,2.9,2.9c0.7,1.2,1.1,2.6,1.1,4.2c0,1.6-0.4,3-1.1,4.2c-0.7,1.2-1.7,2.2-2.9,2.9
		s-2.7,1-4.2,1S941.1,634.2,939.8,633.5z M946.8,631.4c0.8-0.5,1.4-1.1,1.9-2c0.5-0.8,0.7-1.8,0.7-2.9c0-1.1-0.2-2.1-0.7-2.9
		c-0.5-0.8-1.1-1.5-1.9-2c-0.8-0.5-1.7-0.7-2.7-0.7s-1.9,0.2-2.7,0.7s-1.5,1.1-1.9,2c-0.5,0.9-0.7,1.8-0.7,2.9
		c0,1.1,0.2,2.1,0.7,2.9c0.5,0.9,1.1,1.5,1.9,2c0.8,0.5,1.7,0.7,2.7,0.7C945.1,632.1,946,631.8,946.8,631.4z"/>
</g>
<g>
	<path class="st3" d="M194.5,791.6l-7.6-10.9h-0.4h-7.9v10.9h-9.1v-39.2h17c3.5,0,6.5,0.6,9,1.7c2.6,1.2,4.5,2.8,5.9,4.9
		c1.4,2.1,2.1,4.6,2.1,7.6c0,2.9-0.7,5.4-2.1,7.5c-1.4,2.1-3.4,3.7-6,4.8l8.8,12.6H194.5z M192.2,761.6c-1.4-1.2-3.5-1.8-6.2-1.8
		h-7.4v13.7h7.4c2.7,0,4.8-0.6,6.2-1.8c1.4-1.2,2.1-2.9,2.1-5C194.4,764.4,193.7,762.8,192.2,761.6z"/>
	<path class="st3" d="M236.9,788c-2.2,2.2-5.5,3.5-9.7,4.1v6.3h-5.6v-6.1c-2.8-0.1-5.4-0.6-7.9-1.5c-2.5-0.8-4.5-1.8-6-3l3.1-6.8
		c1.4,1,3.1,1.9,5,2.6c1.9,0.7,3.9,1.2,5.9,1.3v-9.4c-2.7-0.6-4.9-1.3-6.7-2.1c-1.8-0.8-3.4-1.9-4.6-3.4c-1.2-1.5-1.8-3.5-1.8-6
		c0-3.1,1.1-5.8,3.4-8c2.3-2.2,5.5-3.6,9.8-4.1v-6.2h5.6v6.1c4.6,0.4,8.4,1.5,11.4,3.4l-2.8,6.9c-2.8-1.6-5.7-2.6-8.6-2.9v9.5
		c2.6,0.6,4.8,1.3,6.6,2c1.8,0.8,3.3,1.9,4.6,3.4c1.2,1.5,1.8,3.5,1.8,6C240.2,783.2,239.1,785.8,236.9,788z M218.5,765.8
		c0.7,0.6,1.7,1.1,3.1,1.5v-8c-1.4,0.3-2.5,0.9-3.1,1.6c-0.7,0.7-1,1.6-1,2.5C217.4,764.4,217.8,765.2,218.5,765.8z M230.2,783.2
		c0.7-0.7,1-1.5,1-2.4s-0.3-1.7-1-2.3c-0.7-0.6-1.7-1.1-3-1.6v7.7C228.5,784.4,229.5,783.9,230.2,783.2z"/>
	<path class="st3" d="M258.5,752.4v39.2h-9.1v-31.9h-7.8v-7.3H258.5z"/>
	<path class="st3" d="M296.1,752.4v5.9l-14.6,33.3h-9.9l14.1-31.8h-13v6.4h-8.1v-13.8H296.1z"/>
	<path class="st3" d="M307.1,789.9c-2.5-1.6-4.5-3.9-6-7c-1.4-3-2.2-6.7-2.2-10.9s0.7-7.8,2.2-10.9c1.4-3,3.4-5.4,6-7
		c2.5-1.6,5.4-2.4,8.7-2.4s6.1,0.8,8.7,2.4c2.5,1.6,4.5,3.9,6,7c1.4,3,2.2,6.7,2.2,10.9s-0.7,7.8-2.2,10.9c-1.4,3-3.4,5.4-6,7
		c-2.5,1.6-5.4,2.4-8.7,2.4S309.6,791.5,307.1,789.9z M321.4,781.5c1.4-2.1,2-5.2,2-9.5s-0.7-7.5-2-9.5c-1.4-2.1-3.2-3.1-5.6-3.1
		c-2.4,0-4.2,1-5.6,3.1c-1.4,2.1-2,5.2-2,9.5s0.7,7.5,2,9.5c1.4,2.1,3.2,3.1,5.6,3.1C318.2,784.6,320,783.6,321.4,781.5z"/>
	<path class="st3" d="M345.3,782.7c1,1,1.5,2.3,1.5,3.9c0,0.7-0.1,1.5-0.3,2.2c-0.2,0.7-0.6,1.9-1.2,3.4l-3.2,8.1h-5.5l2.5-8.9
		c-0.9-0.4-1.7-1-2.2-1.8c-0.5-0.8-0.8-1.8-0.8-2.9c0-1.6,0.5-2.9,1.5-3.9c1-1,2.3-1.5,3.9-1.5S344.3,781.7,345.3,782.7z"/>
	<path class="st3" d="M358.3,789.9c-2.5-1.6-4.5-3.9-6-7c-1.4-3-2.2-6.7-2.2-10.9s0.7-7.8,2.2-10.9c1.4-3,3.4-5.4,6-7
		c2.5-1.6,5.4-2.4,8.7-2.4s6.1,0.8,8.7,2.4c2.5,1.6,4.5,3.9,6,7c1.4,3,2.2,6.7,2.2,10.9s-0.7,7.8-2.2,10.9c-1.4,3-3.4,5.4-6,7
		c-2.5,1.6-5.4,2.4-8.7,2.4S360.9,791.5,358.3,789.9z M372.6,781.5c1.4-2.1,2-5.2,2-9.5s-0.7-7.5-2-9.5c-1.4-2.1-3.2-3.1-5.6-3.1
		c-2.4,0-4.2,1-5.6,3.1c-1.4,2.1-2,5.2-2,9.5s0.7,7.5,2,9.5c1.4,2.1,3.2,3.1,5.6,3.1C369.4,784.6,371.3,783.6,372.6,781.5z"/>
	<path class="st3" d="M396.4,789.9c-2.5-1.6-4.5-3.9-6-7c-1.4-3-2.2-6.7-2.2-10.9s0.7-7.8,2.2-10.9c1.4-3,3.4-5.4,6-7
		c2.5-1.6,5.4-2.4,8.7-2.4s6.1,0.8,8.7,2.4c2.5,1.6,4.5,3.9,6,7c1.4,3,2.2,6.7,2.2,10.9s-0.7,7.8-2.2,10.9c-1.4,3-3.4,5.4-6,7
		c-2.5,1.6-5.4,2.4-8.7,2.4S398.9,791.5,396.4,789.9z M410.7,781.5c1.4-2.1,2-5.2,2-9.5s-0.7-7.5-2-9.5c-1.4-2.1-3.2-3.1-5.6-3.1
		c-2.4,0-4.2,1-5.6,3.1c-1.4,2.1-2,5.2-2,9.5s0.7,7.5,2,9.5c1.4,2.1,3.2,3.1,5.6,3.1C407.4,784.6,409.3,783.6,410.7,781.5z"/>
</g>
<g>
	<path class="st3" d="M216.2,713.8h3.2v14h-3.2V713.8z"/>
	<path class="st3" d="M235.6,713.8v14H233l-7-8.5v8.5h-3.2v-14h2.7l7,8.5v-8.5H235.6z"/>
	<path class="st3" d="M252.3,713.8l-6.1,14h-3.2l-6-14h3.5l4.3,10l4.3-10H252.3z"/>
	<path class="st3" d="M264.3,725.2v2.6h-10.8v-14h10.6v2.6h-7.4v3h6.5v2.5h-6.5v3.2H264.3z"/>
	<path class="st3" d="M268.3,727.6c-1-0.3-1.9-0.7-2.5-1.2l1.1-2.4c0.6,0.4,1.3,0.8,2.1,1.1s1.7,0.4,2.5,0.4c0.9,0,1.6-0.1,2-0.4
		s0.7-0.6,0.7-1.1c0-0.3-0.1-0.6-0.4-0.8c-0.3-0.2-0.6-0.4-1-0.5c-0.4-0.1-1-0.3-1.6-0.4c-1.1-0.3-1.9-0.5-2.6-0.8
		c-0.7-0.3-1.3-0.7-1.8-1.2c-0.5-0.6-0.7-1.3-0.7-2.2c0-0.8,0.2-1.5,0.7-2.2s1.1-1.2,2-1.6c0.9-0.4,2-0.6,3.3-0.6
		c0.9,0,1.8,0.1,2.6,0.3c0.9,0.2,1.6,0.5,2.2,0.9l-1,2.5c-1.3-0.7-2.6-1.1-3.9-1.1c-0.9,0-1.6,0.1-2,0.4c-0.4,0.3-0.6,0.7-0.6,1.2
		c0,0.5,0.3,0.8,0.8,1.1s1.3,0.5,2.3,0.7c1.1,0.3,1.9,0.5,2.6,0.8c0.7,0.3,1.3,0.7,1.8,1.2c0.5,0.5,0.7,1.3,0.7,2.2
		c0,0.8-0.2,1.5-0.7,2.2s-1.1,1.2-2,1.6c-0.9,0.4-2,0.6-3.3,0.6C270.4,728.1,269.3,727.9,268.3,727.6z"/>
	<path class="st3" d="M282.4,716.5h-4.5v-2.6h12.2v2.6h-4.5v11.4h-3.2V716.5z"/>
	<path class="st3" d="M291.8,713.8h3.2v14h-3.2V713.8z"/>
	<path class="st3" d="M311.1,727.8l0-8.4l-4.1,6.9h-1.5l-4.1-6.7v8.2h-3v-14h2.7l5.2,8.7l5.2-8.7h2.7l0,14H311.1z"/>
	<path class="st3" d="M328.3,725.2v2.6h-10.8v-14h10.6v2.6h-7.4v3h6.5v2.5h-6.5v3.2H328.3z"/>
	<path class="st3" d="M343.7,713.8v14h-2.7l-7-8.5v8.5h-3.2v-14h2.7l7,8.5v-8.5H343.7z"/>
	<path class="st3" d="M350,716.5h-4.5v-2.6h12.2v2.6h-4.5v11.4H350V716.5z"/>
	<path class="st3" d="M362.1,727.1c-1.2-0.6-2.1-1.5-2.7-2.6s-1-2.3-1-3.7s0.3-2.6,1-3.7s1.6-2,2.7-2.6c1.2-0.6,2.5-0.9,3.9-0.9
		c1.5,0,2.8,0.3,3.9,0.9c1.2,0.6,2.1,1.5,2.7,2.6c0.7,1.1,1,2.3,1,3.7s-0.3,2.6-1,3.7c-0.7,1.1-1.6,2-2.7,2.6
		c-1.2,0.6-2.5,0.9-3.9,0.9C364.5,728.1,363.2,727.8,362.1,727.1z M368.2,724.8c0.7-0.4,1.2-0.9,1.6-1.6c0.4-0.7,0.6-1.5,0.6-2.3
		c0-0.9-0.2-1.6-0.6-2.3c-0.4-0.7-0.9-1.2-1.6-1.6c-0.7-0.4-1.4-0.6-2.2-0.6s-1.6,0.2-2.2,0.6c-0.7,0.4-1.2,0.9-1.6,1.6
		c-0.4,0.7-0.6,1.5-0.6,2.3c0,0.9,0.2,1.6,0.6,2.3c0.4,0.7,0.9,1.2,1.6,1.6c0.7,0.4,1.4,0.6,2.2,0.6S367.6,725.1,368.2,724.8z"/>
</g>
<g>
	<path class="st3" d="M814.3,719.4h3.2v14h-3.2V719.4z"/>
	<path class="st3" d="M833.7,719.4v14h-2.7l-7-8.5v8.5h-3.2v-14h2.7l7,8.5v-8.5H833.7z"/>
	<path class="st3" d="M850.4,719.4l-6.1,14h-3.2l-6-14h3.5l4.3,10l4.3-10H850.4z"/>
	<path class="st3" d="M862.4,730.8v2.6h-10.8v-14h10.6v2.6h-7.4v3h6.5v2.5h-6.5v3.2H862.4z"/>
	<path class="st3" d="M866.4,733.2c-1-0.3-1.9-0.7-2.5-1.2l1.1-2.4c0.6,0.4,1.3,0.8,2.1,1.1c0.8,0.3,1.7,0.4,2.5,0.4
		c0.9,0,1.6-0.1,2-0.4c0.4-0.3,0.7-0.6,0.7-1.1c0-0.3-0.1-0.6-0.4-0.8c-0.3-0.2-0.6-0.4-1-0.5c-0.4-0.1-1-0.3-1.7-0.4
		c-1.1-0.3-1.9-0.5-2.6-0.8c-0.7-0.3-1.3-0.7-1.8-1.2c-0.5-0.6-0.7-1.3-0.7-2.2c0-0.8,0.2-1.5,0.7-2.2c0.4-0.7,1.1-1.2,2-1.6
		c0.9-0.4,2-0.6,3.3-0.6c0.9,0,1.8,0.1,2.6,0.3s1.6,0.5,2.2,0.9l-1,2.5c-1.3-0.7-2.6-1.1-3.9-1.1c-0.9,0-1.6,0.1-2,0.4
		c-0.4,0.3-0.7,0.7-0.7,1.2c0,0.5,0.3,0.8,0.8,1.1s1.3,0.5,2.3,0.7c1.1,0.3,1.9,0.5,2.6,0.8c0.7,0.3,1.3,0.7,1.8,1.2
		c0.5,0.5,0.7,1.3,0.7,2.2c0,0.8-0.2,1.5-0.7,2.2c-0.4,0.7-1.1,1.2-2,1.6s-2,0.6-3.3,0.6C868.5,733.7,867.4,733.5,866.4,733.2z"/>
	<path class="st3" d="M880.5,722.1H876v-2.6h12.2v2.6h-4.5v11.4h-3.2V722.1z"/>
	<path class="st3" d="M889.9,719.4h3.2v14h-3.2V719.4z"/>
	<path class="st3" d="M909.2,733.4l0-8.4l-4.1,6.9h-1.5l-4.1-6.7v8.2h-3v-14h2.7l5.2,8.7l5.2-8.7h2.7l0,14H909.2z"/>
	<path class="st3" d="M926.4,730.8v2.6h-10.8v-14h10.6v2.6h-7.4v3h6.5v2.5h-6.5v3.2H926.4z"/>
	<path class="st3" d="M941.8,719.4v14h-2.7l-7-8.5v8.5H929v-14h2.7l7,8.5v-8.5H941.8z"/>
	<path class="st3" d="M948.1,722.1h-4.5v-2.6h12.2v2.6h-4.5v11.4h-3.2V722.1z"/>
	<path class="st3" d="M960.2,732.7c-1.2-0.6-2.1-1.5-2.7-2.6s-1-2.3-1-3.7s0.3-2.6,1-3.7s1.6-2,2.7-2.6c1.2-0.6,2.5-0.9,3.9-0.9
		c1.5,0,2.8,0.3,3.9,0.9s2.1,1.5,2.7,2.6c0.7,1.1,1,2.3,1,3.7s-0.3,2.6-1,3.7c-0.7,1.1-1.6,2-2.7,2.6c-1.2,0.6-2.5,0.9-3.9,0.9
		C962.6,733.7,961.3,733.4,960.2,732.7z M966.3,730.3c0.7-0.4,1.2-0.9,1.6-1.6c0.4-0.7,0.6-1.5,0.6-2.3c0-0.9-0.2-1.6-0.6-2.3
		c-0.4-0.7-0.9-1.2-1.6-1.6c-0.7-0.4-1.4-0.6-2.2-0.6c-0.8,0-1.6,0.2-2.2,0.6s-1.2,0.9-1.6,1.6c-0.4,0.7-0.6,1.5-0.6,2.3
		c0,0.9,0.2,1.6,0.6,2.3c0.4,0.7,0.9,1.2,1.6,1.6s1.4,0.6,2.2,0.6C964.9,730.9,965.7,730.7,966.3,730.3z"/>
</g>
<g>
	<path class="st3" d="M791.4,791.6l-7.6-10.9h-0.4h-7.9v10.9h-9.1v-39.2h17c3.5,0,6.5,0.6,9,1.7c2.6,1.2,4.5,2.8,5.9,4.9
		s2.1,4.6,2.1,7.6c0,2.9-0.7,5.4-2.1,7.5c-1.4,2.1-3.4,3.7-6,4.8l8.8,12.6H791.4z M789.1,761.6c-1.4-1.2-3.5-1.8-6.2-1.8h-7.4v13.7
		h7.4c2.7,0,4.8-0.6,6.2-1.8c1.4-1.2,2.1-2.9,2.1-5C791.3,764.4,790.6,762.8,789.1,761.6z"/>
	<path class="st3" d="M833.8,788c-2.2,2.2-5.5,3.5-9.7,4.1v6.3h-5.6v-6.1c-2.8-0.1-5.4-0.6-7.9-1.5c-2.5-0.8-4.5-1.8-6-3l3.1-6.8
		c1.4,1,3.1,1.9,5,2.6c1.9,0.7,3.9,1.2,5.9,1.3v-9.4c-2.7-0.6-4.9-1.3-6.7-2.1c-1.8-0.8-3.4-1.9-4.6-3.4c-1.2-1.5-1.8-3.5-1.8-6
		c0-3.1,1.1-5.8,3.4-8c2.3-2.2,5.5-3.6,9.8-4.1v-6.2h5.6v6.1c4.6,0.4,8.4,1.5,11.4,3.4l-2.8,6.9c-2.8-1.6-5.7-2.6-8.6-2.9v9.5
		c2.6,0.6,4.8,1.3,6.6,2c1.8,0.8,3.3,1.9,4.6,3.4c1.2,1.5,1.8,3.5,1.8,6C837.1,783.2,836,785.8,833.8,788z M815.4,765.8
		c0.7,0.6,1.7,1.1,3.1,1.5v-8c-1.4,0.3-2.5,0.9-3.1,1.6c-0.7,0.7-1,1.6-1,2.5C814.3,764.4,814.7,765.2,815.4,765.8z M827.1,783.2
		c0.7-0.7,1-1.5,1-2.4s-0.3-1.7-1-2.3c-0.7-0.6-1.7-1.1-3-1.6v7.7C825.4,784.4,826.4,783.9,827.1,783.2z"/>
	<path class="st3" d="M866.9,772.2c1.8,2,2.7,4.5,2.7,7.4c0,2.3-0.6,4.4-1.8,6.3c-1.2,1.9-3,3.5-5.5,4.6c-2.4,1.2-5.4,1.7-9,1.7
		c-2.8,0-5.5-0.4-8.1-1.1c-2.7-0.7-4.9-1.8-6.8-3.1l3.5-6.9c1.5,1.1,3.2,2,5.2,2.6s4,0.9,6,0.9c2.3,0,4.1-0.4,5.4-1.3s2-2.1,2-3.7
		c0-3.2-2.4-4.8-7.3-4.8H849v-6l8.1-9.1h-16.7v-7.3h27.4v5.9l-8.8,10.1C862.4,768.9,865,770.2,866.9,772.2z"/>
	<path class="st3" d="M899.7,772.2c1.8,2,2.7,4.5,2.7,7.4c0,2.3-0.6,4.4-1.8,6.3c-1.2,1.9-3,3.5-5.5,4.6c-2.4,1.2-5.4,1.7-9,1.7
		c-2.8,0-5.5-0.4-8.1-1.1c-2.7-0.7-4.9-1.8-6.8-3.1l3.5-6.9c1.5,1.1,3.2,2,5.2,2.6s4,0.9,6,0.9c2.3,0,4.1-0.4,5.4-1.3s2-2.1,2-3.7
		c0-3.2-2.4-4.8-7.3-4.8h-4.1v-6l8.1-9.1h-16.7v-7.3h27.4v5.9l-8.8,10.1C895.3,768.9,897.9,770.2,899.7,772.2z"/>
	<path class="st3" d="M914.8,789.9c-2.5-1.6-4.5-3.9-6-7c-1.4-3-2.2-6.7-2.2-10.9s0.7-7.8,2.2-10.9c1.4-3,3.4-5.4,6-7
		c2.5-1.6,5.4-2.4,8.7-2.4s6.1,0.8,8.7,2.4c2.5,1.6,4.5,3.9,6,7c1.4,3,2.2,6.7,2.2,10.9s-0.7,7.8-2.2,10.9c-1.4,3-3.4,5.4-6,7
		c-2.5,1.6-5.4,2.4-8.7,2.4S917.3,791.5,914.8,789.9z M929.1,781.5c1.4-2.1,2-5.2,2-9.5s-0.7-7.5-2-9.5c-1.4-2.1-3.2-3.1-5.6-3.1
		c-2.4,0-4.2,1-5.6,3.1c-1.4,2.1-2,5.2-2,9.5s0.7,7.5,2,9.5c1.4,2.1,3.2,3.1,5.6,3.1C925.9,784.6,927.7,783.6,929.1,781.5z"/>
	<path class="st3" d="M953.1,782.7c1,1,1.5,2.3,1.5,3.9c0,0.7-0.1,1.5-0.3,2.2c-0.2,0.7-0.6,1.9-1.2,3.4l-3.2,8.1h-5.5l2.5-8.9
		c-0.9-0.4-1.7-1-2.2-1.8c-0.5-0.8-0.8-1.8-0.8-2.9c0-1.6,0.5-2.9,1.5-3.9c1-1,2.3-1.5,3.9-1.5C950.8,781.2,952,781.7,953.1,782.7z"
		/>
	<path class="st3" d="M966,789.9c-2.5-1.6-4.5-3.9-6-7c-1.4-3-2.2-6.7-2.2-10.9s0.7-7.8,2.2-10.9c1.4-3,3.4-5.4,6-7
		c2.5-1.6,5.4-2.4,8.7-2.4s6.1,0.8,8.7,2.4c2.5,1.6,4.5,3.9,6,7c1.4,3,2.2,6.7,2.2,10.9s-0.7,7.8-2.2,10.9c-1.4,3-3.4,5.4-6,7
		c-2.5,1.6-5.4,2.4-8.7,2.4S968.6,791.5,966,789.9z M980.4,781.5c1.4-2.1,2-5.2,2-9.5s-0.7-7.5-2-9.5c-1.4-2.1-3.2-3.1-5.6-3.1
		c-2.4,0-4.2,1-5.6,3.1c-1.4,2.1-2,5.2-2,9.5s0.7,7.5,2,9.5c1.4,2.1,3.2,3.1,5.6,3.1C977.1,784.6,979,783.6,980.4,781.5z"/>
	<path class="st3" d="M1004.1,789.9c-2.5-1.6-4.5-3.9-6-7c-1.4-3-2.2-6.7-2.2-10.9s0.7-7.8,2.2-10.9c1.4-3,3.4-5.4,6-7
		c2.5-1.6,5.4-2.4,8.7-2.4s6.1,0.8,8.7,2.4c2.5,1.6,4.5,3.9,6,7c1.4,3,2.2,6.7,2.2,10.9s-0.7,7.8-2.2,10.9c-1.4,3-3.4,5.4-6,7
		c-2.5,1.6-5.4,2.4-8.7,2.4S1006.6,791.5,1004.1,789.9z M1018.4,781.5c1.4-2.1,2-5.2,2-9.5s-0.7-7.5-2-9.5c-1.4-2.1-3.2-3.1-5.6-3.1
		c-2.4,0-4.2,1-5.6,3.1c-1.4,2.1-2,5.2-2,9.5s0.7,7.5,2,9.5c1.4,2.1,3.2,3.1,5.6,3.1C1015.1,784.6,1017,783.6,1018.4,781.5z"/>
</g>
</svg>
