<?xml version="1.0" encoding="utf-8"?>
<!-- Generator: Adobe Illustrator 24.0.1, SVG Export Plug-In . SVG Version: 6.00 Build 0)  -->
<svg version="1.1" id="Camada_1" xmlns="http://www.w3.org/2000/svg" xmlns:xlink="http://www.w3.org/1999/xlink" x="0px" y="0px"
	 viewBox="0 0 531.8 806" style="enable-background:new 0 0 531.8 806;" xml:space="preserve">
<style type="text/css">
	.st0{fill:#FFFFFF;}
	.st1{fill:none;}
	.st2{enable-background:new    ;}
	.st3{fill:#8543E3;}
	.st4{fill:#8543E3;stroke:#6247AA;stroke-width:0.25;stroke-miterlimit:10;}
	.st5{fill:#FC8C28;}
</style>
<g>
	<g>
		
			<image style="overflow:visible;opacity:0.2;enable-background:new    ;" width="561" height="837" xlink:href="DC2412F6.png"  transform="matrix(1 0 0 1 -7.0404 -8.8)">
		</image>
		<g>
			<path class="st0" d="M473.2,806h-413c-32.4,0-58.6-26.3-58.6-58.6V58.6C1.6,26.2,27.9,0,60.2,0h413.1c32.4,0,58.6,26.3,58.6,58.6
				v688.7C531.9,779.7,505.6,806,473.2,806z"/>
		</g>
	</g>
	<path class="st0" d="M472.8,157.7H60.6c-32.6,0-59.1-26.5-59.1-59.1V59.1C1.5,26.5,28,0,60.6,0h412.1c32.6,0,59.1,26.5,59.1,59.1
		v39.5C531.9,131.2,505.4,157.7,472.8,157.7z"/>
	<rect x="1.5" y="99" class="st0" width="531.5" height="58.2"/>
</g>
<rect x="0.4" y="57" class="st1" width="532.6" height="101.2"/>
<g class="st2">
	<path class="st3" d="M146.6,61.7c2.9,1.3,5.2,3.2,6.8,5.7s2.4,5.4,2.4,8.7c0,3.3-0.8,6.2-2.4,8.7c-1.6,2.5-3.9,4.4-6.8,5.7
		s-6.4,2-10.4,2h-9.1V105h-10.5V59.7h19.6C140.2,59.7,143.7,60.4,146.6,61.7z M142.8,81.9c1.6-1.4,2.5-3.3,2.5-5.8s-0.8-4.5-2.5-5.8
		c-1.6-1.4-4-2-7.2-2h-8.5V84h8.5C138.8,84,141.2,83.3,142.8,81.9z"/>
	<path class="st3" d="M177,71c2-0.9,4.4-1.3,7.1-1.3V79c-1.1-0.1-1.9-0.1-2.3-0.1c-2.9,0-5.1,0.8-6.8,2.4c-1.6,1.6-2.5,4-2.5,7.3
		V105h-10.1V70.2h9.6v4.6C173.4,73.1,175,71.8,177,71z"/>
	<path class="st3" d="M223.6,90.4h-26.3c0.5,2.2,1.6,3.9,3.4,5.1c1.8,1.3,4,1.9,6.6,1.9c1.8,0,3.4-0.3,4.8-0.8
		c1.4-0.5,2.7-1.4,3.9-2.6l5.4,5.8c-3.3,3.7-8.1,5.6-14.3,5.6c-3.9,0-7.4-0.8-10.4-2.3s-5.3-3.6-7-6.4c-1.6-2.7-2.5-5.8-2.5-9.2
		c0-3.4,0.8-6.5,2.4-9.2c1.6-2.7,3.8-4.9,6.7-6.4c2.8-1.5,6-2.3,9.5-2.3c3.4,0,6.5,0.7,9.2,2.2c2.8,1.5,4.9,3.6,6.5,6.3
		c1.6,2.7,2.4,5.9,2.4,9.5C223.8,87.8,223.8,88.7,223.6,90.4z M200.1,79.2c-1.6,1.3-2.5,3.1-2.8,5.3h17.1c-0.3-2.2-1.3-3.9-2.8-5.3
		c-1.6-1.3-3.4-2-5.7-2C203.5,77.3,201.6,78,200.1,79.2z"/>
	<path class="st3" d="M285.4,73.5c2.6,2.6,3.8,6.4,3.8,11.5v19.9h-10.1V86.6c0-2.8-0.6-4.8-1.7-6.2s-2.8-2-4.9-2
		c-2.4,0-4.2,0.8-5.6,2.3s-2.1,3.8-2.1,6.8v17.4h-10.1V86.6c0-5.5-2.2-8.2-6.6-8.2c-2.3,0-4.2,0.8-5.6,2.3s-2.1,3.8-2.1,6.8v17.4
		h-10.1V70.2h9.6v4c1.3-1.5,2.9-2.6,4.7-3.4c1.9-0.8,3.9-1.2,6.2-1.2c2.5,0,4.7,0.5,6.7,1.5c2,1,3.6,2.4,4.8,4.2
		c1.4-1.8,3.2-3.2,5.4-4.2s4.6-1.5,7.1-1.5C279.4,69.7,282.8,71,285.4,73.5z"/>
	<path class="st3" d="M298.8,63.7c-1.2-1.1-1.7-2.4-1.7-4s0.6-2.9,1.7-4c1.2-1.1,2.7-1.6,4.5-1.6s3.4,0.5,4.5,1.5s1.7,2.3,1.7,3.9
		c0,1.7-0.6,3.1-1.7,4.2s-2.7,1.6-4.5,1.6C301.5,65.4,300,64.8,298.8,63.7z M298.3,70.2h10.1v34.7h-10.1V70.2z"/>
	<path class="st3" d="M352.7,70.2v34.7h-9.6v-4.1c-1.3,1.5-2.9,2.7-4.8,3.5s-3.9,1.2-6,1.2c-4.6,0-8.2-1.3-10.8-3.9
		c-2.7-2.6-4-6.5-4-11.7V70.2h10.1v18.1c0,5.6,2.3,8.4,7,8.4c2.4,0,4.3-0.8,5.8-2.4s2.2-3.9,2.2-7V70.2H352.7z"/>
	<path class="st3" d="M417,73.5c2.6,2.6,3.8,6.4,3.8,11.5v19.9h-10.1V86.6c0-2.8-0.6-4.8-1.7-6.2c-1.1-1.4-2.8-2-4.9-2
		c-2.4,0-4.2,0.8-5.6,2.3s-2.1,3.8-2.1,6.8v17.4h-10.1V86.6c0-5.5-2.2-8.2-6.6-8.2c-2.3,0-4.2,0.8-5.6,2.3s-2.1,3.8-2.1,6.8v17.4
		h-10.1V70.2h9.6v4c1.3-1.5,2.9-2.6,4.7-3.4c1.9-0.8,3.9-1.2,6.2-1.2c2.5,0,4.7,0.5,6.7,1.5s3.6,2.4,4.8,4.2
		c1.4-1.8,3.2-3.2,5.4-4.2s4.6-1.5,7.1-1.5C410.9,69.7,414.4,71,417,73.5z"/>
</g>
<rect x="229.1" y="499.3" transform="matrix(6.131249e-03 -1 1 6.131249e-03 -500.4775 1026.5741)" class="st1" width="74.3" height="531.5"/>
<rect x="170.8" y="686.7" class="st1" width="191.6" height="47"/>
<rect y="140.2" class="st4" width="534" height="1"/>
<g>
	<g>
		<path id="Check_6_" class="st5" d="M79.4,233.6c-0.5-0.5-1.3-0.5-1.9,0L59,252l-8.1-8c-0.5-0.5-1.3-0.5-1.9,0s-0.5,1.3,0,1.8
			l9.1,8.9c0.5,0.5,1.3,0.5,1.9,0l19.5-19.3C79.9,234.9,79.9,234.1,79.4,233.6S79.9,234.1,79.4,233.6z"/>
	</g>
</g>
<rect x="22.5" y="231.3" class="st1" width="489.5" height="25.9"/>
<g class="st2">
	<path class="st5" d="M99.2,251.4c-1.6-1.6-2.3-3.9-2.3-6.9v-11.9h3v11.8c0,4.5,2,6.8,5.9,6.8c1.9,0,3.4-0.6,4.4-1.7
		s1.5-2.8,1.5-5.1v-11.8h2.9v11.9c0,3-0.8,5.3-2.3,6.9c-1.6,1.6-3.7,2.4-6.5,2.4C103,253.8,100.8,253,99.2,251.4z"/>
	<path class="st5" d="M145,239.3c1.2,1.2,1.8,2.9,1.8,5.2v9.2h-2.9v-8.8c0-1.5-0.4-2.7-1.1-3.5c-0.7-0.8-1.7-1.2-3-1.2
		c-1.5,0-2.6,0.5-3.5,1.4s-1.3,2.2-1.3,3.9v8.2h-2.9v-8.8c0-1.5-0.4-2.7-1.1-3.5s-1.7-1.2-3-1.2c-1.5,0-2.6,0.5-3.5,1.4
		s-1.3,2.2-1.3,3.9v8.2h-2.9v-15.9h2.8v2.4c0.6-0.8,1.3-1.4,2.3-1.9c0.9-0.4,2-0.6,3.2-0.6s2.3,0.3,3.3,0.8s1.7,1.2,2.2,2.2
		c0.6-0.9,1.4-1.6,2.5-2.2c1.1-0.5,2.3-0.8,3.6-0.8C142.3,237.6,143.8,238.1,145,239.3z"/>
	<path class="st5" d="M162.9,239.2c1.2,1.1,1.8,2.7,1.8,4.8v9.6H162v-2.1c-0.5,0.7-1.2,1.3-2.1,1.7c-0.9,0.4-1.9,0.6-3.2,0.6
		c-1.8,0-3.2-0.4-4.3-1.3s-1.6-2-1.6-3.4s0.5-2.5,1.5-3.4c1-0.8,2.6-1.3,4.9-1.3h4.6v-0.6c0-1.2-0.4-2.2-1.1-2.9
		c-0.7-0.7-1.8-1-3.2-1c-0.9,0-1.9,0.2-2.8,0.5c-0.9,0.3-1.7,0.7-2.3,1.2l-1.2-2.2c0.8-0.7,1.8-1.2,2.9-1.5c1.1-0.3,2.3-0.5,3.6-0.5
		C160.1,237.6,161.8,238.1,162.9,239.2z M160.1,250.8c0.8-0.5,1.4-1.2,1.7-2.1v-2.2h-4.4c-2.4,0-3.7,0.8-3.7,2.5
		c0,0.8,0.3,1.4,0.9,1.9c0.6,0.5,1.5,0.7,2.6,0.7C158.3,251.6,159.3,251.3,160.1,250.8z"/>
	<path class="st5" d="M191.4,239.3c1.2,1.2,1.8,2.9,1.8,5.1v9.2h-2.9v-8.8c0-1.5-0.4-2.7-1.1-3.5c-0.7-0.8-1.8-1.2-3.2-1.2
		c-1.6,0-2.8,0.5-3.7,1.4s-1.3,2.2-1.3,3.9v8.2h-2.9v-22.3h2.9v8.6c0.6-0.8,1.4-1.3,2.4-1.8s2.1-0.6,3.3-0.6
		C188.6,237.6,190.2,238.1,191.4,239.3z"/>
	<path class="st5" d="M201.2,252.7c-1.3-0.7-2.2-1.7-3-2.9c-0.7-1.2-1.1-2.6-1.1-4.2s0.4-3,1.1-4.2c0.7-1.2,1.7-2.2,3-2.9
		c1.3-0.7,2.7-1,4.3-1s3,0.3,4.2,1s2.2,1.6,2.9,2.9c0.7,1.2,1.1,2.6,1.1,4.2s-0.4,3-1.1,4.2c-0.7,1.2-1.7,2.2-2.9,2.9
		c-1.3,0.7-2.7,1-4.2,1S202.4,253.4,201.2,252.7z M208.2,250.6c0.8-0.5,1.4-1.1,1.9-2c0.5-0.8,0.7-1.8,0.7-2.9s-0.2-2.1-0.7-2.9
		s-1.1-1.5-1.9-2s-1.7-0.7-2.7-0.7s-1.9,0.2-2.7,0.7s-1.5,1.1-1.9,2c-0.5,0.9-0.7,1.8-0.7,2.9s0.2,2.1,0.7,2.9
		c0.5,0.9,1.1,1.5,1.9,2s1.7,0.7,2.7,0.7S207.4,251,208.2,250.6z"/>
	<path class="st5" d="M222.6,238.3c1-0.5,2.2-0.7,3.6-0.7v2.8c-0.2,0-0.4,0-0.7,0c-1.6,0-2.8,0.5-3.7,1.4s-1.3,2.3-1.3,4v7.9h-2.9
		v-15.9h2.8v2.7C220.9,239.5,221.7,238.8,222.6,238.3z"/>
	<path class="st5" d="M240.6,239.2c1.2,1.1,1.8,2.7,1.8,4.8v9.6h-2.7v-2.1c-0.5,0.7-1.2,1.3-2.1,1.7c-0.9,0.4-1.9,0.6-3.2,0.6
		c-1.8,0-3.2-0.4-4.3-1.3s-1.6-2-1.6-3.4s0.5-2.5,1.5-3.4c1-0.8,2.6-1.3,4.9-1.3h4.6v-0.6c0-1.2-0.4-2.2-1.1-2.9
		c-0.7-0.7-1.8-1-3.2-1c-0.9,0-1.9,0.2-2.8,0.5s-1.7,0.7-2.3,1.2l-1.2-2.2c0.8-0.7,1.8-1.2,2.9-1.5s2.3-0.5,3.6-0.5
		C237.7,237.6,239.4,238.1,240.6,239.2z M237.7,250.8c0.8-0.5,1.4-1.2,1.7-2.1v-2.2H235c-2.4,0-3.7,0.8-3.7,2.5
		c0,0.8,0.3,1.4,0.9,1.9s1.5,0.7,2.6,0.7S236.9,251.3,237.7,250.8z"/>
	<path class="st5" d="M270.7,231.3v22.3H268v-2.5c-0.6,0.9-1.5,1.5-2.4,2c-1,0.5-2.1,0.7-3.2,0.7c-1.5,0-2.9-0.3-4.1-1
		s-2.2-1.6-2.9-2.9c-0.7-1.2-1-2.6-1-4.2s0.3-3,1-4.2c0.7-1.2,1.6-2.2,2.9-2.9c1.2-0.7,2.6-1,4.1-1c1.1,0,2.2,0.2,3.2,0.6
		s1.8,1.1,2.4,1.9v-8.8H270.7z M265.3,250.6c0.8-0.5,1.5-1.1,1.9-2c0.5-0.8,0.7-1.8,0.7-2.9s-0.2-2.1-0.7-2.9s-1.1-1.5-1.9-2
		s-1.7-0.7-2.7-0.7s-1.9,0.2-2.7,0.7s-1.5,1.1-1.9,2c-0.5,0.9-0.7,1.8-0.7,2.9s0.2,2.1,0.7,2.9c0.5,0.9,1.1,1.5,1.9,2
		s1.7,0.7,2.7,0.7C263.5,251.3,264.4,251,265.3,250.6z"/>
	<path class="st5" d="M290.5,246.6h-12.9c0.2,1.4,0.8,2.5,1.8,3.4c1.1,0.9,2.4,1.3,3.9,1.3c1.9,0,3.4-0.6,4.6-1.9l1.6,1.9
		c-0.7,0.8-1.6,1.5-2.7,1.9s-2.3,0.7-3.6,0.7c-1.7,0-3.2-0.3-4.5-1s-2.3-1.7-3-2.9s-1.1-2.6-1.1-4.2c0-1.5,0.3-2.9,1-4.2
		c0.7-1.2,1.6-2.2,2.8-2.9c1.2-0.7,2.6-1,4.1-1s2.9,0.3,4.1,1s2.1,1.7,2.8,2.9c0.7,1.2,1,2.7,1,4.3
		C290.6,246,290.5,246.3,290.5,246.6z M279.2,241.2c-0.9,0.8-1.5,1.9-1.6,3.3h10.2c-0.2-1.3-0.7-2.4-1.6-3.3s-2.1-1.3-3.5-1.3
		C281.3,240,280.2,240.4,279.2,241.2z"/>
	<path class="st5" d="M327.3,239.3c1.2,1.2,1.8,2.9,1.8,5.2v9.2h-2.9v-8.8c0-1.5-0.4-2.7-1.1-3.5s-1.7-1.2-3-1.2
		c-1.5,0-2.6,0.5-3.5,1.4s-1.3,2.2-1.3,3.9v8.2h-2.9v-8.8c0-1.5-0.4-2.7-1.1-3.5s-1.7-1.2-3-1.2c-1.5,0-2.6,0.5-3.5,1.4
		s-1.3,2.2-1.3,3.9v8.2h-2.9v-15.9h2.8v2.4c0.6-0.8,1.3-1.4,2.3-1.9c0.9-0.4,2-0.6,3.2-0.6s2.3,0.3,3.3,0.8s1.7,1.2,2.2,2.2
		c0.6-0.9,1.4-1.6,2.5-2.2c1.1-0.5,2.3-0.8,3.6-0.8C324.5,237.6,326.1,238.1,327.3,239.3z"/>
	<path class="st5" d="M348.7,246.6h-12.9c0.2,1.4,0.8,2.5,1.8,3.4s2.4,1.3,3.9,1.3c1.9,0,3.4-0.6,4.6-1.9l1.6,1.9
		c-0.7,0.8-1.6,1.5-2.7,1.9s-2.3,0.7-3.6,0.7c-1.7,0-3.2-0.3-4.5-1s-2.3-1.7-3-2.9c-0.7-1.2-1.1-2.6-1.1-4.2c0-1.5,0.3-2.9,1-4.2
		c0.7-1.2,1.6-2.2,2.9-2.9c1.2-0.7,2.6-1,4.1-1s2.9,0.3,4.1,1s2.1,1.7,2.8,2.9c0.7,1.2,1,2.7,1,4.3
		C348.8,246,348.8,246.3,348.7,246.6z M337.5,241.2c-0.9,0.8-1.5,1.9-1.6,3.3H346c-0.2-1.3-0.7-2.4-1.6-3.3s-2.1-1.3-3.5-1.3
		S338.4,240.4,337.5,241.2z"/>
	<path class="st5" d="M366.1,239.3c1.2,1.2,1.8,2.9,1.8,5.1v9.2H365v-8.8c0-1.5-0.4-2.7-1.1-3.5s-1.8-1.2-3.2-1.2
		c-1.6,0-2.8,0.5-3.7,1.4s-1.3,2.2-1.3,3.9v8.2h-2.9v-15.9h2.8v2.4c0.6-0.8,1.4-1.5,2.4-1.9s2.1-0.7,3.4-0.7
		C363.3,237.6,364.9,238.1,366.1,239.3z"/>
	<path class="st5" d="M382.1,252.7c-0.4,0.4-0.9,0.6-1.6,0.8c-0.6,0.2-1.3,0.3-1.9,0.3c-1.6,0-2.8-0.4-3.7-1.3s-1.3-2.1-1.3-3.7
		v-8.7h-2.7v-2.4h2.7v-3.5h2.9v3.5h4.6v2.4h-4.6v8.6c0,0.9,0.2,1.5,0.6,2s1,0.7,1.8,0.7c0.9,0,1.6-0.3,2.3-0.8L382.1,252.7z"/>
	<path class="st5" d="M387.6,252.7c-1.3-0.7-2.2-1.7-3-2.9c-0.7-1.2-1.1-2.6-1.1-4.2s0.4-3,1.1-4.2s1.7-2.2,3-2.9
		c1.3-0.7,2.7-1,4.3-1s3,0.3,4.2,1c1.3,0.7,2.2,1.6,2.9,2.9c0.7,1.2,1.1,2.6,1.1,4.2s-0.4,3-1.1,4.2s-1.7,2.2-2.9,2.9s-2.7,1-4.2,1
		C390.3,253.8,388.9,253.4,387.6,252.7z M394.6,250.6c0.8-0.5,1.4-1.1,1.9-2c0.5-0.8,0.7-1.8,0.7-2.9s-0.2-2.1-0.7-2.9
		s-1.1-1.5-1.9-2s-1.7-0.7-2.7-0.7s-1.9,0.2-2.7,0.7s-1.4,1.1-1.9,2s-0.7,1.8-0.7,2.9s0.2,2.1,0.7,2.9c0.5,0.9,1.1,1.5,1.9,2
		s1.7,0.7,2.7,0.7C392.9,251.3,393.8,251,394.6,250.6z"/>
	<path class="st5" d="M409.1,238.3c1-0.5,2.2-0.7,3.6-0.7v2.8c-0.2,0-0.4,0-0.7,0c-1.6,0-2.8,0.5-3.7,1.4c-0.9,0.9-1.3,2.3-1.3,4
		v7.9h-2.9v-15.9h2.8v2.7C407.4,239.5,408.1,238.8,409.1,238.3z"/>
	<path class="st5" d="M416.3,234.1c-0.4-0.4-0.6-0.8-0.6-1.3s0.2-1,0.6-1.3c0.4-0.4,0.8-0.6,1.4-0.6s1,0.2,1.4,0.5
		c0.4,0.3,0.6,0.8,0.6,1.3s-0.2,1-0.6,1.4s-0.8,0.6-1.4,0.6C417.1,234.6,416.6,234.5,416.3,234.1z M416.2,237.7h2.9v15.9h-2.9V237.7
		z"/>
	<path class="st5" d="M435.4,239.2c1.2,1.1,1.8,2.7,1.8,4.8v9.6h-2.7v-2.1c-0.5,0.7-1.2,1.3-2.1,1.7c-0.9,0.4-1.9,0.6-3.2,0.6
		c-1.8,0-3.2-0.4-4.3-1.3c-1.1-0.9-1.6-2-1.6-3.4s0.5-2.5,1.5-3.4c1-0.8,2.6-1.3,4.9-1.3h4.6v-0.6c0-1.2-0.4-2.2-1.1-2.9
		c-0.7-0.7-1.8-1-3.2-1c-0.9,0-1.9,0.2-2.8,0.5s-1.7,0.7-2.3,1.2l-1.2-2.2c0.8-0.7,1.8-1.2,2.9-1.5s2.3-0.5,3.6-0.5
		C432.6,237.6,434.3,238.1,435.4,239.2z M432.6,250.8c0.8-0.5,1.4-1.2,1.7-2.1v-2.2h-4.4c-2.4,0-3.7,0.8-3.7,2.5
		c0,0.8,0.3,1.4,0.9,1.9s1.5,0.7,2.6,0.7S431.8,251.3,432.6,250.8z"/>
</g>
<g>
	<g>
		<path id="Check_5_" class="st5" d="M79.4,314.6c-0.5-0.5-1.3-0.5-1.9,0L59,333l-8.1-8c-0.5-0.5-1.3-0.5-1.9,0s-0.5,1.3,0,1.8
			l9.1,8.9c0.5,0.5,1.3,0.5,1.9,0l19.5-19.3C79.9,315.9,79.9,315.1,79.4,314.6S79.9,315.1,79.4,314.6z"/>
	</g>
</g>
<rect x="22.5" y="309.3" class="st1" width="489.5" height="59.9"/>
<g class="st2">
	<path class="st5" d="M126.5,329v2.6h-15.2v-21h14.8v2.6h-11.8v6.4h10.5v2.6h-10.5v6.8H126.5z"/>
	<path class="st5" d="M131.5,331.3c-1.2-0.3-2.1-0.8-2.8-1.3l1.2-2.3c0.7,0.5,1.6,0.9,2.6,1.2c1,0.3,2,0.5,3,0.5
		c2.5,0,3.8-0.7,3.8-2.2c0-0.5-0.2-0.9-0.5-1.1c-0.3-0.3-0.8-0.5-1.3-0.6c-0.5-0.1-1.2-0.3-2.2-0.4c-1.3-0.2-2.3-0.4-3.1-0.7
		c-0.8-0.3-1.5-0.7-2.1-1.3c-0.6-0.6-0.9-1.5-0.9-2.6c0-1.4,0.6-2.6,1.8-3.5c1.2-0.9,2.8-1.3,4.8-1.3c1.1,0,2.1,0.1,3.2,0.4
		c1.1,0.3,1.9,0.6,2.6,1l-1.2,2.3c-1.3-0.8-2.8-1.3-4.6-1.3c-1.2,0-2.2,0.2-2.8,0.6c-0.6,0.4-1,0.9-1,1.6c0,0.5,0.2,0.9,0.5,1.2
		c0.4,0.3,0.8,0.5,1.3,0.7c0.5,0.1,1.3,0.3,2.2,0.5c1.3,0.2,2.3,0.5,3.1,0.7c0.8,0.3,1.5,0.7,2,1.3c0.6,0.6,0.8,1.4,0.8,2.5
		c0,1.4-0.6,2.6-1.8,3.4s-2.9,1.3-5,1.3C134,331.8,132.7,331.6,131.5,331.3z"/>
	<path class="st5" d="M148.4,330.7c-1.3-0.7-2.3-1.7-3-2.9s-1.1-2.6-1.1-4.2c0-1.6,0.4-3,1.1-4.2c0.7-1.2,1.7-2.2,3-2.9
		c1.3-0.7,2.7-1,4.3-1c1.4,0,2.7,0.3,3.9,0.9c1.2,0.6,2,1.4,2.6,2.5l-2.2,1.4c-0.5-0.8-1.1-1.3-1.9-1.7c-0.7-0.4-1.6-0.6-2.5-0.6
		c-1,0-2,0.2-2.8,0.7s-1.5,1.1-2,2c-0.5,0.9-0.7,1.8-0.7,2.9c0,1.1,0.2,2.1,0.7,3c0.5,0.9,1.1,1.5,2,2c0.8,0.5,1.8,0.7,2.8,0.7
		c0.9,0,1.7-0.2,2.5-0.6c0.7-0.4,1.4-0.9,1.9-1.7l2.2,1.4c-0.6,1.1-1.5,1.9-2.6,2.5c-1.1,0.6-2.4,0.9-3.9,0.9
		C151.1,331.8,149.6,331.4,148.4,330.7z"/>
	<path class="st5" d="M165.2,330.7c-1.3-0.7-2.2-1.7-3-2.9c-0.7-1.2-1.1-2.6-1.1-4.2c0-1.6,0.4-3,1.1-4.2c0.7-1.2,1.7-2.2,3-2.9
		c1.3-0.7,2.7-1,4.3-1s3,0.3,4.2,1c1.3,0.7,2.2,1.6,2.9,2.9c0.7,1.2,1.1,2.6,1.1,4.2c0,1.6-0.4,3-1.1,4.2c-0.7,1.2-1.7,2.2-2.9,2.9
		c-1.2,0.7-2.7,1-4.2,1C167.9,331.8,166.5,331.4,165.2,330.7z M172.2,328.6c0.8-0.5,1.4-1.1,1.9-2c0.5-0.8,0.7-1.8,0.7-2.9
		c0-1.1-0.2-2.1-0.7-2.9s-1.1-1.5-1.9-2c-0.8-0.5-1.7-0.7-2.7-0.7s-1.9,0.2-2.7,0.7s-1.4,1.1-1.9,2c-0.5,0.9-0.7,1.8-0.7,2.9
		c0,1.1,0.2,2.1,0.7,2.9c0.5,0.9,1.1,1.5,1.9,2c0.8,0.5,1.7,0.7,2.7,0.7S171.4,329,172.2,328.6z"/>
	<path class="st5" d="M181.7,309.3h2.9v22.3h-2.9V309.3z"/>
	<path class="st5" d="M203.4,317.3c1.2,1.2,1.8,2.9,1.8,5.1v9.2h-2.9v-8.8c0-1.5-0.4-2.7-1.1-3.5s-1.8-1.2-3.2-1.2
		c-1.6,0-2.8,0.5-3.7,1.4c-0.9,0.9-1.4,2.2-1.4,3.9v8.2H190v-22.3h2.9v8.6c0.6-0.8,1.4-1.3,2.4-1.8s2.1-0.6,3.3-0.6
		C200.6,315.6,202.2,316.1,203.4,317.3z"/>
	<path class="st5" d="M221.3,317.2c1.2,1.1,1.8,2.7,1.8,4.8v9.6h-2.7v-2.1c-0.5,0.7-1.2,1.3-2.1,1.7c-0.9,0.4-1.9,0.6-3.2,0.6
		c-1.8,0-3.2-0.4-4.3-1.3c-1.1-0.9-1.6-2-1.6-3.4c0-1.4,0.5-2.5,1.5-3.4c1-0.8,2.6-1.3,4.9-1.3h4.6v-0.6c0-1.2-0.4-2.2-1.1-2.9
		s-1.8-1-3.2-1c-0.9,0-1.9,0.2-2.8,0.5c-0.9,0.3-1.7,0.7-2.3,1.2l-1.2-2.2c0.8-0.7,1.8-1.2,2.9-1.5c1.1-0.3,2.3-0.5,3.6-0.5
		C218.5,315.6,220.2,316.1,221.3,317.2z M218.5,328.8c0.8-0.5,1.4-1.2,1.7-2.1v-2.2h-4.4c-2.4,0-3.7,0.8-3.7,2.5
		c0,0.8,0.3,1.4,0.9,1.9c0.6,0.5,1.5,0.7,2.6,0.7C216.7,329.6,217.7,329.3,218.5,328.8z"/>
	<path class="st5" d="M239.1,330.7c-1.3-0.7-2.2-1.7-3-2.9c-0.7-1.2-1.1-2.6-1.1-4.2c0-1.6,0.4-3,1.1-4.2s1.7-2.2,3-2.9
		c1.3-0.7,2.7-1,4.3-1s3,0.3,4.2,1c1.3,0.7,2.2,1.6,2.9,2.9c0.7,1.2,1.1,2.6,1.1,4.2c0,1.6-0.4,3-1.1,4.2s-1.7,2.2-2.9,2.9
		c-1.2,0.7-2.7,1-4.2,1C241.7,331.8,240.3,331.4,239.1,330.7z M246.1,328.6c0.8-0.5,1.4-1.1,1.9-2c0.5-0.8,0.7-1.8,0.7-2.9
		c0-1.1-0.2-2.1-0.7-2.9s-1.1-1.5-1.9-2s-1.7-0.7-2.7-0.7s-1.9,0.2-2.7,0.7s-1.4,1.1-1.9,2c-0.5,0.9-0.7,1.8-0.7,2.9
		c0,1.1,0.2,2.1,0.7,2.9c0.5,0.9,1.1,1.5,1.9,2s1.7,0.7,2.7,0.7C244.3,329.3,245.3,329,246.1,328.6z"/>
	<path class="st5" d="M288.3,317.3c1.2,1.2,1.8,2.9,1.8,5.2v9.2h-2.9v-8.8c0-1.5-0.4-2.7-1.1-3.5s-1.7-1.2-3-1.2
		c-1.5,0-2.6,0.5-3.5,1.4c-0.9,0.9-1.3,2.2-1.3,3.9v8.2h-2.9v-8.8c0-1.5-0.4-2.7-1.1-3.5s-1.7-1.2-3-1.2c-1.5,0-2.6,0.5-3.5,1.4
		c-0.9,0.9-1.3,2.2-1.3,3.9v8.2h-2.9v-15.9h2.8v2.4c0.6-0.8,1.3-1.4,2.3-1.9c0.9-0.4,2-0.6,3.2-0.6s2.3,0.3,3.3,0.8s1.7,1.2,2.2,2.2
		c0.6-0.9,1.4-1.6,2.5-2.2c1.1-0.5,2.3-0.8,3.6-0.8C285.5,315.6,287.1,316.1,288.3,317.3z"/>
	<path class="st5" d="M309.7,324.6h-12.9c0.2,1.4,0.8,2.5,1.8,3.4c1.1,0.9,2.4,1.3,3.9,1.3c1.9,0,3.4-0.6,4.6-1.9l1.6,1.9
		c-0.7,0.8-1.6,1.5-2.7,1.9c-1.1,0.4-2.3,0.7-3.6,0.7c-1.7,0-3.2-0.3-4.5-1s-2.3-1.7-3-2.9c-0.7-1.2-1.1-2.6-1.1-4.2
		c0-1.5,0.3-2.9,1-4.2c0.7-1.2,1.6-2.2,2.8-2.9c1.2-0.7,2.6-1,4.1-1s2.9,0.3,4.1,1s2.1,1.7,2.8,2.9c0.7,1.2,1,2.7,1,4.3
		C309.8,324,309.8,324.3,309.7,324.6z M298.5,319.2c-0.9,0.8-1.5,1.9-1.6,3.3H307c-0.2-1.3-0.7-2.4-1.6-3.3
		c-0.9-0.9-2.1-1.3-3.5-1.3C300.6,318,299.4,318.4,298.5,319.2z"/>
	<path class="st5" d="M313.8,309.3h2.9v22.3h-2.9V309.3z"/>
	<path class="st5" d="M335.5,317.3c1.2,1.2,1.8,2.9,1.8,5.1v9.2h-2.9v-8.8c0-1.5-0.4-2.7-1.1-3.5s-1.8-1.2-3.2-1.2
		c-1.6,0-2.8,0.5-3.7,1.4c-0.9,0.9-1.3,2.2-1.3,3.9v8.2h-2.9v-22.3h2.9v8.6c0.6-0.8,1.4-1.3,2.4-1.8s2.1-0.6,3.3-0.6
		C332.7,315.6,334.3,316.1,335.5,317.3z"/>
	<path class="st5" d="M345.2,330.7c-1.3-0.7-2.2-1.7-3-2.9c-0.7-1.2-1.1-2.6-1.1-4.2c0-1.6,0.4-3,1.1-4.2s1.7-2.2,3-2.9
		c1.3-0.7,2.7-1,4.3-1s3,0.3,4.2,1s2.2,1.6,2.9,2.9c0.7,1.2,1.1,2.6,1.1,4.2c0,1.6-0.4,3-1.1,4.2s-1.7,2.2-2.9,2.9
		c-1.3,0.7-2.7,1-4.2,1S346.5,331.4,345.2,330.7z M352.2,328.6c0.8-0.5,1.4-1.1,1.9-2c0.5-0.8,0.7-1.8,0.7-2.9
		c0-1.1-0.2-2.1-0.7-2.9s-1.1-1.5-1.9-2s-1.7-0.7-2.7-0.7s-1.9,0.2-2.7,0.7s-1.5,1.1-1.9,2c-0.5,0.9-0.7,1.8-0.7,2.9
		c0,1.1,0.2,2.1,0.7,2.9c0.5,0.9,1.1,1.5,1.9,2s1.7,0.7,2.7,0.7S351.4,329,352.2,328.6z"/>
	<path class="st5" d="M366.7,316.3c1-0.5,2.2-0.7,3.6-0.7v2.8c-0.2,0-0.4,0-0.7,0c-1.6,0-2.8,0.5-3.7,1.4c-0.9,0.9-1.3,2.3-1.3,4
		v7.9h-2.9v-15.9h2.8v2.7C365,317.5,365.7,316.8,366.7,316.3z"/>
	<path class="st5" d="M397.1,309.3v22.3h-2.8v-2.5c-0.6,0.9-1.5,1.5-2.4,2c-1,0.5-2.1,0.7-3.2,0.7c-1.5,0-2.9-0.3-4.1-1
		s-2.2-1.6-2.9-2.9c-0.7-1.2-1-2.6-1-4.2c0-1.6,0.3-3,1-4.2s1.6-2.2,2.9-2.9c1.2-0.7,2.6-1,4.1-1c1.1,0,2.2,0.2,3.2,0.6
		c1,0.4,1.8,1.1,2.4,1.9v-8.8H397.1z M391.6,328.6c0.8-0.5,1.5-1.1,1.9-2c0.5-0.8,0.7-1.8,0.7-2.9c0-1.1-0.2-2.1-0.7-2.9
		s-1.1-1.5-1.9-2s-1.7-0.7-2.7-0.7s-1.9,0.2-2.7,0.7s-1.4,1.1-1.9,2c-0.5,0.9-0.7,1.8-0.7,2.9c0,1.1,0.2,2.1,0.7,2.9
		c0.5,0.9,1.1,1.5,1.9,2s1.7,0.7,2.7,0.7C389.9,329.3,390.8,329,391.6,328.6z"/>
	<path class="st5" d="M402.6,312.1c-0.4-0.4-0.6-0.8-0.6-1.3s0.2-1,0.6-1.3c0.4-0.4,0.8-0.6,1.4-0.6s1,0.2,1.4,0.5s0.6,0.8,0.6,1.3
		s-0.2,1-0.6,1.4c-0.4,0.4-0.8,0.6-1.4,0.6C403.4,312.6,403,312.5,402.6,312.1z M402.6,315.7h2.9v15.9h-2.9V315.7z"/>
	<path class="st5" d="M421.8,317.2c1.2,1.1,1.8,2.7,1.8,4.8v9.6h-2.7v-2.1c-0.5,0.7-1.2,1.3-2.1,1.7c-0.9,0.4-1.9,0.6-3.2,0.6
		c-1.8,0-3.2-0.4-4.3-1.3c-1.1-0.9-1.6-2-1.6-3.4c0-1.4,0.5-2.5,1.5-3.4c1-0.8,2.6-1.3,4.9-1.3h4.6v-0.6c0-1.2-0.4-2.2-1.1-2.9
		c-0.7-0.7-1.8-1-3.2-1c-0.9,0-1.9,0.2-2.8,0.5s-1.7,0.7-2.3,1.2l-1.2-2.2c0.8-0.7,1.8-1.2,2.9-1.5s2.3-0.5,3.6-0.5
		C418.9,315.6,420.6,316.1,421.8,317.2z M418.9,328.8c0.8-0.5,1.4-1.2,1.7-2.1v-2.2h-4.4c-2.4,0-3.7,0.8-3.7,2.5
		c0,0.8,0.3,1.4,0.9,1.9s1.5,0.7,2.6,0.7S418.1,329.3,418.9,328.8z"/>
</g>
<g class="st2">
	<path class="st5" d="M216.4,360.6h-12.9c0.2,1.4,0.8,2.5,1.8,3.4c1.1,0.9,2.4,1.3,3.9,1.3c1.9,0,3.4-0.6,4.6-1.9l1.6,1.9
		c-0.7,0.8-1.6,1.5-2.7,1.9c-1.1,0.4-2.3,0.7-3.6,0.7c-1.7,0-3.2-0.3-4.5-1s-2.3-1.7-3-2.9c-0.7-1.2-1.1-2.6-1.1-4.2
		c0-1.5,0.3-2.9,1-4.2c0.7-1.2,1.6-2.2,2.8-2.9s2.6-1,4.1-1s2.9,0.3,4.1,1c1.2,0.7,2.1,1.7,2.8,2.9c0.7,1.2,1,2.7,1,4.3
		C216.4,360,216.4,360.3,216.4,360.6z M205.1,355.2c-0.9,0.8-1.5,1.9-1.6,3.3h10.2c-0.2-1.3-0.7-2.4-1.6-3.3
		c-0.9-0.9-2.1-1.3-3.5-1.3C207.2,354,206,354.4,205.1,355.2z"/>
	<path class="st5" d="M241.8,353.3c1.2,1.2,1.8,2.9,1.8,5.1v9.2h-2.9v-8.8c0-1.5-0.4-2.7-1.1-3.5s-1.8-1.2-3.2-1.2
		c-1.6,0-2.8,0.5-3.7,1.4c-0.9,0.9-1.4,2.2-1.4,3.9v8.2h-2.9v-22.3h2.9v8.6c0.6-0.8,1.4-1.3,2.4-1.8c1-0.4,2.1-0.6,3.3-0.6
		C239,351.6,240.6,352.1,241.8,353.3z"/>
	<path class="st5" d="M251.5,366.7c-1.3-0.7-2.2-1.7-3-2.9c-0.7-1.2-1.1-2.6-1.1-4.2c0-1.6,0.4-3,1.1-4.2s1.7-2.2,3-2.9
		c1.3-0.7,2.7-1,4.3-1c1.6,0,3,0.3,4.2,1c1.3,0.7,2.2,1.6,2.9,2.9c0.7,1.2,1.1,2.6,1.1,4.2c0,1.6-0.4,3-1.1,4.2s-1.7,2.2-2.9,2.9
		c-1.2,0.7-2.7,1-4.2,1C254.3,367.7,252.8,367.4,251.5,366.7z M258.5,364.6c0.8-0.5,1.4-1.1,1.9-2c0.5-0.8,0.7-1.8,0.7-2.9
		c0-1.1-0.2-2.1-0.7-2.9s-1.1-1.5-1.9-2s-1.7-0.7-2.7-0.7c-1,0-1.9,0.2-2.7,0.7s-1.5,1.1-1.9,2c-0.5,0.9-0.7,1.8-0.7,2.9
		c0,1.1,0.2,2.1,0.7,2.9c0.5,0.9,1.1,1.5,1.9,2s1.7,0.7,2.7,0.7C256.8,365.3,257.7,365,258.5,364.6z"/>
	<path class="st5" d="M273,352.3c1-0.5,2.2-0.7,3.6-0.7v2.8c-0.2,0-0.4,0-0.7,0c-1.6,0-2.8,0.5-3.7,1.4c-0.9,0.9-1.3,2.3-1.3,4v7.9
		H268v-15.9h2.8v2.7C271.3,353.5,272,352.8,273,352.3z"/>
	<path class="st5" d="M290.9,353.2c1.2,1.1,1.8,2.7,1.8,4.8v9.6H290v-2.1c-0.5,0.7-1.2,1.3-2.1,1.7c-0.9,0.4-1.9,0.6-3.2,0.6
		c-1.8,0-3.2-0.4-4.3-1.3c-1.1-0.9-1.6-2-1.6-3.4c0-1.4,0.5-2.5,1.5-3.4c1-0.8,2.6-1.3,4.9-1.3h4.6v-0.6c0-1.2-0.4-2.2-1.1-2.9
		c-0.7-0.7-1.8-1-3.2-1c-0.9,0-1.9,0.2-2.8,0.5s-1.7,0.7-2.3,1.2l-1.2-2.2c0.8-0.7,1.8-1.2,2.9-1.5s2.3-0.5,3.6-0.5
		C288.1,351.6,289.8,352.1,290.9,353.2z M288.1,364.8c0.8-0.5,1.4-1.2,1.7-2.1v-2.2h-4.4c-2.4,0-3.7,0.8-3.7,2.5
		c0,0.8,0.3,1.4,0.9,1.9s1.5,0.7,2.6,0.7S287.3,365.3,288.1,364.8z M287.9,345.5h3.7l-5,3.9h-2.7L287.9,345.5z"/>
	<path class="st5" d="M303,352.3c1-0.5,2.2-0.7,3.6-0.7v2.8c-0.2,0-0.4,0-0.7,0c-1.6,0-2.8,0.5-3.7,1.4c-0.9,0.9-1.3,2.3-1.3,4v7.9
		H298v-15.9h2.8v2.7C301.3,353.5,302,352.8,303,352.3z"/>
	<path class="st5" d="M310.2,348.1c-0.4-0.4-0.6-0.8-0.6-1.3s0.2-1,0.6-1.3c0.4-0.4,0.8-0.6,1.4-0.6s1,0.2,1.4,0.5s0.6,0.8,0.6,1.3
		s-0.2,1-0.6,1.4c-0.4,0.4-0.8,0.6-1.4,0.6C311,348.6,310.5,348.5,310.2,348.1z M310.1,351.7h2.9v15.9h-2.9V351.7z"/>
	<path class="st5" d="M321.1,366.7c-1.3-0.7-2.2-1.7-3-2.9c-0.7-1.2-1.1-2.6-1.1-4.2c0-1.6,0.4-3,1.1-4.2s1.7-2.2,3-2.9
		c1.3-0.7,2.7-1,4.3-1s3,0.3,4.2,1s2.2,1.6,2.9,2.9c0.7,1.2,1.1,2.6,1.1,4.2c0,1.6-0.4,3-1.1,4.2s-1.7,2.2-2.9,2.9
		c-1.3,0.7-2.7,1-4.2,1C323.7,367.8,322.3,367.4,321.1,366.7z M328.1,364.6c0.8-0.5,1.4-1.1,1.9-2c0.5-0.8,0.7-1.8,0.7-2.9
		c0-1.1-0.2-2.1-0.7-2.9s-1.1-1.5-1.9-2s-1.7-0.7-2.7-0.7s-1.9,0.2-2.7,0.7s-1.5,1.1-1.9,2c-0.5,0.9-0.7,1.8-0.7,2.9
		c0,1.1,0.2,2.1,0.7,2.9c0.5,0.9,1.1,1.5,1.9,2s1.7,0.7,2.7,0.7C326.3,365.3,327.2,365,328.1,364.6z"/>
</g>
<g>
	<g>
		<path id="Check_4_" class="st5" d="M79.4,403.6c-0.5-0.5-1.3-0.5-1.9,0L59,422l-8.1-8c-0.5-0.5-1.3-0.5-1.9,0s-0.5,1.3,0,1.8
			l9.1,8.9c0.5,0.5,1.3,0.5,1.9,0l19.5-19.3C79.9,404.9,79.9,404.1,79.4,403.6S79.9,404.1,79.4,403.6z"/>
	</g>
</g>
<rect x="22.5" y="406.3" class="st1" width="489.5" height="37.9"/>
<g class="st2">
	<path class="st5" d="M115,423.4h-11.2l-2.3,5.3h-3.1l9.5-21h3l9.5,21h-3.2L115,423.4z M113.9,421l-4.5-10.3l-4.5,10.3H113.9z"/>
	<path class="st5" d="M135.7,413.6c1.2,0.7,2.2,1.6,2.9,2.8c0.7,1.2,1,2.6,1,4.2c0,1.6-0.3,3-1,4.2s-1.6,2.2-2.9,2.9
		c-1.2,0.7-2.6,1-4.1,1c-1.1,0-2.2-0.2-3.1-0.7c-1-0.4-1.8-1.1-2.4-1.9v8.2h-2.9v-21.7h2.8v2.5c0.6-0.9,1.4-1.5,2.4-2
		c1-0.4,2.1-0.7,3.2-0.7C133.1,412.6,134.5,412.9,135.7,413.6z M134,425.6c0.8-0.5,1.5-1.1,1.9-2c0.5-0.8,0.7-1.8,0.7-2.9
		c0-1.1-0.2-2.1-0.7-2.9s-1.1-1.5-1.9-2c-0.8-0.5-1.7-0.7-2.7-0.7s-1.9,0.2-2.7,0.7s-1.5,1.1-1.9,2c-0.5,0.8-0.7,1.8-0.7,2.9
		c0,1.1,0.2,2.1,0.7,2.9c0.5,0.9,1.1,1.5,1.9,2c0.8,0.5,1.7,0.7,2.7,0.7S133.2,426,134,425.6z"/>
	<path class="st5" d="M148.6,413.3c1-0.5,2.2-0.7,3.6-0.7v2.8c-0.2,0-0.4,0-0.7,0c-1.6,0-2.8,0.5-3.7,1.4c-0.9,0.9-1.3,2.3-1.3,4
		v7.9h-2.9v-15.9h2.8v2.7C146.8,414.5,147.6,413.8,148.6,413.3z"/>
	<path class="st5" d="M169.8,421.6h-12.9c0.2,1.4,0.8,2.5,1.8,3.4c1,0.9,2.4,1.3,3.9,1.3c1.9,0,3.4-0.6,4.6-1.9l1.6,1.9
		c-0.7,0.8-1.6,1.5-2.7,1.9c-1.1,0.4-2.3,0.7-3.6,0.7c-1.7,0-3.2-0.3-4.5-1s-2.3-1.7-3-2.9c-0.7-1.2-1.1-2.6-1.1-4.2
		c0-1.5,0.3-2.9,1-4.2c0.7-1.2,1.6-2.2,2.9-2.9c1.2-0.7,2.6-1,4.1-1s2.9,0.3,4.1,1c1.2,0.7,2.1,1.7,2.8,2.9c0.7,1.2,1,2.7,1,4.3
		C169.9,421,169.9,421.3,169.8,421.6z M158.6,416.2c-0.9,0.8-1.5,1.9-1.6,3.3h10.2c-0.2-1.3-0.7-2.4-1.6-3.3
		c-0.9-0.9-2.1-1.3-3.5-1.3C160.6,415,159.5,415.4,158.6,416.2z"/>
	<path class="st5" d="M174.7,428.3c-1.2-0.3-2.1-0.8-2.8-1.3l1.2-2.3c0.7,0.5,1.5,0.9,2.5,1.2s2,0.5,3,0.5c2.5,0,3.8-0.7,3.8-2.2
		c0-0.5-0.2-0.9-0.5-1.1c-0.3-0.3-0.8-0.5-1.3-0.6c-0.5-0.1-1.2-0.3-2.2-0.4c-1.3-0.2-2.3-0.4-3.1-0.7s-1.5-0.7-2.1-1.3
		c-0.6-0.6-0.9-1.5-0.9-2.6c0-1.4,0.6-2.6,1.8-3.5c1.2-0.9,2.8-1.3,4.8-1.3c1.1,0,2.1,0.1,3.2,0.4c1.1,0.3,1.9,0.6,2.6,1.1l-1.2,2.3
		c-1.3-0.8-2.8-1.3-4.6-1.3c-1.2,0-2.2,0.2-2.8,0.6c-0.6,0.4-1,0.9-1,1.6c0,0.5,0.2,0.9,0.5,1.2c0.4,0.3,0.8,0.5,1.3,0.7
		c0.5,0.1,1.3,0.3,2.2,0.5c1.3,0.2,2.3,0.5,3.1,0.7s1.5,0.7,2,1.3c0.6,0.6,0.8,1.4,0.8,2.5c0,1.4-0.6,2.6-1.8,3.4s-2.9,1.3-5,1.3
		C177.1,428.8,175.9,428.6,174.7,428.3z"/>
	<path class="st5" d="M203.2,421.6h-12.9c0.2,1.4,0.8,2.5,1.8,3.4c1.1,0.9,2.4,1.3,3.9,1.3c1.9,0,3.4-0.6,4.6-1.9l1.6,1.9
		c-0.7,0.8-1.6,1.5-2.7,1.9c-1.1,0.4-2.3,0.7-3.6,0.7c-1.7,0-3.2-0.3-4.5-1s-2.3-1.7-3-2.9c-0.7-1.2-1.1-2.6-1.1-4.2
		c0-1.5,0.3-2.9,1-4.2c0.7-1.2,1.6-2.2,2.8-2.9s2.6-1,4.1-1s2.9,0.3,4.1,1c1.2,0.7,2.1,1.7,2.8,2.9s1,2.7,1,4.3
		C203.3,421,203.3,421.3,203.2,421.6z M191.9,416.2c-0.9,0.8-1.5,1.9-1.6,3.3h10.2c-0.2-1.3-0.7-2.4-1.6-3.3
		c-0.9-0.9-2.1-1.3-3.5-1.3C194,415,192.9,415.4,191.9,416.2z"/>
	<path class="st5" d="M220.6,414.3c1.2,1.2,1.8,2.9,1.8,5.1v9.2h-2.9v-8.8c0-1.5-0.4-2.7-1.1-3.5s-1.8-1.2-3.2-1.2
		c-1.6,0-2.8,0.5-3.7,1.4c-0.9,0.9-1.4,2.2-1.4,3.9v8.2h-2.9v-15.9h2.8v2.4c0.6-0.8,1.4-1.4,2.4-1.9c1-0.4,2.1-0.7,3.4-0.7
		C217.8,412.6,219.4,413.1,220.6,414.3z"/>
	<path class="st5" d="M236.6,427.7c-0.4,0.4-0.9,0.6-1.6,0.8c-0.6,0.2-1.3,0.3-1.9,0.3c-1.6,0-2.8-0.4-3.7-1.3
		c-0.9-0.9-1.3-2.1-1.3-3.7v-8.7h-2.7v-2.4h2.7v-3.5h2.9v3.5h4.6v2.4H231v8.6c0,0.9,0.2,1.5,0.6,2s1,0.7,1.8,0.7
		c0.9,0,1.6-0.3,2.3-0.8L236.6,427.7z"/>
	<path class="st5" d="M253.9,421.6H241c0.2,1.4,0.8,2.5,1.8,3.4c1.1,0.9,2.4,1.3,3.9,1.3c1.9,0,3.4-0.6,4.6-1.9l1.6,1.9
		c-0.7,0.8-1.6,1.5-2.7,1.9c-1.1,0.4-2.3,0.7-3.6,0.7c-1.7,0-3.2-0.3-4.5-1s-2.3-1.7-3-2.9c-0.7-1.2-1.1-2.6-1.1-4.2
		c0-1.5,0.3-2.9,1-4.2c0.7-1.2,1.6-2.2,2.8-2.9c1.2-0.7,2.6-1,4.1-1s2.9,0.3,4.1,1s2.1,1.7,2.8,2.9c0.7,1.2,1,2.7,1,4.3
		C253.9,421,253.9,421.3,253.9,421.6z M242.6,416.2c-0.9,0.8-1.5,1.9-1.6,3.3h10.2c-0.2-1.3-0.7-2.4-1.6-3.3
		c-0.9-0.9-2.1-1.3-3.5-1.3C244.7,415,243.5,415.4,242.6,416.2z"/>
	<path class="st5" d="M266.8,428.3c-1.2-0.3-2.1-0.8-2.8-1.3l1.2-2.3c0.7,0.5,1.5,0.9,2.6,1.2c1,0.3,2,0.5,3,0.5
		c2.5,0,3.8-0.7,3.8-2.2c0-0.5-0.2-0.9-0.5-1.1s-0.8-0.5-1.3-0.6c-0.5-0.1-1.2-0.3-2.2-0.4c-1.3-0.2-2.3-0.4-3.1-0.7
		c-0.8-0.3-1.5-0.7-2.1-1.3c-0.6-0.6-0.9-1.5-0.9-2.6c0-1.4,0.6-2.6,1.8-3.5c1.2-0.9,2.8-1.3,4.8-1.3c1.1,0,2.1,0.1,3.2,0.4
		s1.9,0.6,2.6,1.1l-1.2,2.3c-1.3-0.8-2.8-1.3-4.6-1.3c-1.2,0-2.2,0.2-2.8,0.6c-0.6,0.4-1,0.9-1,1.6c0,0.5,0.2,0.9,0.5,1.2
		c0.4,0.3,0.8,0.5,1.3,0.7c0.5,0.1,1.3,0.3,2.2,0.5c1.3,0.2,2.3,0.5,3.1,0.7s1.5,0.7,2,1.3c0.6,0.6,0.8,1.4,0.8,2.5
		c0,1.4-0.6,2.6-1.8,3.4s-2.9,1.3-5,1.3C269.3,428.8,268,428.6,266.8,428.3z"/>
	<path class="st5" d="M295.3,421.6h-12.9c0.2,1.4,0.8,2.5,1.8,3.4c1,0.9,2.4,1.3,3.9,1.3c1.9,0,3.4-0.6,4.6-1.9l1.6,1.9
		c-0.7,0.8-1.6,1.5-2.7,1.9c-1.1,0.4-2.3,0.7-3.6,0.7c-1.7,0-3.2-0.3-4.5-1s-2.3-1.7-3-2.9c-0.7-1.2-1.1-2.6-1.1-4.2
		c0-1.5,0.3-2.9,1-4.2c0.7-1.2,1.6-2.2,2.9-2.9c1.2-0.7,2.6-1,4.1-1s2.9,0.3,4.1,1s2.1,1.7,2.8,2.9c0.7,1.2,1,2.7,1,4.3
		C295.4,421,295.4,421.3,295.3,421.6z M284.1,416.2c-0.9,0.8-1.5,1.9-1.6,3.3h10.2c-0.2-1.3-0.7-2.4-1.6-3.3
		c-0.9-0.9-2.1-1.3-3.5-1.3C286.2,415,285,415.4,284.1,416.2z"/>
	<path class="st5" d="M314.2,412.7v15.9h-2.7v-2.4c-0.6,0.8-1.3,1.5-2.3,1.9c-0.9,0.4-2,0.7-3.1,0.7c-2.1,0-3.8-0.6-5-1.8
		c-1.2-1.2-1.8-2.9-1.8-5.2v-9.2h2.9v8.8c0,1.5,0.4,2.7,1.1,3.5s1.8,1.2,3.2,1.2c1.5,0,2.7-0.5,3.6-1.4c0.9-0.9,1.3-2.2,1.3-3.9
		v-8.2h2.8V412.7z"/>
	<path class="st5" d="M340.3,413.6c1.2,0.7,2.2,1.6,2.9,2.8c0.7,1.2,1,2.6,1,4.2c0,1.6-0.3,3-1,4.2s-1.6,2.2-2.9,2.9
		c-1.2,0.7-2.6,1-4.1,1c-1.1,0-2.2-0.2-3.1-0.7c-1-0.4-1.8-1.1-2.4-1.9v8.2h-2.9v-21.7h2.8v2.5c0.6-0.9,1.4-1.5,2.4-2
		c1-0.4,2.1-0.7,3.2-0.7C337.7,412.6,339.1,412.9,340.3,413.6z M338.7,425.6c0.8-0.5,1.5-1.1,1.9-2c0.5-0.8,0.7-1.8,0.7-2.9
		c0-1.1-0.2-2.1-0.7-2.9s-1.1-1.5-1.9-2s-1.7-0.7-2.7-0.7s-1.9,0.2-2.7,0.7s-1.5,1.1-1.9,2c-0.5,0.8-0.7,1.8-0.7,2.9
		c0,1.1,0.2,2.1,0.7,2.9c0.5,0.9,1.1,1.5,1.9,2s1.7,0.7,2.7,0.7S337.9,426,338.7,425.6z"/>
	<path class="st5" d="M353.2,413.3c1-0.5,2.2-0.7,3.6-0.7v2.8c-0.2,0-0.4,0-0.7,0c-1.6,0-2.8,0.5-3.7,1.4c-0.9,0.9-1.3,2.3-1.3,4
		v7.9h-2.9v-15.9h2.8v2.7C351.5,414.5,352.2,413.8,353.2,413.3z"/>
	<path class="st5" d="M362.7,427.7c-1.3-0.7-2.2-1.7-3-2.9c-0.7-1.2-1.1-2.6-1.1-4.2c0-1.6,0.4-3,1.1-4.2s1.7-2.2,3-2.9
		c1.3-0.7,2.7-1,4.3-1s3,0.3,4.2,1c1.3,0.7,2.2,1.6,2.9,2.9s1.1,2.6,1.1,4.2c0,1.6-0.4,3-1.1,4.2s-1.7,2.2-2.9,2.9
		c-1.3,0.7-2.7,1-4.2,1C365.4,428.8,364,428.4,362.7,427.7z M369.7,425.6c0.8-0.5,1.4-1.1,1.9-2c0.5-0.8,0.7-1.8,0.7-2.9
		c0-1.1-0.2-2.1-0.7-2.9s-1.1-1.5-1.9-2s-1.7-0.7-2.7-0.7s-1.9,0.2-2.7,0.7s-1.4,1.1-1.9,2c-0.5,0.9-0.7,1.8-0.7,2.9
		c0,1.1,0.2,2.1,0.7,2.9c0.5,0.9,1.1,1.5,1.9,2s1.7,0.7,2.7,0.7S368.9,426,369.7,425.6z"/>
	<path class="st5" d="M375.2,434.4c-0.6-0.2-1.1-0.4-1.5-0.7l0.9-2.2c0.6,0.5,1.4,0.8,2.3,0.8c0.8,0,1.3-0.2,1.8-0.7
		c0.4-0.5,0.6-1.2,0.6-2.1v-16.7h2.9v16.6c0,1.6-0.4,2.9-1.3,3.9c-0.9,0.9-2.1,1.4-3.8,1.4C376.5,434.6,375.8,434.5,375.2,434.4z
		 M379.4,409.1c-0.4-0.4-0.6-0.8-0.6-1.3s0.2-1,0.6-1.3c0.4-0.4,0.8-0.6,1.4-0.6s1,0.2,1.4,0.5s0.6,0.8,0.6,1.3s-0.2,1-0.6,1.4
		c-0.4,0.4-0.8,0.6-1.4,0.6S379.8,409.5,379.4,409.1z"/>
	<path class="st5" d="M402.1,421.6h-12.9c0.2,1.4,0.8,2.5,1.8,3.4c1.1,0.9,2.4,1.3,3.9,1.3c1.9,0,3.4-0.6,4.6-1.9l1.6,1.9
		c-0.7,0.8-1.6,1.5-2.7,1.9c-1.1,0.4-2.3,0.7-3.6,0.7c-1.7,0-3.2-0.3-4.5-1s-2.3-1.7-3-2.9c-0.7-1.2-1.1-2.6-1.1-4.2
		c0-1.5,0.3-2.9,1-4.2c0.7-1.3,1.6-2.2,2.8-2.9c1.2-0.7,2.6-1,4.1-1s2.9,0.3,4.1,1s2.1,1.7,2.8,2.9c0.7,1.2,1,2.7,1,4.3
		C402.1,421,402.1,421.3,402.1,421.6z M390.8,416.2c-0.9,0.8-1.5,1.9-1.6,3.3h10.2c-0.2-1.3-0.7-2.4-1.6-3.3
		c-0.9-0.9-2.1-1.3-3.5-1.3C392.9,415,391.7,415.4,390.8,416.2z"/>
	<path class="st5" d="M415,427.7c-0.4,0.4-0.9,0.6-1.6,0.8c-0.6,0.2-1.3,0.3-1.9,0.3c-1.6,0-2.8-0.4-3.7-1.3
		c-0.9-0.9-1.3-2.1-1.3-3.7v-8.7h-2.7v-2.4h2.7v-3.5h2.9v3.5h4.6v2.4h-4.6v8.6c0,0.9,0.2,1.5,0.6,2s1,0.7,1.8,0.7
		c0.9,0,1.6-0.3,2.3-0.8L415,427.7z"/>
	<path class="st5" d="M420.5,427.7c-1.3-0.7-2.2-1.7-3-2.9c-0.7-1.2-1.1-2.6-1.1-4.2c0-1.6,0.4-3,1.1-4.2s1.7-2.2,3-2.9
		c1.3-0.7,2.7-1,4.3-1s3,0.3,4.2,1s2.2,1.6,2.9,2.9c0.7,1.2,1.1,2.6,1.1,4.2c0,1.6-0.4,3-1.1,4.2s-1.7,2.2-2.9,2.9
		c-1.3,0.7-2.7,1-4.2,1S421.8,428.4,420.5,427.7z M427.5,425.6c0.8-0.5,1.4-1.1,1.9-2c0.5-0.8,0.7-1.8,0.7-2.9
		c0-1.1-0.2-2.1-0.7-2.9s-1.1-1.5-1.9-2s-1.7-0.7-2.7-0.7s-1.9,0.2-2.7,0.7c-0.8,0.5-1.5,1.1-1.9,2c-0.5,0.9-0.7,1.8-0.7,2.9
		c0,1.1,0.2,2.1,0.7,2.9c0.5,0.9,1.1,1.5,1.9,2s1.7,0.7,2.7,0.7S426.7,426,427.5,425.6z"/>
</g>
<g>
	<g>
		<path id="Check_7_" class="st5" d="M79.4,474.6c-0.5-0.5-1.3-0.5-1.9,0L59,493l-8.1-8c-0.5-0.5-1.3-0.5-1.9,0s-0.5,1.3,0,1.8
			l9.1,8.9c0.5,0.5,1.3,0.5,1.9,0l19.5-19.3C79.9,475.9,79.9,475.1,79.4,474.6S79.9,475.1,79.4,474.6z"/>
	</g>
</g>
<rect x="22.5" y="477.3" class="st1" width="489.5" height="37.9"/>
<g class="st2">
	<path class="st5" d="M134.6,497v2.6h-15.2v-21h14.8v2.6h-11.8v6.4h10.5v2.6h-10.5v6.8L134.6,497L134.6,497z"/>
	<path class="st5" d="M139.6,499.3c-1.2-0.3-2.1-0.8-2.8-1.3l1.2-2.3c0.7,0.5,1.5,0.9,2.6,1.2c1,0.3,2,0.5,3,0.5
		c2.5,0,3.8-0.7,3.8-2.2c0-0.5-0.2-0.9-0.5-1.1s-0.8-0.5-1.3-0.6s-1.2-0.3-2.2-0.4c-1.3-0.2-2.3-0.4-3.1-0.7s-1.5-0.7-2.1-1.3
		s-0.9-1.5-0.9-2.6c0-1.4,0.6-2.6,1.8-3.5c1.2-0.9,2.8-1.3,4.8-1.3c1.1,0,2.1,0.1,3.2,0.4c1.1,0.3,1.9,0.6,2.6,1.1l-1.2,2.3
		c-1.3-0.8-2.8-1.3-4.6-1.3c-1.2,0-2.2,0.2-2.8,0.6c-0.6,0.4-1,0.9-1,1.6c0,0.5,0.2,0.9,0.5,1.2c0.4,0.3,0.8,0.5,1.3,0.7
		c0.5,0.1,1.3,0.3,2.2,0.5c1.3,0.2,2.3,0.5,3.1,0.7s1.5,0.7,2,1.3c0.6,0.6,0.8,1.4,0.8,2.5c0,1.4-0.6,2.6-1.8,3.4
		c-1.2,0.8-2.9,1.3-5,1.3C142.1,499.8,140.8,499.6,139.6,499.3z"/>
	<path class="st5" d="M156.4,498.7c-1.3-0.7-2.3-1.7-3-2.9s-1.1-2.6-1.1-4.2s0.4-3,1.1-4.2c0.7-1.2,1.7-2.2,3-2.9s2.7-1,4.3-1
		c1.4,0,2.7,0.3,3.9,0.9c1.1,0.6,2,1.4,2.6,2.5l-2.2,1.4c-0.5-0.8-1.1-1.3-1.9-1.7c-0.7-0.4-1.6-0.6-2.5-0.6c-1,0-2,0.2-2.8,0.7
		s-1.5,1.1-2,2s-0.7,1.8-0.7,2.9c0,1.1,0.2,2.1,0.7,3c0.5,0.8,1.1,1.5,2,2c0.8,0.5,1.8,0.7,2.8,0.7c0.9,0,1.7-0.2,2.5-0.6
		c0.7-0.4,1.4-0.9,1.9-1.7l2.2,1.4c-0.6,1.1-1.5,1.9-2.6,2.5s-2.4,0.9-3.9,0.9C159.1,499.8,157.7,499.4,156.4,498.7z"/>
	<path class="st5" d="M173.3,498.7c-1.3-0.7-2.2-1.7-3-2.9c-0.7-1.2-1.1-2.6-1.1-4.2s0.4-3,1.1-4.2s1.7-2.2,3-2.9s2.7-1,4.3-1
		s3,0.3,4.2,1c1.3,0.7,2.2,1.6,2.9,2.9s1.1,2.6,1.1,4.2s-0.4,3-1.1,4.2c-0.7,1.2-1.7,2.2-2.9,2.9c-1.3,0.7-2.7,1-4.2,1
		C176,499.8,174.5,499.4,173.3,498.7z M180.3,496.6c0.8-0.5,1.4-1.1,1.9-2c0.5-0.8,0.7-1.8,0.7-2.9s-0.2-2.1-0.7-2.9
		c-0.5-0.8-1.1-1.5-1.9-2c-0.8-0.5-1.7-0.7-2.7-0.7s-1.9,0.2-2.7,0.7s-1.5,1.1-1.9,2c-0.5,0.9-0.7,1.8-0.7,2.9s0.2,2.1,0.7,2.9
		c0.5,0.9,1.1,1.5,1.9,2c0.8,0.5,1.7,0.7,2.7,0.7S179.5,497,180.3,496.6z"/>
	<path class="st5" d="M189.8,477.3h2.9v22.3h-2.9V477.3z"/>
	<path class="st5" d="M211.4,485.3c1.2,1.2,1.8,2.9,1.8,5.1v9.2h-2.9v-8.8c0-1.5-0.4-2.7-1.1-3.5c-0.7-0.8-1.8-1.2-3.2-1.2
		c-1.6,0-2.8,0.5-3.7,1.4s-1.3,2.2-1.3,3.9v8.2h-2.9v-22.3h2.9v8.6c0.6-0.8,1.4-1.3,2.4-1.8c1-0.4,2.1-0.6,3.3-0.6
		C208.7,483.6,210.3,484.1,211.4,485.3z"/>
	<path class="st5" d="M229.4,485.2c1.2,1.1,1.8,2.7,1.8,4.8v9.6h-2.7v-2.1c-0.5,0.7-1.2,1.3-2.1,1.7s-1.9,0.6-3.2,0.6
		c-1.8,0-3.2-0.4-4.3-1.3c-1.1-0.9-1.6-2-1.6-3.4s0.5-2.5,1.5-3.4c1-0.8,2.6-1.3,4.9-1.3h4.6v-0.6c0-1.2-0.4-2.2-1.1-2.9
		c-0.7-0.7-1.8-1-3.2-1c-0.9,0-1.9,0.2-2.8,0.5s-1.7,0.7-2.3,1.2l-1.2-2.2c0.8-0.7,1.8-1.2,2.9-1.5s2.3-0.5,3.6-0.5
		C226.6,483.6,228.2,484.1,229.4,485.2z M226.6,496.8c0.8-0.5,1.4-1.2,1.7-2.1v-2.2h-4.4c-2.4,0-3.7,0.8-3.7,2.5
		c0,0.8,0.3,1.4,0.9,1.9s1.5,0.7,2.6,0.7S225.8,497.3,226.6,496.8z"/>
	<path class="st5" d="M245.4,499.3c-1.2-0.3-2.1-0.8-2.8-1.3l1.2-2.3c0.7,0.5,1.5,0.9,2.6,1.2c1,0.3,2,0.5,3,0.5
		c2.5,0,3.8-0.7,3.8-2.2c0-0.5-0.2-0.9-0.5-1.1s-0.8-0.5-1.3-0.6s-1.2-0.3-2.2-0.4c-1.3-0.2-2.3-0.4-3.1-0.7s-1.5-0.7-2.1-1.3
		s-0.9-1.5-0.9-2.6c0-1.4,0.6-2.6,1.8-3.5c1.2-0.9,2.8-1.3,4.8-1.3c1.1,0,2.1,0.1,3.2,0.4s1.9,0.6,2.6,1.1l-1.2,2.3
		c-1.3-0.8-2.8-1.3-4.6-1.3c-1.2,0-2.2,0.2-2.8,0.6c-0.6,0.4-1,0.9-1,1.6c0,0.5,0.2,0.9,0.5,1.2c0.4,0.3,0.8,0.5,1.3,0.7
		c0.5,0.1,1.3,0.3,2.2,0.5c1.3,0.2,2.3,0.5,3.1,0.7s1.5,0.7,2,1.3c0.6,0.6,0.8,1.4,0.8,2.5c0,1.4-0.6,2.6-1.8,3.4
		c-1.2,0.8-2.9,1.3-5,1.3C247.8,499.8,246.6,499.6,245.4,499.3z"/>
	<path class="st5" d="M273.9,492.6H261c0.2,1.4,0.8,2.5,1.8,3.4s2.4,1.3,3.9,1.3c1.9,0,3.4-0.6,4.6-1.9l1.6,1.9
		c-0.7,0.8-1.6,1.5-2.7,1.9s-2.3,0.7-3.6,0.7c-1.7,0-3.2-0.3-4.5-1s-2.3-1.7-3-2.9s-1.1-2.6-1.1-4.2c0-1.5,0.3-2.9,1-4.2
		c0.7-1.2,1.6-2.2,2.9-2.9c1.2-0.7,2.6-1,4.1-1s2.9,0.3,4.1,1s2.1,1.7,2.8,2.9c0.7,1.2,1,2.7,1,4.3C274,492,274,492.3,273.9,492.6z
		 M262.7,487.2c-0.9,0.8-1.5,1.9-1.6,3.3h10.2c-0.2-1.3-0.7-2.4-1.6-3.3c-0.9-0.9-2.1-1.3-3.5-1.3
		C264.7,486,263.6,486.4,262.7,487.2z"/>
	<path class="st5" d="M292.8,483.7v15.9h-2.7v-2.4c-0.6,0.8-1.3,1.5-2.3,1.9c-0.9,0.4-2,0.7-3.1,0.7c-2.1,0-3.8-0.6-5-1.8
		s-1.8-2.9-1.8-5.2v-9.2h2.9v8.8c0,1.5,0.4,2.7,1.1,3.5s1.8,1.2,3.2,1.2c1.5,0,2.7-0.5,3.6-1.4s1.3-2.2,1.3-3.9v-8.2h2.8V483.7z"/>
	<path class="st5" d="M331,485.3c1.2,1.2,1.8,2.9,1.8,5.2v9.2h-2.9v-8.8c0-1.5-0.4-2.7-1.1-3.5s-1.7-1.2-3-1.2
		c-1.5,0-2.6,0.5-3.5,1.4s-1.3,2.2-1.3,3.9v8.2h-2.9v-8.8c0-1.5-0.4-2.7-1.1-3.5s-1.7-1.2-3-1.2c-1.5,0-2.6,0.5-3.5,1.4
		s-1.3,2.2-1.3,3.9v8.2h-2.9v-15.9h2.8v2.4c0.6-0.8,1.3-1.4,2.3-1.9c0.9-0.4,2-0.6,3.2-0.6s2.3,0.3,3.3,0.8s1.7,1.2,2.2,2.2
		c0.6-0.9,1.4-1.6,2.5-2.2c1.1-0.5,2.3-0.8,3.6-0.8C328.2,483.6,329.8,484.1,331,485.3z"/>
	<path class="st5" d="M352.5,492.6h-12.9c0.2,1.4,0.8,2.5,1.8,3.4s2.4,1.3,3.9,1.3c1.9,0,3.4-0.6,4.6-1.9l1.6,1.9
		c-0.7,0.8-1.6,1.5-2.7,1.9s-2.3,0.7-3.6,0.7c-1.7,0-3.2-0.3-4.5-1s-2.3-1.7-3-2.9s-1.1-2.6-1.1-4.2c0-1.5,0.3-2.9,1-4.2
		c0.7-1.2,1.6-2.2,2.9-2.9c1.2-0.7,2.6-1,4.1-1s2.9,0.3,4.1,1s2.1,1.7,2.8,2.9c0.7,1.2,1,2.7,1,4.3
		C352.5,492,352.5,492.3,352.5,492.6z M341.2,487.2c-0.9,0.8-1.5,1.9-1.6,3.3h10.2c-0.2-1.3-0.7-2.4-1.6-3.3
		c-0.9-0.9-2.1-1.3-3.5-1.3C343.3,486,342.1,486.4,341.2,487.2z"/>
	<path class="st5" d="M369.8,485.3c1.2,1.2,1.8,2.9,1.8,5.1v9.2h-2.9v-8.8c0-1.5-0.4-2.7-1.1-3.5s-1.8-1.2-3.2-1.2
		c-1.6,0-2.8,0.5-3.7,1.4s-1.3,2.2-1.3,3.9v8.2h-2.9v-15.9h2.8v2.4c0.6-0.8,1.4-1.4,2.4-1.9c1-0.4,2.1-0.7,3.4-0.7
		C367,483.6,368.6,484.1,369.8,485.3z"/>
	<path class="st5" d="M385.9,498.7c-0.4,0.4-0.9,0.6-1.6,0.8c-0.6,0.2-1.3,0.3-1.9,0.3c-1.6,0-2.8-0.4-3.7-1.3s-1.3-2.1-1.3-3.7
		v-8.7h-2.7v-2.4h2.7v-3.5h2.9v3.5h4.6v2.4h-4.6v8.6c0,0.9,0.2,1.5,0.6,2s1,0.7,1.8,0.7c0.9,0,1.6-0.3,2.3-0.8L385.9,498.7z"/>
	<path class="st5" d="M391.4,498.7c-1.3-0.7-2.2-1.7-3-2.9c-0.7-1.2-1.1-2.6-1.1-4.2s0.4-3,1.1-4.2s1.7-2.2,3-2.9s2.7-1,4.3-1
		s3,0.3,4.2,1c1.3,0.7,2.2,1.6,2.9,2.9s1.1,2.6,1.1,4.2s-0.4,3-1.1,4.2s-1.7,2.2-2.9,2.9c-1.3,0.7-2.7,1-4.2,1
		C394.1,499.8,392.6,499.4,391.4,498.7z M398.4,496.6c0.8-0.5,1.4-1.1,1.9-2c0.5-0.8,0.7-1.8,0.7-2.9s-0.2-2.1-0.7-2.9
		c-0.5-0.8-1.1-1.5-1.9-2s-1.7-0.7-2.7-0.7s-1.9,0.2-2.7,0.7s-1.4,1.1-1.9,2s-0.7,1.8-0.7,2.9s0.2,2.1,0.7,2.9
		c0.5,0.9,1.1,1.5,1.9,2s1.7,0.7,2.7,0.7C396.7,497.3,397.6,497,398.4,496.6z"/>
	<path class="st5" d="M412.9,484.3c1-0.5,2.2-0.7,3.6-0.7v2.8c-0.2,0-0.4,0-0.7,0c-1.6,0-2.8,0.5-3.7,1.4c-0.9,0.9-1.3,2.3-1.3,4
		v7.9h-2.9v-15.9h2.8v2.7C411.1,485.5,411.9,484.8,412.9,484.3z"/>
</g>
<g>
	<g>
		<path id="Check_8_" class="st5" d="M79.4,548.6c-0.5-0.5-1.3-0.5-1.9,0L59,567l-8.1-8c-0.5-0.5-1.3-0.5-1.9,0
			c-0.5,0.5-0.5,1.3,0,1.8l9.1,8.9c0.5,0.5,1.3,0.5,1.9,0l19.5-19.3C79.9,549.9,79.9,549.1,79.4,548.6S79.9,549.1,79.4,548.6z"/>
	</g>
</g>
<rect x="22.5" y="551.3" class="st1" width="489.5" height="80.9"/>
<g class="st2">
	<path class="st5" d="M159.7,573.6l-4.5-6.5c-0.6,0-1,0.1-1.3,0.1h-5.2v6.4h-3v-21h8.2c2.7,0,4.9,0.7,6.4,2c1.6,1.3,2.3,3.1,2.3,5.4
		c0,1.6-0.4,3-1.2,4.1s-1.9,2-3.4,2.5l5,7H159.7z M158.1,563.4c1-0.8,1.5-2,1.5-3.5s-0.5-2.7-1.5-3.5s-2.4-1.2-4.3-1.2h-5.1v9.4h5.1
		C155.6,564.7,157.1,564.3,158.1,563.4z"/>
	<path class="st5" d="M181.3,566.6h-12.9c0.2,1.4,0.8,2.5,1.8,3.4s2.4,1.3,3.9,1.3c1.9,0,3.4-0.6,4.6-1.9l1.6,1.9
		c-0.7,0.8-1.6,1.5-2.7,1.9c-1.1,0.4-2.3,0.7-3.6,0.7c-1.7,0-3.2-0.3-4.5-1s-2.3-1.7-3-2.9s-1.1-2.6-1.1-4.2c0-1.5,0.3-2.9,1-4.2
		c0.7-1.2,1.6-2.2,2.9-2.9c1.2-0.7,2.6-1,4.1-1s2.9,0.3,4.1,1c1.2,0.7,2.1,1.7,2.8,2.9s1,2.7,1,4.3
		C181.4,566,181.4,566.3,181.3,566.6z M170.1,561.2c-0.9,0.8-1.5,1.9-1.6,3.3h10.2c-0.2-1.3-0.7-2.4-1.6-3.3
		c-0.9-0.9-2.1-1.3-3.5-1.3S171,560.4,170.1,561.2z"/>
	<path class="st5" d="M188,572.7c-1.3-0.7-2.3-1.7-3-2.9s-1.1-2.6-1.1-4.2c0-1.6,0.4-3,1.1-4.2c0.7-1.2,1.7-2.2,3-2.9s2.7-1,4.3-1
		c1.4,0,2.7,0.3,3.9,0.9c1.1,0.6,2,1.4,2.6,2.5l-2.2,1.4c-0.5-0.8-1.1-1.3-1.9-1.7s-1.6-0.6-2.5-0.6c-1,0-2,0.2-2.8,0.7
		s-1.5,1.1-2,2s-0.7,1.8-0.7,2.9c0,1.1,0.2,2.1,0.7,3s1.1,1.5,2,2c0.8,0.5,1.8,0.7,2.8,0.7c0.9,0,1.7-0.2,2.5-0.6s1.4-0.9,1.9-1.7
		l2.2,1.4c-0.6,1.1-1.5,1.9-2.6,2.5s-2.4,0.9-3.9,0.9C190.7,573.8,189.3,573.4,188,572.7z"/>
	<path class="st5" d="M216.6,566.6h-12.9c0.2,1.4,0.8,2.5,1.8,3.4s2.4,1.3,3.9,1.3c1.9,0,3.4-0.6,4.6-1.9l1.6,1.9
		c-0.7,0.8-1.6,1.5-2.7,1.9c-1.1,0.4-2.3,0.7-3.6,0.7c-1.7,0-3.2-0.3-4.5-1s-2.3-1.7-3-2.9s-1.1-2.6-1.1-4.2c0-1.5,0.3-2.9,1-4.2
		c0.7-1.2,1.6-2.2,2.9-2.9c1.2-0.7,2.6-1,4.1-1s2.9,0.3,4.1,1c1.2,0.7,2.1,1.7,2.8,2.9s1,2.7,1,4.3
		C216.7,566,216.6,566.3,216.6,566.6z M205.3,561.2c-0.9,0.8-1.5,1.9-1.6,3.3h10.2c-0.2-1.3-0.7-2.4-1.6-3.3
		c-0.9-0.9-2.1-1.3-3.5-1.3S206.3,560.4,205.3,561.2z"/>
	<path class="st5" d="M233.2,558.6c1.2,0.7,2.2,1.6,2.9,2.9s1,2.6,1,4.2c0,1.6-0.3,3-1,4.2s-1.6,2.2-2.9,2.9s-2.6,1-4.1,1
		c-1.2,0-2.3-0.2-3.2-0.7s-1.8-1.1-2.4-2v2.5h-2.8v-22.3h2.9v8.8c0.6-0.8,1.4-1.5,2.4-1.9s2-0.6,3.2-0.6
		C230.6,557.6,232,557.9,233.2,558.6z M231.6,570.6c0.8-0.5,1.5-1.1,1.9-2c0.5-0.8,0.7-1.8,0.7-2.9c0-1.1-0.2-2.1-0.7-2.9
		c-0.5-0.8-1.1-1.5-1.9-2s-1.7-0.7-2.7-0.7s-1.9,0.2-2.7,0.7s-1.5,1.1-1.9,2c-0.5,0.9-0.7,1.8-0.7,2.9c0,1.1,0.2,2.1,0.7,2.9
		c0.5,0.9,1.1,1.5,1.9,2s1.7,0.7,2.7,0.7C229.9,571.3,230.8,571,231.6,570.6z"/>
	<path class="st5" d="M251.8,559.2c1.2,1.1,1.8,2.7,1.8,4.8v9.6h-2.7v-2.1c-0.5,0.7-1.2,1.3-2.1,1.7s-1.9,0.6-3.2,0.6
		c-1.8,0-3.2-0.4-4.3-1.3c-1.1-0.9-1.6-2-1.6-3.4s0.5-2.5,1.5-3.4c1-0.8,2.6-1.3,4.9-1.3h4.6v-0.6c0-1.2-0.4-2.2-1.1-2.9
		s-1.8-1-3.2-1c-0.9,0-1.9,0.2-2.8,0.5s-1.7,0.7-2.3,1.2l-1.2-2.2c0.8-0.7,1.8-1.2,2.9-1.5s2.3-0.5,3.6-0.5
		C248.9,557.6,250.6,558.1,251.8,559.2z M248.9,570.8c0.8-0.5,1.4-1.2,1.7-2.1v-2.2h-4.4c-2.4,0-3.7,0.8-3.7,2.5
		c0,0.8,0.3,1.4,0.9,1.9s1.5,0.7,2.6,0.7S248.1,571.3,248.9,570.8z"/>
	<path class="st5" d="M291.6,559.3c1.2,1.2,1.8,2.9,1.8,5.2v9.2h-2.9v-8.8c0-1.5-0.4-2.7-1.1-3.5s-1.7-1.2-3-1.2
		c-1.5,0-2.6,0.5-3.5,1.4s-1.3,2.2-1.3,3.9v8.2h-2.9v-8.8c0-1.5-0.4-2.7-1.1-3.5s-1.7-1.2-3-1.2c-1.5,0-2.6,0.5-3.5,1.4
		s-1.3,2.2-1.3,3.9v8.2H267v-15.9h2.8v2.4c0.6-0.8,1.3-1.4,2.3-1.9c0.9-0.4,2-0.6,3.2-0.6s2.3,0.3,3.3,0.8s1.7,1.2,2.2,2.2
		c0.6-0.9,1.4-1.6,2.5-2.2c1.1-0.5,2.3-0.8,3.6-0.8C288.9,557.6,290.4,558.1,291.6,559.3z"/>
	<path class="st5" d="M309.5,559.2c1.2,1.1,1.8,2.7,1.8,4.8v9.6h-2.7v-2.1c-0.5,0.7-1.2,1.3-2.1,1.7s-1.9,0.6-3.2,0.6
		c-1.8,0-3.2-0.4-4.3-1.3c-1.1-0.9-1.6-2-1.6-3.4s0.5-2.5,1.5-3.4c1-0.8,2.6-1.3,4.9-1.3h4.6v-0.6c0-1.2-0.4-2.2-1.1-2.9
		s-1.8-1-3.2-1c-0.9,0-1.9,0.2-2.8,0.5s-1.7,0.7-2.3,1.2l-1.2-2.2c0.8-0.7,1.8-1.2,2.9-1.5s2.3-0.5,3.6-0.5
		C306.7,557.6,308.3,558.1,309.5,559.2z M306.7,570.8c0.8-0.5,1.4-1.2,1.7-2.1v-2.2H304c-2.4,0-3.7,0.8-3.7,2.5
		c0,0.8,0.3,1.4,0.9,1.9s1.5,0.7,2.6,0.7S305.9,571.3,306.7,570.8z"/>
	<path class="st5" d="M325.6,572.7c-0.4,0.4-0.9,0.6-1.6,0.8c-0.6,0.2-1.3,0.3-1.9,0.3c-1.6,0-2.8-0.4-3.7-1.3
		c-0.9-0.9-1.3-2.1-1.3-3.7v-8.7h-2.7v-2.4h2.7v-3.5h2.9v3.5h4.6v2.4H320v8.6c0,0.9,0.2,1.5,0.6,2s1,0.7,1.8,0.7
		c0.9,0,1.6-0.3,2.3-0.8L325.6,572.7z"/>
	<path class="st5" d="M342.8,566.6h-12.9c0.2,1.4,0.8,2.5,1.8,3.4c1.1,0.9,2.4,1.3,3.9,1.3c1.9,0,3.4-0.6,4.6-1.9l1.6,1.9
		c-0.7,0.8-1.6,1.5-2.7,1.9s-2.3,0.7-3.6,0.7c-1.7,0-3.2-0.3-4.5-1s-2.3-1.7-3-2.9s-1.1-2.6-1.1-4.2c0-1.5,0.3-2.9,1-4.2
		c0.7-1.2,1.6-2.2,2.8-2.9s2.6-1,4.1-1s2.9,0.3,4.1,1s2.1,1.7,2.8,2.9s1,2.7,1,4.3C342.9,566,342.8,566.3,342.8,566.6z M331.5,561.2
		c-0.9,0.8-1.5,1.9-1.6,3.3h10.2c-0.2-1.3-0.7-2.4-1.6-3.3c-0.9-0.9-2.1-1.3-3.5-1.3C333.6,560,332.5,560.4,331.5,561.2z"/>
	<path class="st5" d="M351.8,558.3c1-0.5,2.2-0.7,3.6-0.7v2.8c-0.2,0-0.4,0-0.7,0c-1.6,0-2.8,0.5-3.7,1.4s-1.3,2.3-1.3,4v7.9h-2.9
		v-15.9h2.8v2.7C350.1,559.5,350.9,558.8,351.8,558.3z"/>
	<path class="st5" d="M359,554.1c-0.4-0.4-0.6-0.8-0.6-1.3s0.2-1,0.6-1.3c0.4-0.4,0.8-0.6,1.4-0.6s1,0.2,1.4,0.5s0.6,0.8,0.6,1.3
		s-0.2,1-0.6,1.4s-0.8,0.6-1.4,0.6C359.8,554.6,359.4,554.5,359,554.1z M358.9,557.7h2.9v15.9h-2.9V557.7z"/>
	<path class="st5" d="M378.2,559.2c1.2,1.1,1.8,2.7,1.8,4.8v9.6h-2.7v-2.1c-0.5,0.7-1.2,1.3-2.1,1.7s-1.9,0.6-3.2,0.6
		c-1.8,0-3.2-0.4-4.3-1.3c-1.1-0.9-1.6-2-1.6-3.4s0.5-2.5,1.5-3.4c1-0.8,2.6-1.3,4.9-1.3h4.6v-0.6c0-1.2-0.4-2.2-1.1-2.9
		s-1.8-1-3.2-1c-0.9,0-1.9,0.2-2.8,0.5s-1.7,0.7-2.3,1.2l-1.2-2.2c0.8-0.7,1.8-1.2,2.9-1.5s2.3-0.5,3.6-0.5
		C375.3,557.6,377,558.1,378.2,559.2z M375.3,570.8c0.8-0.5,1.4-1.2,1.7-2.1v-2.2h-4.4c-2.4,0-3.7,0.8-3.7,2.5
		c0,0.8,0.3,1.4,0.9,1.9s1.5,0.7,2.6,0.7S374.5,571.3,375.3,570.8z"/>
	<path class="st5" d="M385.3,551.3h2.9v22.3h-2.9V551.3z"/>
</g>
<g class="st2">
	<path class="st5" d="M214.3,602.6h-12.9c0.2,1.4,0.8,2.5,1.8,3.4s2.4,1.3,3.9,1.3c1.9,0,3.4-0.6,4.6-1.9l1.6,1.9
		c-0.7,0.8-1.6,1.5-2.7,1.9c-1.1,0.4-2.3,0.7-3.6,0.7c-1.7,0-3.2-0.3-4.5-1s-2.3-1.7-3-2.9s-1.1-2.6-1.1-4.2c0-1.5,0.3-2.9,1-4.2
		c0.7-1.2,1.6-2.2,2.9-2.9c1.2-0.7,2.6-1,4.1-1s2.9,0.3,4.1,1c1.2,0.7,2.1,1.7,2.8,2.9s1,2.7,1,4.3
		C214.4,602,214.4,602.3,214.3,602.6z M203.1,597.2c-0.9,0.8-1.5,1.9-1.6,3.3h10.2c-0.2-1.3-0.7-2.4-1.6-3.3
		c-0.9-0.9-2.1-1.3-3.5-1.3S204,596.4,203.1,597.2z"/>
	<path class="st5" d="M228.1,609.6l-4.6-6.1l-4.7,6.1h-3.2l6.3-8.1l-6-7.8h3.2l4.4,5.7l4.3-5.7h3.2l-6,7.8l6.3,8.1H228.1z"/>
	<path class="st5" d="M236.5,608.7c-1.3-0.7-2.3-1.7-3-2.9s-1.1-2.6-1.1-4.2c0-1.6,0.4-3,1.1-4.2s1.7-2.2,3-2.9s2.7-1,4.3-1
		c1.4,0,2.7,0.3,3.9,0.9c1.1,0.6,2,1.4,2.6,2.5l-2.2,1.4c-0.5-0.8-1.1-1.3-1.9-1.7s-1.6-0.6-2.5-0.6c-1,0-2,0.2-2.8,0.7
		s-1.5,1.1-2,2s-0.7,1.8-0.7,2.9c0,1.1,0.2,2.1,0.7,3s1.1,1.5,2,2c0.8,0.5,1.8,0.7,2.8,0.7c0.9,0,1.7-0.2,2.5-0.6s1.4-0.9,1.9-1.7
		l2.2,1.4c-0.6,1.1-1.5,1.9-2.6,2.5s-2.4,0.9-3.9,0.9C239.3,609.8,237.8,609.4,236.5,608.7z"/>
	<path class="st5" d="M250.9,587.3h2.9v22.3h-2.9V587.3z"/>
	<path class="st5" d="M274.1,593.7v15.9h-2.7v-2.4c-0.6,0.8-1.3,1.5-2.3,1.9c-1,0.5-2,0.7-3.1,0.7c-2.1,0-3.8-0.6-5-1.8
		s-1.8-2.9-1.8-5.2v-9.2h2.9v8.8c0,1.5,0.4,2.7,1.1,3.5s1.8,1.2,3.2,1.2c1.5,0,2.7-0.5,3.6-1.4s1.3-2.2,1.3-3.9v-8.2h2.8V593.7z"/>
	<path class="st5" d="M280.4,609.3c-1.2-0.3-2.1-0.8-2.8-1.3l1.2-2.3c0.7,0.5,1.5,0.9,2.5,1.2s2,0.5,3,0.5c2.5,0,3.8-0.7,3.8-2.2
		c0-0.5-0.2-0.9-0.5-1.1c-0.3-0.3-0.8-0.5-1.3-0.6s-1.2-0.3-2.2-0.4c-1.3-0.2-2.3-0.4-3.1-0.7s-1.5-0.7-2.1-1.3s-0.9-1.5-0.9-2.6
		c0-1.4,0.6-2.6,1.8-3.5s2.8-1.3,4.8-1.3c1.1,0,2.1,0.1,3.2,0.4c1.1,0.3,1.9,0.6,2.6,1l-1.2,2.3c-1.3-0.8-2.8-1.3-4.6-1.3
		c-1.2,0-2.2,0.2-2.8,0.6c-0.6,0.4-1,0.9-1,1.6c0,0.5,0.2,0.9,0.5,1.2c0.4,0.3,0.8,0.5,1.3,0.7c0.5,0.1,1.3,0.3,2.2,0.5
		c1.3,0.2,2.3,0.5,3.1,0.7c0.8,0.3,1.5,0.7,2,1.3c0.6,0.6,0.8,1.4,0.8,2.5c0,1.4-0.6,2.6-1.8,3.4c-1.2,0.8-2.9,1.3-5,1.3
		C282.8,609.8,281.6,609.6,280.4,609.3z"/>
	<path class="st5" d="M294.6,590.1c-0.4-0.4-0.6-0.8-0.6-1.3s0.2-1,0.6-1.3c0.4-0.4,0.8-0.6,1.4-0.6s1,0.2,1.4,0.5s0.6,0.8,0.6,1.3
		s-0.2,1-0.6,1.4s-0.8,0.6-1.4,0.6S295,590.5,294.6,590.1z M294.6,593.7h2.9v15.9h-2.9V593.7z"/>
	<path class="st5" d="M317,593.7l-7,15.9h-2.9l-7-15.9h3l5.5,12.8l5.6-12.8H317z"/>
	<path class="st5" d="M321.8,608.7c-1.3-0.7-2.2-1.7-3-2.9c-0.7-1.2-1.1-2.6-1.1-4.2c0-1.6,0.4-3,1.1-4.2s1.7-2.2,3-2.9s2.7-1,4.3-1
		s3,0.3,4.2,1c1.3,0.7,2.2,1.6,2.9,2.9c0.7,1.2,1.1,2.6,1.1,4.2c0,1.6-0.4,3-1.1,4.2s-1.7,2.2-2.9,2.9s-2.7,1-4.2,1
		S323.1,609.4,321.8,608.7z M328.8,606.6c0.8-0.5,1.4-1.1,1.9-2c0.5-0.8,0.7-1.8,0.7-2.9c0-1.1-0.2-2.1-0.7-2.9
		c-0.5-0.8-1.1-1.5-1.9-2s-1.7-0.7-2.7-0.7s-1.9,0.2-2.7,0.7s-1.5,1.1-1.9,2c-0.5,0.9-0.7,1.8-0.7,2.9c0,1.1,0.2,2.1,0.7,2.9
		c0.5,0.9,1.1,1.5,1.9,2s1.7,0.7,2.7,0.7C327.1,607.3,328,607,328.8,606.6z"/>
</g>
<g>
	<path class="st3" d="M196.3,694.6h3.2v14h-3.2V694.6z"/>
	<path class="st3" d="M215.7,694.6v14H213l-7-8.5v8.5h-3.2v-14h2.7l7,8.5v-8.5H215.7z"/>
	<path class="st3" d="M232.4,694.6l-6.1,14h-3.2l-6-14h3.5l4.3,10l4.3-10H232.4z"/>
	<path class="st3" d="M244.4,706v2.6h-10.8v-14h10.6v2.6h-7.4v3h6.5v2.5h-6.5v3.2h7.6L244.4,706L244.4,706z"/>
	<path class="st3" d="M248.4,708.4c-1-0.3-1.9-0.7-2.5-1.2l1.1-2.4c0.6,0.4,1.3,0.8,2.1,1.1s1.7,0.4,2.5,0.4c0.9,0,1.6-0.1,2-0.4
		c0.4-0.3,0.7-0.6,0.7-1.1c0-0.3-0.1-0.6-0.4-0.8s-0.6-0.4-1-0.5s-1-0.3-1.7-0.4c-1.1-0.3-1.9-0.5-2.6-0.8s-1.3-0.7-1.8-1.2
		c-0.5-0.6-0.7-1.3-0.7-2.2c0-0.8,0.2-1.5,0.7-2.2c0.4-0.7,1.1-1.2,2-1.6c0.9-0.4,2-0.6,3.3-0.6c0.9,0,1.8,0.1,2.6,0.3
		s1.6,0.5,2.2,0.9l-1,2.5c-1.3-0.7-2.6-1.1-3.9-1.1c-0.9,0-1.6,0.1-2,0.4c-0.4,0.3-0.7,0.7-0.7,1.2s0.3,0.8,0.8,1.1s1.3,0.5,2.3,0.7
		c1.1,0.3,1.9,0.5,2.6,0.8s1.3,0.7,1.8,1.2s0.7,1.3,0.7,2.2c0,0.8-0.2,1.5-0.7,2.2c-0.4,0.7-1.1,1.2-2,1.6s-2,0.6-3.3,0.6
		C250.5,708.9,249.4,708.7,248.4,708.4z"/>
	<path class="st3" d="M262.5,697.3H258v-2.6h12.2v2.6h-4.5v11.4h-3.2V697.3z"/>
	<path class="st3" d="M271.9,694.6h3.2v14h-3.2V694.6z"/>
	<path class="st3" d="M291.2,708.6v-8.4l-4.1,6.9h-1.5l-4.1-6.7v8.2h-3v-14h2.7l5.2,8.7l5.2-8.7h2.7v14H291.2z"/>
	<path class="st3" d="M308.4,706v2.6h-10.8v-14h10.6v2.6h-7.4v3h6.5v2.5h-6.5v3.2h7.6L308.4,706L308.4,706z"/>
	<path class="st3" d="M323.8,694.6v14h-2.7l-7-8.5v8.5H311v-14h2.7l7,8.5v-8.5H323.8z"/>
	<path class="st3" d="M330.1,697.3h-4.5v-2.6h12.2v2.6h-4.5v11.4h-3.2V697.3z"/>
	<path class="st3" d="M342.2,707.9c-1.2-0.6-2.1-1.5-2.7-2.6s-1-2.3-1-3.7s0.3-2.6,1-3.7s1.6-2,2.7-2.6c1.2-0.6,2.5-0.9,3.9-0.9
		c1.5,0,2.8,0.3,3.9,0.9s2.1,1.5,2.7,2.6c0.7,1.1,1,2.3,1,3.7s-0.3,2.6-1,3.7c-0.7,1.1-1.6,2-2.7,2.6c-1.2,0.6-2.5,0.9-3.9,0.9
		C344.6,708.9,343.3,708.6,342.2,707.9z M348.3,705.5c0.7-0.4,1.2-0.9,1.6-1.6c0.4-0.7,0.6-1.5,0.6-2.3c0-0.9-0.2-1.6-0.6-2.3
		s-0.9-1.2-1.6-1.6c-0.7-0.4-1.4-0.6-2.2-0.6s-1.6,0.2-2.2,0.6s-1.2,0.9-1.6,1.6c-0.4,0.7-0.6,1.5-0.6,2.3c0,0.9,0.2,1.6,0.6,2.3
		s0.9,1.2,1.6,1.6s1.4,0.6,2.2,0.6C346.9,706.1,347.7,705.9,348.3,705.5z"/>
</g>
<g>
	<path class="st3" d="M173.4,766.8l-7.6-10.9h-0.4h-7.9v10.9h-9.1v-39.2h17c3.5,0,6.5,0.6,9,1.7c2.6,1.2,4.5,2.8,5.9,4.9
		s2.1,4.6,2.1,7.6c0,2.9-0.7,5.4-2.1,7.5c-1.4,2.1-3.4,3.7-6,4.8l8.8,12.6h-9.7V766.8z M171.1,736.8c-1.4-1.2-3.5-1.8-6.2-1.8h-7.4
		v13.7h7.4c2.7,0,4.8-0.6,6.2-1.8s2.1-2.9,2.1-5C173.3,739.6,172.6,738,171.1,736.8z"/>
	<path class="st3" d="M215.8,763.2c-2.2,2.2-5.5,3.5-9.7,4.1v6.3h-5.6v-6.1c-2.8-0.1-5.4-0.6-7.9-1.5c-2.5-0.8-4.5-1.8-6-3l3.1-6.8
		c1.4,1,3.1,1.9,5,2.6c1.9,0.7,3.9,1.2,5.9,1.3v-9.4c-2.7-0.6-4.9-1.3-6.7-2.1s-3.4-1.9-4.6-3.4c-1.2-1.5-1.8-3.5-1.8-6
		c0-3.1,1.1-5.8,3.4-8c2.3-2.2,5.5-3.6,9.8-4.1v-6.2h5.6v6.1c4.6,0.4,8.4,1.5,11.4,3.4l-2.8,6.9c-2.8-1.6-5.7-2.6-8.6-2.9v9.5
		c2.6,0.6,4.8,1.3,6.6,2c1.8,0.8,3.3,1.9,4.6,3.4c1.2,1.5,1.8,3.5,1.8,6C219.1,758.4,218,761,215.8,763.2z M197.4,741
		c0.7,0.6,1.7,1.1,3.1,1.5v-8c-1.4,0.3-2.5,0.9-3.1,1.6c-0.7,0.7-1,1.6-1,2.5C196.3,739.6,196.7,740.4,197.4,741z M209.1,758.4
		c0.7-0.7,1-1.5,1-2.4s-0.3-1.7-1-2.3s-1.7-1.1-3-1.6v7.7C207.4,759.6,208.4,759.1,209.1,758.4z"/>
	<path class="st3" d="M248.9,747.4c1.8,2,2.7,4.5,2.7,7.4c0,2.3-0.6,4.4-1.8,6.3c-1.2,1.9-3,3.5-5.5,4.6c-2.4,1.2-5.4,1.7-9,1.7
		c-2.8,0-5.5-0.4-8.1-1.1c-2.7-0.7-4.9-1.8-6.8-3.1l3.5-6.9c1.5,1.1,3.2,2,5.2,2.6s4,0.9,6,0.9c2.3,0,4.1-0.4,5.4-1.3s2-2.1,2-3.7
		c0-3.2-2.4-4.8-7.3-4.8H231v-6l8.1-9.1h-16.7v-7.3h27.4v5.9l-8.8,10.1C244.4,744.1,247,745.4,248.9,747.4z"/>
	<path class="st3" d="M281.7,747.4c1.8,2,2.7,4.5,2.7,7.4c0,2.3-0.6,4.4-1.8,6.3c-1.2,1.9-3,3.5-5.5,4.6c-2.4,1.2-5.4,1.7-9,1.7
		c-2.8,0-5.5-0.4-8.1-1.1c-2.7-0.7-4.9-1.8-6.8-3.1l3.5-6.9c1.5,1.1,3.2,2,5.2,2.6s4,0.9,6,0.9c2.3,0,4.1-0.4,5.4-1.3s2-2.1,2-3.7
		c0-3.2-2.4-4.8-7.3-4.8h-4.1v-6l8.1-9.1h-16.7v-7.3h27.4v5.9l-8.8,10.1C277.3,744.1,279.9,745.4,281.7,747.4z"/>
	<path class="st3" d="M296.8,765.1c-2.5-1.6-4.5-3.9-6-7c-1.4-3-2.2-6.7-2.2-10.9s0.7-7.8,2.2-10.9c1.4-3,3.4-5.4,6-7
		c2.5-1.6,5.4-2.4,8.7-2.4s6.1,0.8,8.7,2.4c2.5,1.6,4.5,3.9,6,7c1.4,3,2.2,6.7,2.2,10.9s-0.7,7.8-2.2,10.9c-1.4,3-3.4,5.4-6,7
		c-2.5,1.6-5.4,2.4-8.7,2.4S299.3,766.7,296.8,765.1z M311.1,756.7c1.4-2.1,2-5.2,2-9.5s-0.7-7.5-2-9.5c-1.4-2.1-3.2-3.1-5.6-3.1
		s-4.2,1-5.6,3.1s-2,5.2-2,9.5s0.7,7.5,2,9.5c1.4,2.1,3.2,3.1,5.6,3.1C307.9,759.8,309.7,758.8,311.1,756.7z"/>
	<path class="st3" d="M335.1,757.9c1,1,1.5,2.3,1.5,3.9c0,0.7-0.1,1.5-0.3,2.2s-0.6,1.9-1.2,3.4l-3.2,8.1h-5.5l2.5-8.9
		c-0.9-0.4-1.7-1-2.2-1.8s-0.8-1.8-0.8-2.9c0-1.6,0.5-2.9,1.5-3.9s2.3-1.5,3.9-1.5C332.8,756.4,334,756.9,335.1,757.9z"/>
	<path class="st3" d="M348,765.1c-2.5-1.6-4.5-3.9-6-7c-1.4-3-2.2-6.7-2.2-10.9s0.7-7.8,2.2-10.9c1.4-3,3.4-5.4,6-7
		c2.5-1.6,5.4-2.4,8.7-2.4s6.1,0.8,8.7,2.4c2.5,1.6,4.5,3.9,6,7c1.4,3,2.2,6.7,2.2,10.9s-0.7,7.8-2.2,10.9c-1.4,3-3.4,5.4-6,7
		c-2.5,1.6-5.4,2.4-8.7,2.4S350.6,766.7,348,765.1z M362.4,756.7c1.4-2.1,2-5.2,2-9.5s-0.7-7.5-2-9.5c-1.4-2.1-3.2-3.1-5.6-3.1
		s-4.2,1-5.6,3.1s-2,5.2-2,9.5s0.7,7.5,2,9.5c1.4,2.1,3.2,3.1,5.6,3.1C359.1,759.8,361,758.8,362.4,756.7z"/>
	<path class="st3" d="M386.1,765.1c-2.5-1.6-4.5-3.9-6-7c-1.4-3-2.2-6.7-2.2-10.9s0.7-7.8,2.2-10.9c1.4-3,3.4-5.4,6-7
		c2.5-1.6,5.4-2.4,8.7-2.4s6.1,0.8,8.7,2.4c2.5,1.6,4.5,3.9,6,7c1.4,3,2.2,6.7,2.2,10.9s-0.7,7.8-2.2,10.9c-1.4,3-3.4,5.4-6,7
		c-2.5,1.6-5.4,2.4-8.7,2.4S388.6,766.7,386.1,765.1z M400.4,756.7c1.4-2.1,2-5.2,2-9.5s-0.7-7.5-2-9.5c-1.4-2.1-3.2-3.1-5.6-3.1
		s-4.2,1-5.6,3.1s-2,5.2-2,9.5s0.7,7.5,2,9.5c1.4,2.1,3.2,3.1,5.6,3.1C397.1,759.8,399,758.8,400.4,756.7z"/>
</g>
</svg>
