<?xml version="1.0" encoding="utf-8"?>
<!-- Generator: Adobe Illustrator 24.0.1, SVG Export Plug-In . SVG Version: 6.00 Build 0)  -->
<svg version="1.1" id="Camada_1" xmlns="http://www.w3.org/2000/svg" xmlns:xlink="http://www.w3.org/1999/xlink" x="0px" y="0px"
	 viewBox="0 0 531.4 806" style="enable-background:new 0 0 531.4 806;" xml:space="preserve">
<style type="text/css">
	.st0{fill:#FFFFFF;}
	.st1{fill:none;}
	.st2{enable-background:new    ;}
	.st3{fill:#8543E3;}
	.st4{fill:#8543E3;stroke:#6247AA;stroke-width:0.25;stroke-miterlimit:10;}
	.st5{fill:#FC8C28;}
</style>
<g>
	<g>
		
			<image style="overflow:visible;opacity:0.2;enable-background:new    ;" width="561" height="837" xlink:href="DC2412F2.png"  transform="matrix(1 0 0 1 -8.6 -8.8)">
		</image>
		<g>
			<path class="st0" d="M471.6,806h-413C26.2,806,0,779.7,0,747.4V58.6C0,26.2,26.3,0,58.6,0h413.1c32.4,0,58.6,26.3,58.6,58.6
				v688.7C530.3,779.7,504,806,471.6,806z"/>
		</g>
	</g>
	<path class="st0" d="M471.2,157.7H59c-32.6,0-59.1-26.5-59.1-59.1V59.1C-0.1,26.5,26.4,0,59,0h412.1c32.6,0,59.1,26.5,59.1,59.1
		v39.5C530.3,131.2,503.8,157.7,471.2,157.7z"/>
	<rect x="-0.1" y="99" class="st0" width="530.3" height="58.2"/>
</g>
<rect x="-1.2" y="57" class="st1" width="532.6" height="101.2"/>
<g class="st2">
	<path class="st3" d="M132.3,104.3c-3.3-1-6-2.2-8-3.8l3.6-7.9c1.9,1.4,4.2,2.6,6.9,3.4c2.7,0.9,5.3,1.3,8,1.3c3,0,5.2-0.4,6.6-1.3
		c1.4-0.9,2.1-2.1,2.1-3.5c0-1.1-0.4-2-1.3-2.7c-0.8-0.7-1.9-1.3-3.2-1.7c-1.3-0.4-3.1-0.9-5.3-1.4c-3.4-0.8-6.3-1.6-8.5-2.5
		c-2.2-0.8-4.1-2.1-5.7-3.9c-1.6-1.8-2.4-4.2-2.4-7.2c0-2.6,0.7-5,2.1-7.1c1.4-2.1,3.6-3.8,6.4-5.1c2.9-1.2,6.4-1.9,10.5-1.9
		c2.9,0,5.7,0.3,8.5,1s5.2,1.7,7.2,3l-3.2,7.9c-4.2-2.4-8.4-3.6-12.5-3.6c-2.9,0-5.1,0.5-6.5,1.4s-2.1,2.2-2.1,3.7s0.8,2.7,2.4,3.5
		s4.1,1.5,7.4,2.2c3.4,0.8,6.3,1.6,8.5,2.5c2.2,0.8,4.1,2.1,5.7,3.9c1.6,1.8,2.4,4.2,2.4,7.2c0,2.6-0.7,4.9-2.2,7.1
		c-1.4,2.1-3.6,3.8-6.5,5.1c-2.9,1.2-6.4,1.9-10.5,1.9C139.1,105.7,135.6,105.2,132.3,104.3z"/>
	<path class="st3" d="M190.7,103.3c-1,0.7-2.2,1.3-3.6,1.6c-1.4,0.4-3,0.5-4.6,0.5c-4.1,0-7.3-1.1-9.6-3.2s-3.4-5.2-3.4-9.3V78.6
		h-5.4v-7.7h5.4v-8.5h10.1v8.5h8.7v7.7h-8.7v14.1c0,1.5,0.4,2.6,1.1,3.4c0.8,0.8,1.8,1.2,3.2,1.2c1.6,0,2.9-0.4,4.1-1.3L190.7,103.3
		z"/>
	<path class="st3" d="M222.8,73.5c2.9,2.6,4.3,6.4,4.3,11.6v19.8h-9.4v-4.3c-1.9,3.2-5.4,4.8-10.6,4.8c-2.7,0-5-0.5-6.9-1.4
		c-2-0.9-3.5-2.2-4.5-3.7c-1-1.6-1.5-3.4-1.5-5.4c0-3.2,1.2-5.8,3.6-7.6c2.4-1.9,6.2-2.8,11.3-2.8h8c0-2.2-0.7-3.9-2-5.1
		s-3.3-1.8-6-1.8c-1.9,0-3.7,0.3-5.5,0.9s-3.3,1.4-4.6,2.4l-3.6-7c1.9-1.3,4.2-2.4,6.8-3.1s5.4-1.1,8.2-1.1
		C215.8,69.7,219.9,71,222.8,73.5z M214.2,97.5c1.3-0.8,2.3-2,2.8-3.5v-3.6h-6.9c-4.1,0-6.2,1.4-6.2,4.1c0,1.3,0.5,2.3,1.5,3.1
		c1,0.8,2.4,1.1,4.2,1.1C211.4,98.7,212.9,98.3,214.2,97.5z"/>
	<path class="st3" d="M267.8,73.6c2.6,2.6,4,6.4,4,11.5V105h-10.1V86.7c0-2.8-0.6-4.8-1.8-6.2c-1.2-1.4-2.9-2-5.2-2
		c-2.5,0-4.6,0.8-6.1,2.4s-2.3,3.9-2.3,7v17.2h-10.1V70.2h9.6v4.1c1.3-1.5,3-2.6,5-3.4s4.2-1.2,6.5-1.2
		C261.7,69.7,265.1,71,267.8,73.6z"/>
	<path class="st3" d="M316.6,57v47.9H307v-4c-2.5,3-6.1,4.5-10.8,4.5c-3.3,0-6.2-0.7-8.9-2.2c-2.6-1.5-4.7-3.6-6.2-6.3
		c-1.5-2.7-2.3-5.9-2.3-9.4c0-3.6,0.8-6.7,2.3-9.4c1.5-2.7,3.6-4.8,6.2-6.3s5.6-2.2,8.9-2.2c4.4,0,7.9,1.4,10.4,4.2V57H316.6z
		 M304.2,94.6c1.7-1.7,2.5-4.1,2.5-7s-0.8-5.3-2.5-7s-3.8-2.6-6.3-2.6c-2.6,0-4.7,0.9-6.4,2.6c-1.7,1.7-2.5,4.1-2.5,7s0.8,5.3,2.5,7
		s3.8,2.6,6.4,2.6S302.6,96.3,304.2,94.6z"/>
	<path class="st3" d="M352.4,73.5c2.9,2.6,4.3,6.4,4.3,11.6v19.8h-9.4v-4.3c-1.9,3.2-5.4,4.8-10.6,4.8c-2.7,0-5-0.5-6.9-1.4
		c-2-0.9-3.5-2.2-4.5-3.7c-1-1.6-1.5-3.4-1.5-5.4c0-3.2,1.2-5.8,3.6-7.6c2.4-1.9,6.2-2.8,11.3-2.8h8c0-2.2-0.7-3.9-2-5.1
		s-3.3-1.8-6-1.8c-1.9,0-3.7,0.3-5.5,0.9s-3.3,1.4-4.6,2.4l-3.6-7c1.9-1.3,4.2-2.4,6.8-3.1c2.6-0.7,5.4-1.1,8.2-1.1
		C345.3,69.7,349.5,71,352.4,73.5z M343.8,97.5c1.3-0.8,2.3-2,2.8-3.5v-3.6h-6.9c-4.1,0-6.2,1.4-6.2,4.1c0,1.3,0.5,2.3,1.5,3.1
		c1,0.8,2.4,1.1,4.2,1.1C340.9,98.7,342.4,98.3,343.8,97.5z"/>
	<path class="st3" d="M380.3,71c2-0.9,4.4-1.3,7.1-1.3V79c-1.1-0.1-1.9-0.1-2.3-0.1c-2.9,0-5.1,0.8-6.8,2.4c-1.6,1.6-2.5,4-2.5,7.3
		V105h-10.1V70.2h9.6v4.6C376.6,73.1,378.2,71.8,380.3,71z"/>
	<path class="st3" d="M417,103.3c-1,0.7-2.2,1.3-3.6,1.6c-1.4,0.4-3,0.5-4.6,0.5c-4.1,0-7.3-1.1-9.6-3.2c-2.3-2.1-3.4-5.2-3.4-9.3
		V78.6h-5.4v-7.7h5.4v-8.5h10.1v8.5h8.7v7.7h-8.7v14.1c0,1.5,0.4,2.6,1.1,3.4c0.8,0.8,1.8,1.2,3.2,1.2c1.6,0,2.9-0.4,4.1-1.3
		L417,103.3z"/>
</g>
<rect x="227.4" y="499.4" transform="matrix(6.131134e-03 -1 1 6.131134e-03 -502.1763 1024.995)" class="st1" width="74.3" height="531.5"/>
<rect x="169.2" y="686.7" class="st1" width="191.6" height="47"/>
<rect x="-1.6" y="140.2" class="st4" width="534" height="1"/>
<g>
	<g>
		<path id="Check_1_" class="st5" d="M76.8,325.6c-0.5-0.5-1.3-0.5-1.9,0L56.4,344l-8.1-8c-0.5-0.5-1.3-0.5-1.9,0
			c-0.5,0.5-0.5,1.3,0,1.8l9.1,8.9c0.5,0.5,1.3,0.5,1.9,0l19.5-19.3C77.3,326.9,77.3,326.1,76.8,325.6S77.3,326.1,76.8,325.6z"/>
	</g>
</g>
<rect x="19.9" y="325.3" class="st1" width="489.5" height="25.9"/>
<g class="st2">
	<path class="st5" d="M114,347.6v-15.3l-7.6,12.8H105l-7.6-12.7v15.2h-2.9v-21H97l8.8,14.8l8.6-14.8h2.5v21H114z"/>
	<path class="st5" d="M137,340.6h-12.9c0.2,1.4,0.8,2.5,1.8,3.4c1.1,0.9,2.4,1.3,3.9,1.3c1.9,0,3.4-0.6,4.6-1.9l1.6,1.9
		c-0.7,0.8-1.6,1.5-2.7,1.9c-1.1,0.4-2.3,0.7-3.6,0.7c-1.7,0-3.2-0.3-4.5-1s-2.3-1.7-3-2.9c-0.7-1.2-1.1-2.6-1.1-4.2
		c0-1.5,0.3-2.9,1-4.2c0.7-1.2,1.6-2.2,2.9-2.9c1.2-0.7,2.6-1,4.1-1c1.5,0,2.9,0.3,4.1,1c1.2,0.7,2.1,1.7,2.8,2.9
		c0.7,1.2,1,2.7,1,4.3C137.1,340,137.1,340.3,137,340.6z M125.8,335.2c-0.9,0.8-1.5,1.9-1.6,3.3h10.2c-0.2-1.3-0.7-2.4-1.6-3.3
		c-0.9-0.9-2.1-1.3-3.5-1.3C127.8,334,126.7,334.4,125.8,335.2z"/>
	<path class="st5" d="M141.1,328.1c-0.4-0.4-0.6-0.8-0.6-1.3s0.2-1,0.6-1.3c0.4-0.4,0.8-0.6,1.4-0.6c0.6,0,1,0.2,1.4,0.5
		s0.6,0.8,0.6,1.3s-0.2,1-0.6,1.4c-0.4,0.4-0.8,0.6-1.4,0.6C142,328.6,141.5,328.5,141.1,328.1z M141.1,331.7h2.9v15.9h-2.9V331.7z"
		/>
	<path class="st5" d="M160.3,333.2c1.2,1.1,1.8,2.7,1.8,4.8v9.6h-2.7v-2.1c-0.5,0.7-1.2,1.3-2.1,1.7c-0.9,0.4-1.9,0.6-3.2,0.6
		c-1.8,0-3.2-0.4-4.3-1.3s-1.6-2-1.6-3.4s0.5-2.5,1.5-3.4c1-0.8,2.6-1.3,4.9-1.3h4.6v-0.6c0-1.2-0.4-2.2-1.1-2.9s-1.8-1-3.2-1
		c-0.9,0-1.9,0.2-2.8,0.5s-1.7,0.7-2.3,1.2l-1.2-2.2c0.8-0.7,1.8-1.2,2.9-1.5s2.3-0.5,3.6-0.5C157.4,331.6,159.1,332.1,160.3,333.2z
		 M157.4,344.8c0.8-0.5,1.4-1.2,1.7-2.1v-2.2h-4.4c-2.4,0-3.7,0.8-3.7,2.5c0,0.8,0.3,1.4,0.9,1.9s1.5,0.7,2.6,0.7
		C155.7,345.6,156.6,345.3,157.4,344.8z"/>
	<path class="st5" d="M188.8,333.3c1.2,1.2,1.8,2.9,1.8,5.1v9.2h-2.9v-8.8c0-1.5-0.4-2.7-1.1-3.5c-0.7-0.8-1.8-1.2-3.2-1.2
		c-1.6,0-2.8,0.5-3.7,1.4s-1.4,2.2-1.4,3.9v8.2h-2.9v-22.3h2.9v8.6c0.6-0.8,1.4-1.3,2.4-1.8s2.1-0.6,3.3-0.6
		C186,331.6,187.6,332.1,188.8,333.3z"/>
	<path class="st5" d="M198.5,346.7c-1.3-0.7-2.2-1.7-3-2.9c-0.7-1.2-1.1-2.6-1.1-4.2s0.4-3,1.1-4.2c0.7-1.2,1.7-2.2,3-2.9
		c1.3-0.7,2.7-1,4.3-1s3,0.3,4.2,1s2.2,1.6,2.9,2.9c0.7,1.2,1.1,2.6,1.1,4.2s-0.4,3-1.1,4.2s-1.7,2.2-2.9,2.9c-1.3,0.7-2.7,1-4.2,1
		C201.2,347.8,199.8,347.4,198.5,346.7z M205.5,344.6c0.8-0.5,1.4-1.1,1.9-2c0.5-0.8,0.7-1.8,0.7-2.9s-0.2-2.1-0.7-2.9
		s-1.1-1.5-1.9-2s-1.7-0.7-2.7-0.7s-1.9,0.2-2.7,0.7s-1.5,1.1-1.9,2c-0.5,0.9-0.7,1.8-0.7,2.9s0.2,2.1,0.7,2.9
		c0.5,0.9,1.1,1.5,1.9,2s1.7,0.7,2.7,0.7S204.7,345,205.5,344.6z"/>
	<path class="st5" d="M220,332.3c1-0.5,2.2-0.7,3.6-0.7v2.8c-0.2,0-0.4,0-0.7,0c-1.6,0-2.8,0.5-3.7,1.4s-1.3,2.3-1.3,4v7.9H215
		v-15.9h2.8v2.7C218.3,333.5,219,332.8,220,332.3z"/>
	<path class="st5" d="M237.9,333.2c1.2,1.1,1.8,2.7,1.8,4.8v9.6H237v-2.1c-0.5,0.7-1.2,1.3-2.1,1.7c-0.9,0.4-1.9,0.6-3.2,0.6
		c-1.8,0-3.2-0.4-4.3-1.3s-1.6-2-1.6-3.4s0.5-2.5,1.5-3.4c1-0.8,2.6-1.3,4.9-1.3h4.6v-0.6c0-1.2-0.4-2.2-1.1-2.9s-1.8-1-3.2-1
		c-0.9,0-1.9,0.2-2.8,0.5s-1.7,0.7-2.3,1.2l-1.2-2.2c0.8-0.7,1.8-1.2,2.9-1.5s2.3-0.5,3.6-0.5C235.1,331.6,236.8,332.1,237.9,333.2z
		 M235.1,344.8c0.8-0.5,1.4-1.2,1.7-2.1v-2.2h-4.4c-2.4,0-3.7,0.8-3.7,2.5c0,0.8,0.3,1.4,0.9,1.9s1.5,0.7,2.6,0.7
		S234.3,345.3,235.1,344.8z"/>
	<path class="st5" d="M268.1,325.3v22.3h-2.8v-2.5c-0.6,0.9-1.5,1.5-2.4,2c-1,0.5-2.1,0.7-3.2,0.7c-1.5,0-2.9-0.3-4.1-1
		s-2.2-1.6-2.9-2.9c-0.7-1.2-1-2.6-1-4.2s0.3-3,1-4.2s1.6-2.2,2.9-2.9c1.2-0.7,2.6-1,4.1-1c1.1,0,2.2,0.2,3.2,0.6s1.8,1.1,2.4,1.9
		v-8.8H268.1z M262.6,344.6c0.8-0.5,1.5-1.1,1.9-2c0.5-0.8,0.7-1.8,0.7-2.9s-0.2-2.1-0.7-2.9s-1.1-1.5-1.9-2s-1.7-0.7-2.7-0.7
		s-1.9,0.2-2.7,0.7s-1.5,1.1-1.9,2c-0.5,0.9-0.7,1.8-0.7,2.9s0.2,2.1,0.7,2.9c0.5,0.9,1.1,1.5,1.9,2s1.7,0.7,2.7,0.7
		S261.8,345,262.6,344.6z"/>
	<path class="st5" d="M287.9,340.6H275c0.2,1.4,0.8,2.5,1.8,3.4c1.1,0.9,2.4,1.3,3.9,1.3c1.9,0,3.4-0.6,4.6-1.9l1.6,1.9
		c-0.7,0.8-1.6,1.5-2.7,1.9s-2.3,0.7-3.6,0.7c-1.7,0-3.2-0.3-4.5-1s-2.3-1.7-3-2.9c-0.7-1.2-1.1-2.6-1.1-4.2c0-1.5,0.3-2.9,1-4.2
		c0.7-1.2,1.6-2.2,2.9-2.9c1.2-0.7,2.6-1,4.1-1s2.9,0.3,4.1,1s2.1,1.7,2.8,2.9c0.7,1.2,1,2.7,1,4.3
		C287.9,340,287.9,340.3,287.9,340.6z M276.6,335.2c-0.9,0.8-1.5,1.9-1.6,3.3h10.2c-0.2-1.3-0.7-2.4-1.6-3.3s-2.1-1.3-3.5-1.3
		C278.7,334,277.5,334.4,276.6,335.2z"/>
	<path class="st5" d="M324.6,333.3c1.2,1.2,1.8,2.9,1.8,5.2v9.2h-2.9v-8.8c0-1.5-0.4-2.7-1.1-3.5s-1.7-1.2-3-1.2
		c-1.5,0-2.6,0.5-3.5,1.4s-1.3,2.2-1.3,3.9v8.2h-2.9v-8.8c0-1.5-0.4-2.7-1.1-3.5s-1.7-1.2-3-1.2c-1.5,0-2.6,0.5-3.5,1.4
		s-1.3,2.2-1.3,3.9v8.2h-2.9v-15.9h2.8v2.4c0.6-0.8,1.3-1.4,2.3-1.9c0.9-0.4,2-0.6,3.2-0.6s2.3,0.3,3.3,0.8s1.7,1.2,2.2,2.2
		c0.6-0.9,1.4-1.6,2.5-2.2c1.1-0.5,2.3-0.8,3.6-0.8C321.9,331.6,323.5,332.1,324.6,333.3z"/>
	<path class="st5" d="M346.1,340.6h-12.9c0.2,1.4,0.8,2.5,1.8,3.4c1.1,0.9,2.4,1.3,3.9,1.3c1.9,0,3.4-0.6,4.6-1.9l1.6,1.9
		c-0.7,0.8-1.6,1.5-2.7,1.9s-2.3,0.7-3.6,0.7c-1.7,0-3.2-0.3-4.5-1s-2.3-1.7-3-2.9c-0.7-1.2-1.1-2.6-1.1-4.2c0-1.5,0.3-2.9,1-4.2
		c0.7-1.2,1.6-2.2,2.9-2.9c1.2-0.7,2.6-1,4.1-1s2.9,0.3,4.1,1s2.1,1.7,2.8,2.9c0.7,1.2,1,2.7,1,4.3
		C346.2,340,346.1,340.3,346.1,340.6z M334.8,335.2c-0.9,0.8-1.5,1.9-1.6,3.3h10.2c-0.2-1.3-0.7-2.4-1.6-3.3s-2.1-1.3-3.5-1.3
		C336.9,334,335.8,334.4,334.8,335.2z"/>
	<path class="st5" d="M363.5,333.3c1.2,1.2,1.8,2.9,1.8,5.1v9.2h-2.9v-8.8c0-1.5-0.4-2.7-1.1-3.5s-1.8-1.2-3.2-1.2
		c-1.6,0-2.8,0.5-3.7,1.4c-0.9,0.9-1.4,2.2-1.4,3.9v8.2h-2.9v-15.9h2.8v2.4c0.6-0.8,1.4-1.5,2.4-1.9s2.1-0.7,3.4-0.7
		C360.7,331.6,362.3,332.1,363.5,333.3z"/>
	<path class="st5" d="M379.5,346.7c-0.4,0.4-0.9,0.6-1.6,0.8c-0.6,0.2-1.3,0.3-1.9,0.3c-1.6,0-2.8-0.4-3.7-1.3
		c-0.9-0.9-1.3-2.1-1.3-3.7v-8.7h-2.7v-2.4h2.7v-3.5h2.9v3.5h4.6v2.4h-4.6v8.6c0,0.9,0.2,1.5,0.6,2s1,0.7,1.8,0.7
		c0.9,0,1.6-0.3,2.3-0.8L379.5,346.7z"/>
	<path class="st5" d="M385,346.7c-1.3-0.7-2.2-1.7-3-2.9c-0.7-1.2-1.1-2.6-1.1-4.2s0.4-3,1.1-4.2s1.7-2.2,3-2.9c1.3-0.7,2.7-1,4.3-1
		c1.6,0,3,0.3,4.2,1s2.2,1.6,2.9,2.9c0.7,1.2,1.1,2.6,1.1,4.2s-0.4,3-1.1,4.2s-1.7,2.2-2.9,2.9c-1.3,0.7-2.7,1-4.2,1
		C387.7,347.8,386.3,347.4,385,346.7z M392,344.6c0.8-0.5,1.4-1.1,1.9-2c0.5-0.8,0.7-1.8,0.7-2.9s-0.2-2.1-0.7-2.9s-1.1-1.5-1.9-2
		s-1.7-0.7-2.7-0.7s-1.9,0.2-2.7,0.7s-1.5,1.1-1.9,2c-0.5,0.9-0.7,1.8-0.7,2.9s0.2,2.1,0.7,2.9c0.5,0.9,1.1,1.5,1.9,2
		s1.7,0.7,2.7,0.7S391.2,345,392,344.6z"/>
	<path class="st5" d="M406.5,332.3c1-0.5,2.2-0.7,3.6-0.7v2.8c-0.2,0-0.4,0-0.7,0c-1.6,0-2.8,0.5-3.7,1.4c-0.9,0.9-1.3,2.3-1.3,4
		v7.9h-2.9v-15.9h2.8v2.7C404.8,333.5,405.5,332.8,406.5,332.3z"/>
	<path class="st5" d="M413.6,328.1c-0.4-0.4-0.6-0.8-0.6-1.3s0.2-1,0.6-1.3c0.4-0.4,0.8-0.6,1.4-0.6s1,0.2,1.4,0.5s0.6,0.8,0.6,1.3
		s-0.2,1-0.6,1.4s-0.8,0.6-1.4,0.6C414.5,328.6,414,328.5,413.6,328.1z M413.6,331.7h2.9v15.9h-2.9V331.7z"/>
	<path class="st5" d="M432.8,333.2c1.2,1.1,1.8,2.7,1.8,4.8v9.6h-2.7v-2.1c-0.5,0.7-1.2,1.3-2.1,1.7c-0.9,0.4-1.9,0.6-3.2,0.6
		c-1.8,0-3.2-0.4-4.3-1.3c-1.1-0.9-1.6-2-1.6-3.4s0.5-2.5,1.5-3.4c1-0.8,2.6-1.3,4.9-1.3h4.6v-0.6c0-1.2-0.4-2.2-1.1-2.9
		s-1.8-1-3.2-1c-0.9,0-1.9,0.2-2.8,0.5s-1.7,0.7-2.3,1.2l-1.2-2.2c0.8-0.7,1.8-1.2,2.9-1.5s2.3-0.5,3.6-0.5
		C430,331.6,431.6,332.1,432.8,333.2z M429.9,344.8c0.8-0.5,1.4-1.2,1.7-2.1v-2.2h-4.4c-2.4,0-3.7,0.8-3.7,2.5
		c0,0.8,0.3,1.4,0.9,1.9s1.5,0.7,2.6,0.7C428.2,345.6,429.1,345.3,429.9,344.8z"/>
</g>
<g>
	<g>
		<path id="Check_2_" class="st5" d="M76.8,403.6c-0.5-0.5-1.3-0.5-1.9,0L56.4,422l-8.1-8c-0.5-0.5-1.3-0.5-1.9,0
			c-0.5,0.5-0.5,1.3,0,1.8l9.1,8.9c0.5,0.5,1.3,0.5,1.9,0l19.5-19.3C77.3,404.9,77.3,404.1,76.8,403.6S77.3,404.1,76.8,403.6z"/>
	</g>
</g>
<rect x="19.9" y="403.3" class="st1" width="489.5" height="37.9"/>
<g class="st2">
	<path class="st5" d="M123.9,423v2.6h-15.2v-21h14.8v2.6h-11.8v6.4h10.5v2.6h-10.5v6.8H123.9z"/>
	<path class="st5" d="M128.9,425.3c-1.2-0.3-2.1-0.8-2.8-1.3l1.2-2.3c0.7,0.5,1.5,0.9,2.6,1.2c1,0.3,2,0.5,3,0.5
		c2.5,0,3.8-0.7,3.8-2.2c0-0.5-0.2-0.9-0.5-1.1c-0.3-0.3-0.8-0.5-1.3-0.6s-1.2-0.3-2.2-0.4c-1.3-0.2-2.3-0.4-3.1-0.7
		c-0.8-0.3-1.5-0.7-2.1-1.3c-0.6-0.6-0.9-1.5-0.9-2.6c0-1.4,0.6-2.6,1.8-3.5c1.2-0.9,2.8-1.3,4.8-1.3c1.1,0,2.1,0.1,3.2,0.4
		s1.9,0.6,2.6,1.1l-1.2,2.3c-1.3-0.8-2.8-1.3-4.6-1.3c-1.2,0-2.2,0.2-2.8,0.6s-1,0.9-1,1.6c0,0.5,0.2,0.9,0.5,1.2
		c0.4,0.3,0.8,0.5,1.3,0.7c0.5,0.1,1.3,0.3,2.2,0.5c1.3,0.2,2.3,0.5,3.1,0.7s1.5,0.7,2,1.3c0.6,0.6,0.8,1.4,0.8,2.5
		c0,1.4-0.6,2.6-1.8,3.4s-2.9,1.3-5,1.3C131.4,425.8,130.1,425.6,128.9,425.3z"/>
	<path class="st5" d="M145.8,424.7c-1.3-0.7-2.3-1.7-3-2.9c-0.7-1.2-1.1-2.6-1.1-4.2s0.4-3,1.1-4.2c0.7-1.2,1.7-2.2,3-2.9
		c1.3-0.7,2.7-1,4.3-1c1.4,0,2.7,0.3,3.9,0.9c1.1,0.6,2,1.4,2.6,2.5l-2.2,1.4c-0.5-0.8-1.1-1.3-1.9-1.7c-0.7-0.4-1.6-0.6-2.5-0.6
		c-1,0-2,0.2-2.8,0.7s-1.5,1.1-2,2s-0.7,1.8-0.7,2.9s0.2,2.1,0.7,3c0.5,0.8,1.1,1.5,2,2c0.8,0.5,1.8,0.7,2.8,0.7
		c0.9,0,1.7-0.2,2.5-0.6c0.7-0.4,1.4-0.9,1.9-1.7l2.2,1.4c-0.6,1.1-1.5,1.9-2.6,2.5s-2.4,0.9-3.9,0.9
		C148.5,425.8,147,425.4,145.8,424.7z"/>
	<path class="st5" d="M162.6,424.7c-1.3-0.7-2.2-1.7-3-2.9c-0.7-1.2-1.1-2.6-1.1-4.2s0.4-3,1.1-4.2s1.7-2.2,3-2.9
		c1.3-0.7,2.7-1,4.3-1s3,0.3,4.2,1s2.2,1.6,2.9,2.9c0.7,1.2,1.1,2.6,1.1,4.2s-0.4,3-1.1,4.2c-0.7,1.2-1.7,2.2-2.9,2.9
		c-1.3,0.7-2.7,1-4.2,1C165.3,425.8,163.9,425.4,162.6,424.7z M169.6,422.6c0.8-0.5,1.4-1.1,1.9-2c0.5-0.8,0.7-1.8,0.7-2.9
		s-0.2-2.1-0.7-2.9s-1.1-1.5-1.9-2s-1.7-0.7-2.7-0.7s-1.9,0.2-2.7,0.7s-1.5,1.1-1.9,2c-0.5,0.9-0.7,1.8-0.7,2.9s0.2,2.1,0.7,2.9
		c0.5,0.9,1.1,1.5,1.9,2c0.8,0.5,1.7,0.7,2.7,0.7S168.8,423,169.6,422.6z"/>
	<path class="st5" d="M179.1,403.3h2.9v22.3h-2.9V403.3z"/>
	<path class="st5" d="M200.8,411.3c1.2,1.2,1.8,2.9,1.8,5.1v9.2h-2.9v-8.8c0-1.5-0.4-2.7-1.1-3.5c-0.7-0.8-1.8-1.2-3.2-1.2
		c-1.6,0-2.8,0.5-3.7,1.4s-1.4,2.2-1.4,3.9v8.2h-2.9v-22.3h2.9v8.6c0.6-0.8,1.4-1.3,2.4-1.8s2.1-0.6,3.3-0.6
		C198,409.6,199.6,410.1,200.8,411.3z"/>
	<path class="st5" d="M218.7,411.2c1.2,1.1,1.8,2.7,1.8,4.8v9.6h-2.7v-2.1c-0.5,0.7-1.2,1.3-2.1,1.7c-0.9,0.4-1.9,0.6-3.2,0.6
		c-1.8,0-3.2-0.4-4.3-1.3s-1.6-2-1.6-3.4s0.5-2.5,1.5-3.4c1-0.8,2.6-1.3,4.9-1.3h4.6v-0.6c0-1.2-0.4-2.2-1.1-2.9
		c-0.7-0.7-1.8-1-3.2-1c-0.9,0-1.9,0.2-2.8,0.5c-0.9,0.3-1.7,0.7-2.3,1.2l-1.2-2.2c0.8-0.7,1.8-1.2,2.9-1.5c1.1-0.3,2.3-0.5,3.6-0.5
		C215.9,409.6,217.6,410.1,218.7,411.2z M215.9,422.8c0.8-0.5,1.4-1.2,1.7-2.1v-2.2h-4.4c-2.4,0-3.7,0.8-3.7,2.5
		c0,0.8,0.3,1.4,0.9,1.9s1.5,0.7,2.6,0.7C214.1,423.6,215.1,423.3,215.9,422.8z"/>
	<path class="st5" d="M236.5,424.7c-1.3-0.7-2.2-1.7-3-2.9c-0.7-1.2-1.1-2.6-1.1-4.2s0.4-3,1.1-4.2s1.7-2.2,3-2.9
		c1.3-0.7,2.7-1,4.3-1s3,0.3,4.2,1s2.2,1.6,2.9,2.9c0.7,1.2,1.1,2.6,1.1,4.2s-0.4,3-1.1,4.2s-1.7,2.2-2.9,2.9c-1.3,0.7-2.7,1-4.2,1
		C239.1,425.8,237.7,425.4,236.5,424.7z M243.5,422.6c0.8-0.5,1.4-1.1,1.9-2c0.5-0.8,0.7-1.8,0.7-2.9s-0.2-2.1-0.7-2.9
		s-1.1-1.5-1.9-2s-1.7-0.7-2.7-0.7s-1.9,0.2-2.7,0.7s-1.5,1.1-1.9,2c-0.5,0.9-0.7,1.8-0.7,2.9s0.2,2.1,0.7,2.9
		c0.5,0.9,1.1,1.5,1.9,2s1.7,0.7,2.7,0.7S242.7,423,243.5,422.6z"/>
	<path class="st5" d="M285.7,411.3c1.2,1.2,1.8,2.9,1.8,5.2v9.2h-2.9v-8.8c0-1.5-0.4-2.7-1.1-3.5s-1.7-1.2-3-1.2
		c-1.5,0-2.6,0.5-3.5,1.4s-1.3,2.2-1.3,3.9v8.2h-2.9v-8.8c0-1.5-0.4-2.7-1.1-3.5s-1.7-1.2-3-1.2c-1.5,0-2.6,0.5-3.5,1.4
		s-1.3,2.2-1.3,3.9v8.2H261v-15.9h2.8v2.4c0.6-0.8,1.3-1.4,2.3-1.9c0.9-0.4,2-0.6,3.2-0.6s2.3,0.3,3.3,0.8s1.7,1.2,2.2,2.2
		c0.6-0.9,1.4-1.6,2.5-2.2s2.3-0.8,3.6-0.8C282.9,409.6,284.5,410.1,285.7,411.3z"/>
	<path class="st5" d="M307.1,418.6h-12.9c0.2,1.4,0.8,2.5,1.8,3.4c1.1,0.9,2.4,1.3,3.9,1.3c1.9,0,3.4-0.6,4.6-1.9l1.6,1.9
		c-0.7,0.8-1.6,1.5-2.7,1.9s-2.3,0.7-3.6,0.7c-1.7,0-3.2-0.3-4.5-1s-2.3-1.7-3-2.9c-0.7-1.2-1.1-2.6-1.1-4.2c0-1.5,0.3-2.9,1-4.2
		c0.7-1.3,1.6-2.2,2.9-2.9c1.2-0.7,2.6-1,4.1-1s2.9,0.3,4.1,1s2.1,1.7,2.8,2.9c0.7,1.2,1,2.7,1,4.3
		C307.2,418,307.2,418.3,307.1,418.6z M295.9,413.2c-0.9,0.8-1.5,1.9-1.6,3.3h10.1c-0.2-1.3-0.7-2.4-1.6-3.3s-2.1-1.3-3.5-1.3
		C298,412,296.8,412.4,295.9,413.2z"/>
	<path class="st5" d="M311.2,403.3h2.9v22.3h-2.9V403.3z"/>
	<path class="st5" d="M332.9,411.3c1.2,1.2,1.8,2.9,1.8,5.1v9.2h-2.9v-8.8c0-1.5-0.4-2.7-1.1-3.5s-1.8-1.2-3.2-1.2
		c-1.6,0-2.8,0.5-3.7,1.4c-0.9,0.9-1.4,2.2-1.4,3.9v8.2h-2.9v-22.3h2.9v8.6c0.6-0.8,1.4-1.3,2.4-1.8s2.1-0.6,3.3-0.6
		C330.1,409.6,331.7,410.1,332.9,411.3z"/>
	<path class="st5" d="M342.6,424.7c-1.3-0.7-2.2-1.7-3-2.9c-0.7-1.2-1.1-2.6-1.1-4.2s0.4-3,1.1-4.2s1.7-2.2,3-2.9
		c1.3-0.7,2.7-1,4.3-1c1.6,0,3,0.3,4.2,1s2.2,1.6,2.9,2.9c0.7,1.2,1.1,2.6,1.1,4.2s-0.4,3-1.1,4.2s-1.7,2.2-2.9,2.9
		c-1.3,0.7-2.7,1-4.2,1C345.3,425.8,343.9,425.4,342.6,424.7z M349.6,422.6c0.8-0.5,1.4-1.1,1.9-2c0.5-0.8,0.7-1.8,0.7-2.9
		s-0.2-2.1-0.7-2.9s-1.1-1.5-1.9-2s-1.7-0.7-2.7-0.7s-1.9,0.2-2.7,0.7c-0.8,0.5-1.5,1.1-1.9,2c-0.5,0.9-0.7,1.8-0.7,2.9
		s0.2,2.1,0.7,2.9c0.5,0.9,1.1,1.5,1.9,2s1.7,0.7,2.7,0.7S348.8,423,349.6,422.6z"/>
	<path class="st5" d="M364.1,410.3c1-0.5,2.2-0.7,3.6-0.7v2.8c-0.2,0-0.4,0-0.7,0c-1.6,0-2.8,0.5-3.7,1.4c-0.9,0.9-1.3,2.3-1.3,4
		v7.9h-2.9v-15.9h2.8v2.7C362.4,411.5,363.1,410.8,364.1,410.3z"/>
	<path class="st5" d="M394.5,403.3v22.3h-2.8v-2.5c-0.6,0.9-1.5,1.6-2.4,2c-1,0.5-2.1,0.7-3.2,0.7c-1.5,0-2.9-0.3-4.1-1
		s-2.2-1.6-2.9-2.9c-0.7-1.2-1-2.6-1-4.2s0.3-3,1-4.2s1.6-2.2,2.9-2.8c1.2-0.7,2.6-1,4.1-1c1.1,0,2.2,0.2,3.2,0.6s1.8,1.1,2.4,1.9
		v-8.8h2.8V403.3z M389,422.6c0.8-0.5,1.5-1.1,1.9-2c0.5-0.8,0.7-1.8,0.7-2.9s-0.2-2.1-0.7-2.9s-1.1-1.5-1.9-2s-1.7-0.7-2.7-0.7
		s-1.9,0.2-2.7,0.7c-0.8,0.5-1.5,1.1-1.9,2c-0.5,0.9-0.7,1.8-0.7,2.9s0.2,2.1,0.7,2.9c0.5,0.9,1.1,1.5,1.9,2s1.7,0.7,2.7,0.7
		S388.2,423,389,422.6z"/>
	<path class="st5" d="M400,406.1c-0.4-0.4-0.6-0.8-0.6-1.3s0.2-1,0.6-1.3c0.4-0.4,0.8-0.6,1.4-0.6s1,0.2,1.4,0.5s0.6,0.8,0.6,1.3
		s-0.2,1-0.6,1.4s-0.8,0.6-1.4,0.6C400.8,406.6,400.4,406.5,400,406.1z M400,409.7h2.9v15.9H400V409.7z"/>
	<path class="st5" d="M419.2,411.2c1.2,1.1,1.8,2.7,1.8,4.8v9.6h-2.7v-2.1c-0.5,0.7-1.2,1.3-2.1,1.7c-0.9,0.4-1.9,0.6-3.2,0.6
		c-1.8,0-3.2-0.4-4.3-1.3c-1.1-0.9-1.6-2-1.6-3.4s0.5-2.5,1.5-3.4c1-0.8,2.6-1.3,4.9-1.3h4.6v-0.6c0-1.2-0.4-2.2-1.1-2.9
		s-1.8-1-3.2-1c-0.9,0-1.9,0.2-2.8,0.5s-1.7,0.7-2.3,1.2l-1.2-2.2c0.8-0.7,1.8-1.2,2.9-1.5s2.3-0.5,3.6-0.5
		C416.3,409.6,418,410.1,419.2,411.2z M416.3,422.8c0.8-0.5,1.4-1.2,1.7-2.1v-2.2h-4.4c-2.4,0-3.7,0.8-3.7,2.5
		c0,0.8,0.3,1.4,0.9,1.9s1.5,0.7,2.6,0.7C414.6,423.6,415.5,423.3,416.3,422.8z"/>
</g>
<g>
	<g>
		<path id="Check_3_" class="st5" d="M76.8,482.6c-0.5-0.5-1.3-0.5-1.9,0L56.4,501l-8.1-8c-0.5-0.5-1.3-0.5-1.9,0
			c-0.5,0.5-0.5,1.3,0,1.8l9.1,8.9c0.5,0.5,1.3,0.5,1.9,0l19.5-19.3C77.3,483.9,77.3,483.1,76.8,482.6S77.3,483.1,76.8,482.6z"/>
	</g>
</g>
<rect x="19.9" y="482.3" class="st1" width="489.5" height="37.9"/>
<g class="st2">
	<path class="st5" d="M112.4,499.4h-11.2l-2.3,5.3h-3.1l9.5-21h3l9.5,21h-3.2L112.4,499.4z M111.3,497l-4.5-10.3l-4.5,10.3H111.3z"
		/>
	<path class="st5" d="M133.1,489.6c1.2,0.7,2.2,1.6,2.9,2.8c0.7,1.2,1,2.6,1,4.2s-0.3,3-1,4.2s-1.6,2.2-2.9,2.9s-2.6,1-4.1,1
		c-1.1,0-2.2-0.2-3.1-0.7c-1-0.4-1.8-1.1-2.4-1.9v8.2h-2.9v-21.7h2.8v2.5c0.6-0.9,1.4-1.5,2.4-2c1-0.4,2.1-0.7,3.2-0.7
		C130.5,488.6,131.9,488.9,133.1,489.6z M131.4,501.6c0.8-0.5,1.4-1.1,1.9-2c0.5-0.8,0.7-1.8,0.7-2.9s-0.2-2.1-0.7-2.9
		s-1.1-1.5-1.9-2c-0.8-0.5-1.7-0.7-2.7-0.7s-1.9,0.2-2.7,0.7s-1.5,1.1-1.9,2c-0.5,0.8-0.7,1.8-0.7,2.9s0.2,2.1,0.7,2.9
		c0.5,0.9,1.1,1.5,1.9,2s1.7,0.7,2.7,0.7C129.7,502.3,130.6,502,131.4,501.6z"/>
	<path class="st5" d="M146,489.3c1-0.5,2.2-0.7,3.6-0.7v2.8c-0.2,0-0.4,0-0.7,0c-1.6,0-2.8,0.5-3.7,1.4s-1.3,2.3-1.3,4v7.9H141
		v-15.9h2.8v2.7C144.2,490.5,145,489.8,146,489.3z"/>
	<path class="st5" d="M167.2,497.6h-12.9c0.2,1.4,0.8,2.5,1.8,3.4c1.1,0.9,2.4,1.3,3.9,1.3c1.9,0,3.4-0.6,4.6-1.9l1.6,1.9
		c-0.7,0.8-1.6,1.5-2.7,1.9s-2.3,0.7-3.6,0.7c-1.7,0-3.2-0.3-4.5-1s-2.3-1.7-3-2.9c-0.7-1.2-1.1-2.6-1.1-4.2c0-1.5,0.3-2.9,1-4.2
		c0.7-1.3,1.6-2.2,2.9-2.9c1.2-0.7,2.6-1,4.1-1s2.9,0.3,4.1,1s2.1,1.7,2.8,2.9c0.7,1.2,1,2.7,1,4.3
		C167.3,497,167.3,497.3,167.2,497.6z M156,492.2c-0.9,0.8-1.5,1.9-1.6,3.3h10.2c-0.2-1.3-0.7-2.4-1.6-3.3c-0.9-0.9-2.1-1.3-3.5-1.3
		C158,491,156.9,491.4,156,492.2z"/>
	<path class="st5" d="M172.1,504.3c-1.2-0.3-2.1-0.8-2.8-1.3l1.2-2.3c0.7,0.5,1.5,0.9,2.6,1.2c1,0.3,2,0.5,3,0.5
		c2.5,0,3.8-0.7,3.8-2.2c0-0.5-0.2-0.9-0.5-1.1c-0.3-0.3-0.8-0.5-1.3-0.6s-1.2-0.3-2.2-0.4c-1.3-0.2-2.3-0.4-3.1-0.7
		c-0.8-0.3-1.5-0.7-2.1-1.3s-0.9-1.5-0.9-2.6c0-1.4,0.6-2.6,1.8-3.5s2.8-1.3,4.8-1.3c1.1,0,2.1,0.1,3.2,0.4c1.1,0.3,1.9,0.6,2.6,1.1
		l-1.2,2.3c-1.3-0.8-2.8-1.3-4.6-1.3c-1.2,0-2.2,0.2-2.8,0.6s-1,0.9-1,1.6c0,0.5,0.2,0.9,0.5,1.2c0.4,0.3,0.8,0.5,1.3,0.7
		c0.5,0.1,1.3,0.3,2.2,0.5c1.3,0.2,2.3,0.5,3.1,0.7s1.5,0.7,2,1.3c0.6,0.6,0.8,1.4,0.8,2.5c0,1.4-0.6,2.6-1.8,3.4s-2.9,1.3-5,1.3
		C174.5,504.8,173.3,504.6,172.1,504.3z"/>
	<path class="st5" d="M200.6,497.6h-12.9c0.2,1.4,0.8,2.5,1.8,3.4c1.1,0.9,2.4,1.3,3.9,1.3c1.9,0,3.4-0.6,4.6-1.9l1.6,1.9
		c-0.7,0.8-1.6,1.5-2.7,1.9s-2.3,0.7-3.6,0.7c-1.7,0-3.2-0.3-4.5-1s-2.3-1.7-3-2.9c-0.7-1.2-1.1-2.6-1.1-4.2c0-1.5,0.3-2.9,1-4.2
		c0.7-1.3,1.6-2.2,2.9-2.9c1.2-0.7,2.6-1,4.1-1s2.9,0.3,4.1,1s2.1,1.7,2.8,2.9c0.7,1.2,1,2.7,1,4.3
		C200.7,497,200.7,497.3,200.6,497.6z M189.3,492.2c-0.9,0.8-1.5,1.9-1.6,3.3h10.2c-0.2-1.3-0.7-2.4-1.6-3.3
		c-0.9-0.9-2.1-1.3-3.5-1.3C191.4,491,190.3,491.4,189.3,492.2z"/>
	<path class="st5" d="M218,490.3c1.2,1.2,1.8,2.9,1.8,5.1v9.2h-2.9v-8.8c0-1.5-0.4-2.7-1.1-3.5c-0.7-0.8-1.8-1.2-3.2-1.2
		c-1.6,0-2.8,0.5-3.7,1.4s-1.4,2.2-1.4,3.9v8.2h-2.9v-15.9h2.8v2.4c0.6-0.8,1.4-1.4,2.4-1.9c1-0.4,2.1-0.7,3.4-0.7
		C215.2,488.6,216.8,489.1,218,490.3z"/>
	<path class="st5" d="M234,503.7c-0.4,0.4-0.9,0.6-1.6,0.8c-0.6,0.2-1.3,0.3-1.9,0.3c-1.6,0-2.8-0.4-3.7-1.3s-1.3-2.1-1.3-3.7v-8.7
		h-2.7v-2.4h2.7v-3.5h2.9v3.5h4.6v2.4h-4.6v8.6c0,0.9,0.2,1.5,0.6,2s1,0.7,1.8,0.7c0.9,0,1.6-0.3,2.3-0.8L234,503.7z"/>
	<path class="st5" d="M251.3,497.6h-12.9c0.2,1.4,0.8,2.5,1.8,3.4c1.1,0.9,2.4,1.3,3.9,1.3c1.9,0,3.4-0.6,4.6-1.9l1.6,1.9
		c-0.7,0.8-1.6,1.5-2.7,1.9s-2.3,0.7-3.6,0.7c-1.7,0-3.2-0.3-4.5-1s-2.3-1.7-3-2.9s-1.1-2.6-1.1-4.2c0-1.5,0.3-2.9,1-4.2
		s1.6-2.2,2.9-2.9c1.2-0.7,2.6-1,4.1-1s2.9,0.3,4.1,1s2.1,1.7,2.8,2.9c0.7,1.2,1,2.7,1,4.3C251.3,497,251.3,497.3,251.3,497.6z
		 M240,492.2c-0.9,0.8-1.5,1.9-1.6,3.3h10.2c-0.2-1.3-0.7-2.4-1.6-3.3c-0.9-0.9-2.1-1.3-3.5-1.3C242.1,491,240.9,491.4,240,492.2z"
		/>
	<path class="st5" d="M264.2,504.3c-1.2-0.3-2.1-0.8-2.8-1.3l1.2-2.3c0.7,0.5,1.5,0.9,2.6,1.2c1,0.3,2,0.5,3,0.5
		c2.5,0,3.8-0.7,3.8-2.2c0-0.5-0.2-0.9-0.5-1.1c-0.3-0.3-0.8-0.5-1.3-0.6s-1.2-0.3-2.2-0.4c-1.3-0.2-2.3-0.4-3.1-0.7
		s-1.5-0.7-2.1-1.3s-0.9-1.5-0.9-2.6c0-1.4,0.6-2.6,1.8-3.5c1.2-0.9,2.8-1.3,4.8-1.3c1.1,0,2.1,0.1,3.2,0.4s1.9,0.6,2.6,1.1
		l-1.2,2.3c-1.3-0.8-2.8-1.3-4.6-1.3c-1.2,0-2.2,0.2-2.8,0.6c-0.6,0.4-1,0.9-1,1.6c0,0.5,0.2,0.9,0.5,1.2c0.4,0.3,0.8,0.5,1.3,0.7
		c0.5,0.1,1.3,0.3,2.2,0.5c1.3,0.2,2.3,0.5,3.1,0.7s1.5,0.7,2,1.3c0.6,0.6,0.8,1.4,0.8,2.5c0,1.4-0.6,2.6-1.8,3.4
		c-1.2,0.8-2.9,1.3-5,1.3C266.7,504.8,265.4,504.6,264.2,504.3z"/>
	<path class="st5" d="M292.7,497.6h-12.9c0.2,1.4,0.8,2.5,1.8,3.4c1.1,0.9,2.4,1.3,3.9,1.3c1.9,0,3.4-0.6,4.6-1.9l1.6,1.9
		c-0.7,0.8-1.6,1.5-2.7,1.9s-2.3,0.7-3.6,0.7c-1.7,0-3.2-0.3-4.5-1s-2.3-1.7-3-2.9s-1.1-2.6-1.1-4.2c0-1.5,0.3-2.9,1-4.2
		s1.6-2.2,2.9-2.9c1.2-0.7,2.6-1,4.1-1s2.9,0.3,4.1,1s2.1,1.7,2.8,2.9c0.7,1.2,1,2.7,1,4.3C292.8,497,292.8,497.3,292.7,497.6z
		 M281.5,492.2c-0.9,0.8-1.5,1.9-1.6,3.3h10.2c-0.2-1.3-0.7-2.4-1.6-3.3s-2.1-1.3-3.5-1.3C283.6,491,282.4,491.4,281.5,492.2z"/>
	<path class="st5" d="M311.6,488.7v15.9h-2.7v-2.4c-0.6,0.8-1.3,1.5-2.3,1.9s-2,0.7-3.1,0.7c-2.1,0-3.8-0.6-5-1.8s-1.8-2.9-1.8-5.2
		v-9.2h2.9v8.8c0,1.5,0.4,2.7,1.1,3.5s1.8,1.2,3.2,1.2c1.5,0,2.7-0.5,3.6-1.4s1.3-2.2,1.3-3.9v-8.2h2.8V488.7z"/>
	<path class="st5" d="M337.7,489.6c1.2,0.7,2.2,1.6,2.9,2.8c0.7,1.2,1,2.6,1,4.2s-0.3,3-1,4.2s-1.6,2.2-2.9,2.9s-2.6,1-4.1,1
		c-1.1,0-2.2-0.2-3.1-0.7c-1-0.4-1.8-1.1-2.4-1.9v8.2h-2.9v-21.7h2.8v2.5c0.6-0.9,1.4-1.5,2.4-2c1-0.4,2.1-0.7,3.2-0.7
		C335.1,488.6,336.5,488.9,337.7,489.6z M336.1,501.6c0.8-0.5,1.4-1.1,1.9-2c0.5-0.8,0.7-1.8,0.7-2.9s-0.2-2.1-0.7-2.9
		s-1.1-1.5-1.9-2s-1.7-0.7-2.7-0.7s-1.9,0.2-2.7,0.7s-1.5,1.1-1.9,2c-0.5,0.8-0.7,1.8-0.7,2.9s0.2,2.1,0.7,2.9
		c0.5,0.9,1.1,1.5,1.9,2s1.7,0.7,2.7,0.7C334.4,502.3,335.3,502,336.1,501.6z"/>
	<path class="st5" d="M350.6,489.3c1-0.5,2.2-0.7,3.6-0.7v2.8c-0.2,0-0.4,0-0.7,0c-1.6,0-2.8,0.5-3.7,1.4c-0.9,0.9-1.3,2.3-1.3,4
		v7.9h-2.9v-15.9h2.8v2.7C348.9,490.5,349.6,489.8,350.6,489.3z"/>
	<path class="st5" d="M360.1,503.7c-1.3-0.7-2.2-1.7-3-2.9c-0.7-1.2-1.1-2.6-1.1-4.2s0.4-3,1.1-4.2s1.7-2.2,3-2.9s2.7-1,4.3-1
		c1.6,0,3,0.3,4.2,1s2.2,1.6,2.9,2.9c0.7,1.2,1.1,2.6,1.1,4.2s-0.4,3-1.1,4.2s-1.7,2.2-2.9,2.9c-1.3,0.7-2.7,1-4.2,1
		C362.8,504.8,361.4,504.4,360.1,503.7z M367.1,501.6c0.8-0.5,1.4-1.1,1.9-2c0.5-0.8,0.7-1.8,0.7-2.9s-0.2-2.1-0.7-2.9
		s-1.1-1.5-1.9-2s-1.7-0.7-2.7-0.7s-1.9,0.2-2.7,0.7c-0.8,0.5-1.5,1.1-1.9,2c-0.5,0.9-0.7,1.8-0.7,2.9s0.2,2.1,0.7,2.9
		c0.5,0.9,1.1,1.5,1.9,2s1.7,0.7,2.7,0.7S366.3,502,367.1,501.6z"/>
	<path class="st5" d="M372.6,510.4c-0.6-0.2-1.1-0.4-1.5-0.7l0.9-2.2c0.6,0.5,1.4,0.8,2.3,0.8c0.8,0,1.3-0.2,1.8-0.7
		c0.4-0.5,0.6-1.2,0.6-2.1v-16.7h2.9v16.6c0,1.6-0.4,2.9-1.3,3.9c-0.9,0.9-2.1,1.4-3.8,1.4C373.9,510.6,373.2,510.5,372.6,510.4z
		 M376.8,485.1c-0.4-0.4-0.6-0.8-0.6-1.3s0.2-1,0.6-1.3s0.8-0.6,1.4-0.6s1,0.2,1.4,0.5s0.6,0.8,0.6,1.3s-0.2,1-0.6,1.4
		s-0.8,0.6-1.4,0.6S377.2,485.5,376.8,485.1z"/>
	<path class="st5" d="M399.5,497.6h-12.9c0.2,1.4,0.8,2.5,1.8,3.4c1.1,0.9,2.4,1.3,3.9,1.3c1.9,0,3.4-0.6,4.6-1.9l1.6,1.9
		c-0.7,0.8-1.6,1.5-2.7,1.9s-2.3,0.7-3.6,0.7c-1.7,0-3.2-0.3-4.5-1s-2.3-1.7-3-2.9s-1.1-2.6-1.1-4.2c0-1.5,0.3-2.9,1-4.2
		s1.6-2.2,2.9-2.9c1.2-0.7,2.6-1,4.1-1s2.9,0.3,4.1,1s2.1,1.7,2.8,2.9c0.7,1.2,1,2.7,1,4.3C399.5,497,399.5,497.3,399.5,497.6z
		 M388.2,492.2c-0.9,0.8-1.5,1.9-1.6,3.3h10.2c-0.2-1.3-0.7-2.4-1.6-3.3s-2.1-1.3-3.5-1.3C390.3,491,389.1,491.4,388.2,492.2z"/>
	<path class="st5" d="M412.4,503.7c-0.4,0.4-0.9,0.6-1.6,0.8c-0.6,0.2-1.3,0.3-1.9,0.3c-1.6,0-2.8-0.4-3.7-1.3
		c-0.9-0.9-1.3-2.1-1.3-3.7v-8.7h-2.7v-2.4h2.7v-3.5h2.9v3.5h4.6v2.4h-4.6v8.6c0,0.9,0.2,1.5,0.6,2s1,0.7,1.8,0.7
		c0.9,0,1.6-0.3,2.3-0.8L412.4,503.7z"/>
	<path class="st5" d="M417.9,503.7c-1.3-0.7-2.2-1.7-3-2.9c-0.7-1.2-1.1-2.6-1.1-4.2s0.4-3,1.1-4.2s1.7-2.2,3-2.9s2.7-1,4.3-1
		c1.6,0,3,0.3,4.2,1s2.2,1.6,2.9,2.9c0.7,1.2,1.1,2.6,1.1,4.2s-0.4,3-1.1,4.2s-1.7,2.2-2.9,2.9c-1.3,0.7-2.7,1-4.2,1
		C420.6,504.8,419.2,504.4,417.9,503.7z M424.9,501.6c0.8-0.5,1.4-1.1,1.9-2c0.5-0.8,0.7-1.8,0.7-2.9s-0.2-2.1-0.7-2.9
		s-1.1-1.5-1.9-2s-1.7-0.7-2.7-0.7s-1.9,0.2-2.7,0.7c-0.8,0.5-1.5,1.1-1.9,2c-0.5,0.9-0.7,1.8-0.7,2.9s0.2,2.1,0.7,2.9
		c0.5,0.9,1.1,1.5,1.9,2s1.7,0.7,2.7,0.7S424.1,502,424.9,501.6z"/>
</g>
<g>
	<path class="st3" d="M159.9,767.8l-7.6-10.9h-0.4H144v10.9h-9.1v-39.2h17c3.5,0,6.5,0.6,9,1.7c2.6,1.2,4.5,2.8,5.9,4.9
		c1.4,2.1,2.1,4.6,2.1,7.6c0,2.9-0.7,5.4-2.1,7.5s-3.4,3.7-6,4.8l8.8,12.6h-9.7V767.8z M157.6,737.8c-1.4-1.2-3.5-1.8-6.2-1.8H144
		v13.7h7.4c2.7,0,4.8-0.6,6.2-1.8s2.1-2.9,2.1-5C159.8,740.6,159.1,739,157.6,737.8z"/>
	<path class="st3" d="M202.3,764.2c-2.2,2.2-5.5,3.5-9.7,4.1v6.3H187v-6.1c-2.8-0.1-5.4-0.6-7.9-1.5c-2.5-0.8-4.5-1.8-6-3l3.1-6.8
		c1.4,1,3.1,1.9,5,2.6c1.9,0.7,3.9,1.2,5.9,1.3v-9.4c-2.7-0.6-4.9-1.3-6.7-2.1s-3.4-1.9-4.6-3.4s-1.8-3.5-1.8-6c0-3.1,1.1-5.8,3.4-8
		c2.3-2.2,5.5-3.6,9.8-4.1v-6.2h5.6v6.1c4.6,0.4,8.4,1.5,11.4,3.4l-2.8,6.9c-2.8-1.6-5.7-2.6-8.6-2.9v9.5c2.6,0.6,4.8,1.3,6.6,2
		c1.8,0.8,3.3,1.9,4.6,3.4c1.2,1.5,1.8,3.5,1.8,6C205.6,759.4,204.5,762,202.3,764.2z M183.9,742c0.7,0.6,1.7,1.1,3.1,1.5v-8
		c-1.4,0.3-2.5,0.9-3.1,1.6c-0.7,0.7-1,1.6-1,2.5C182.8,740.6,183.2,741.4,183.9,742z M195.6,759.4c0.7-0.7,1-1.5,1-2.4
		s-0.3-1.7-1-2.3s-1.7-1.1-3-1.6v7.7C193.9,760.6,194.9,760.1,195.6,759.4z"/>
	<path class="st3" d="M223.9,728.6v39.2h-9.1v-31.9H207v-7.3H223.9z"/>
	<path class="st3" d="M261.5,728.6v5.9l-14.6,33.3H237l14.1-31.8h-13v6.4H230v-13.8L261.5,728.6L261.5,728.6z"/>
	<path class="st3" d="M272.5,766.1c-2.5-1.6-4.5-3.9-6-7c-1.4-3-2.2-6.7-2.2-10.9s0.7-7.8,2.2-10.9c1.4-3,3.4-5.4,6-7
		c2.5-1.6,5.4-2.4,8.7-2.4s6.1,0.8,8.7,2.4c2.5,1.6,4.5,3.9,6,7c1.4,3,2.2,6.7,2.2,10.9s-0.7,7.8-2.2,10.9c-1.4,3-3.4,5.4-6,7
		c-2.5,1.6-5.4,2.4-8.7,2.4S275,767.7,272.5,766.1z M286.8,757.7c1.4-2.1,2-5.2,2-9.5s-0.7-7.5-2-9.5c-1.4-2.1-3.2-3.1-5.6-3.1
		s-4.2,1-5.6,3.1s-2,5.2-2,9.5s0.7,7.5,2,9.5c1.4,2.1,3.2,3.1,5.6,3.1C283.6,760.8,285.4,759.8,286.8,757.7z"/>
	<path class="st3" d="M310.7,758.9c1,1,1.5,2.3,1.5,3.9c0,0.7-0.1,1.5-0.3,2.2c-0.2,0.7-0.6,1.9-1.2,3.4l-3.2,8.1H302l2.5-8.9
		c-0.9-0.4-1.7-1-2.2-1.8s-0.8-1.8-0.8-2.9c0-1.6,0.5-2.9,1.5-3.9s2.3-1.5,3.9-1.5S309.7,757.9,310.7,758.9z"/>
	<path class="st3" d="M323.7,766.1c-2.5-1.6-4.5-3.9-6-7c-1.4-3-2.2-6.7-2.2-10.9s0.7-7.8,2.2-10.9c1.4-3,3.4-5.4,6-7
		c2.5-1.6,5.4-2.4,8.7-2.4s6.1,0.8,8.7,2.4c2.5,1.6,4.5,3.9,6,7c1.4,3,2.2,6.7,2.2,10.9s-0.7,7.8-2.2,10.9c-1.4,3-3.4,5.4-6,7
		c-2.5,1.6-5.4,2.4-8.7,2.4S326.3,767.7,323.7,766.1z M338,757.7c1.4-2.1,2-5.2,2-9.5s-0.7-7.5-2-9.5c-1.4-2.1-3.2-3.1-5.6-3.1
		s-4.2,1-5.6,3.1s-2,5.2-2,9.5s0.7,7.5,2,9.5c1.4,2.1,3.2,3.1,5.6,3.1S336.7,759.8,338,757.7z"/>
	<path class="st3" d="M361.8,766.1c-2.5-1.6-4.5-3.9-6-7c-1.4-3-2.2-6.7-2.2-10.9s0.7-7.8,2.2-10.9c1.4-3,3.4-5.4,6-7
		c2.5-1.6,5.4-2.4,8.7-2.4s6.1,0.8,8.7,2.4c2.5,1.6,4.5,3.9,6,7c1.4,3,2.2,6.7,2.2,10.9s-0.7,7.8-2.2,10.9c-1.4,3-3.4,5.4-6,7
		c-2.5,1.6-5.4,2.4-8.7,2.4S364.3,767.7,361.8,766.1z M376.1,757.7c1.4-2.1,2-5.2,2-9.5s-0.7-7.5-2-9.5c-1.4-2.1-3.2-3.1-5.6-3.1
		s-4.2,1-5.6,3.1s-2,5.2-2,9.5s0.7,7.5,2,9.5c1.4,2.1,3.2,3.1,5.6,3.1C372.8,760.8,374.7,759.8,376.1,757.7z"/>
</g>
<g>
	<path class="st3" d="M181.6,690h3.2v14h-3.2V690z"/>
	<path class="st3" d="M201,690v14h-2.6l-7-8.5v8.5h-3.2v-14h2.7l7,8.5V690H201z"/>
	<path class="st3" d="M217.7,690l-6.1,14h-3.2l-6-14h3.5l4.3,10l4.3-10H217.7z"/>
	<path class="st3" d="M229.7,701.4v2.6h-10.8v-14h10.6v2.6h-7.4v3h6.5v2.5h-6.5v3.2h7.6L229.7,701.4L229.7,701.4z"/>
	<path class="st3" d="M233.7,703.8c-1-0.3-1.9-0.7-2.5-1.2l1.1-2.4c0.6,0.4,1.3,0.8,2.1,1.1s1.7,0.4,2.5,0.4c0.9,0,1.6-0.1,2-0.4
		s0.7-0.6,0.7-1.1c0-0.3-0.1-0.6-0.4-0.8s-0.6-0.4-1-0.5s-1-0.3-1.6-0.4c-1.1-0.3-1.9-0.5-2.6-0.8s-1.3-0.7-1.8-1.2
		c-0.5-0.6-0.7-1.3-0.7-2.2c0-0.8,0.2-1.5,0.7-2.2s1.1-1.2,2-1.6c0.9-0.4,2-0.6,3.3-0.6c0.9,0,1.8,0.1,2.6,0.3
		c0.9,0.2,1.6,0.5,2.2,0.9l-1,2.5c-1.3-0.7-2.6-1.1-3.9-1.1c-0.9,0-1.6,0.1-2,0.4c-0.4,0.3-0.6,0.7-0.6,1.2s0.3,0.8,0.8,1.1
		s1.3,0.5,2.3,0.7c1.1,0.3,1.9,0.5,2.6,0.8s1.3,0.7,1.8,1.2s0.7,1.3,0.7,2.2c0,0.8-0.2,1.5-0.7,2.2s-1.1,1.2-2,1.6
		c-0.9,0.4-2,0.6-3.3,0.6C235.8,704.3,234.7,704.1,233.7,703.8z"/>
	<path class="st3" d="M247.8,692.7h-4.5v-2.6h12.2v2.6H251v11.4h-3.2V692.7z"/>
	<path class="st3" d="M257.2,690h3.2v14h-3.2V690z"/>
	<path class="st3" d="M276.5,704v-8.4l-4.1,6.9h-1.5l-4.1-6.7v8.2h-3v-14h2.7l5.2,8.7l5.2-8.7h2.7v14H276.5z"/>
	<path class="st3" d="M293.7,701.4v2.6h-10.8v-14h10.6v2.6h-7.4v3h6.5v2.5h-6.5v3.2h7.6L293.7,701.4L293.7,701.4z"/>
	<path class="st3" d="M309.1,690v14h-2.7l-7-8.5v8.5h-3.2v-14h2.7l7,8.5V690H309.1z"/>
	<path class="st3" d="M315.4,692.7h-4.5v-2.6h12.2v2.6h-4.5v11.4h-3.2V692.7z"/>
	<path class="st3" d="M327.5,703.3c-1.2-0.6-2.1-1.5-2.7-2.6s-1-2.3-1-3.7s0.3-2.6,1-3.7s1.6-2,2.7-2.6c1.2-0.6,2.5-0.9,3.9-0.9
		c1.5,0,2.8,0.3,3.9,0.9c1.2,0.6,2.1,1.5,2.7,2.6c0.7,1.1,1,2.3,1,3.7s-0.3,2.6-1,3.7c-0.7,1.1-1.6,2-2.7,2.6
		c-1.2,0.6-2.5,0.9-3.9,0.9C329.9,704.3,328.6,704,327.5,703.3z M333.6,701c0.7-0.4,1.2-0.9,1.6-1.6c0.4-0.7,0.6-1.5,0.6-2.3
		c0-0.9-0.2-1.6-0.6-2.3s-0.9-1.2-1.6-1.6c-0.7-0.4-1.4-0.6-2.2-0.6s-1.6,0.2-2.2,0.6c-0.7,0.4-1.2,0.9-1.6,1.6
		c-0.4,0.7-0.6,1.5-0.6,2.3c0,0.9,0.2,1.6,0.6,2.3s0.9,1.2,1.6,1.6c0.7,0.4,1.4,0.6,2.2,0.6S333,701.3,333.6,701z"/>
</g>
</svg>
