<?xml version="1.0" encoding="utf-8"?>
<!-- Generator: Adobe Illustrator 24.0.1, SVG Export Plug-In . SVG Version: 6.00 Build 0)  -->
<svg version="1.1" id="Camada_1" xmlns="http://www.w3.org/2000/svg" xmlns:xlink="http://www.w3.org/1999/xlink" x="0px" y="0px"
	 viewBox="0 0 50 50" style="enable-background:new 0 0 50 50;" xml:space="preserve">
<style type="text/css">
	.st0{fill:#7645DD;}
</style>
<g>
	<g>
		<path class="st0" d="M43.7,13c-1.4,0.6-2.9,1-4.5,1.2c1.6-1,2.8-2.5,3.4-4.3c-1.5,0.9-3.2,1.5-4.9,1.9c-1.4-1.5-3.5-2.5-5.7-2.5
			c-4.3,0-7.8,3.5-7.8,7.8c0,0.6,0,1.2,0.2,1.8c-6.5-0.3-12.2-3.4-16-8.1c-0.7,1.2-1.1,2.5-1.1,3.9c0,2.7,1.4,5.1,3.5,6.5
			c-1.3,0-2.5-0.4-3.5-1c0,0,0,0,0,0.1c0,3.8,2.7,6.9,6.2,7.6c-0.6,0.2-1.3,0.3-2,0.3c-0.5,0-1,0-1.5-0.1c1,3.1,3.9,5.3,7.3,5.4
			c-2.6,2.1-6,3.3-9.6,3.3c-0.6,0-1.3,0-1.9-0.1c3.5,2.2,7.5,3.5,12,3.5c14.3,0,22.2-11.9,22.2-22.2c0-0.3,0-0.7,0-1
			C41.3,15.9,42.6,14.6,43.7,13z"/>
	</g>
</g>
</svg>
