<?xml version="1.0" encoding="utf-8"?>
<!-- Generator: Adobe Illustrator 24.0.1, SVG Export Plug-In . SVG Version: 6.00 Build 0)  -->
<svg version="1.1" id="Camada_1" xmlns="http://www.w3.org/2000/svg" xmlns:xlink="http://www.w3.org/1999/xlink" x="0px" y="0px"
	 viewBox="0 0 50 50" style="enable-background:new 0 0 50 50;" xml:space="preserve">
<style type="text/css">
	.st0{fill:#7645DD;}
</style>
<g>
	<g>
		<path class="st0" d="M41.7,14.5c-1-1.8-2.1-2.1-4.3-2.3c-2.2-0.1-7.8-0.2-12.7-0.2c-4.9,0-10.5,0.1-12.7,0.2
			c-2.2,0.1-3.3,0.5-4.3,2.3c-1,1.8-1.6,4.9-1.6,10.3v0v0l0,0c0,5.4,0.5,8.5,1.6,10.3c1,1.8,2.1,2.1,4.3,2.3
			c2.2,0.1,7.8,0.2,12.7,0.2c4.9,0,10.4-0.1,12.7-0.2c2.2-0.2,3.3-0.5,4.3-2.3c1-1.8,1.6-4.9,1.6-10.3v0c0,0,0,0,0,0
			C43.3,19.3,42.8,16.3,41.7,14.5z M20,31.8v-14l11.6,7L20,31.8z"/>
	</g>
</g>
</svg>
