<?xml version="1.0"?>
<svg xmlns="http://www.w3.org/2000/svg" xmlns:xlink="http://www.w3.org/1999/xlink" xmlns:svgjs="http://svgjs.com/svgjs" version="1.1" width="512" height="512" x="0" y="0" viewBox="0 0 512 511" style="enable-background:new 0 0 512 512" xml:space="preserve"><g><path xmlns="http://www.w3.org/2000/svg" d="m485.1875.5h-458.371094c-14.789062 0-26.816406 12.03125-26.816406 26.816406v339.574219c0 14.785156 12.027344 26.8125 26.816406 26.8125h178.359375c-5.40625 17.566406-12.96875 34.125-22.558593 49.382813h-15.320313c-20.921875 0-37.945313 17.019531-37.945313 37.941406 0 9.40625 7.652344 17.054687 17.054688 17.054687h219.1875c9.402344 0 17.054688-7.648437 17.054688-17.054687 0-20.921875-17.019532-37.941406-37.945313-37.941406h-15.320313c-9.589843-15.257813-17.152343-31.816407-22.554687-49.382813h178.359375c14.785156 0 26.8125-12.027344 26.8125-26.8125v-339.574219c0-14.785156-12.027344-26.816406-26.8125-26.816406zm-458.371094 15h458.371094c6.511719 0 11.8125 5.300781 11.8125 11.816406v295.671875h-482v-295.671875c0-6.515625 5.300781-11.816406 11.816406-11.816406zm340.832032 465.53125c0 1.128906-.921876 2.054688-2.054688 2.054688h-219.1875c-1.132812 0-2.054688-.921876-2.054688-2.054688 0-12.652344 10.292969-22.945312 22.945313-22.945312h177.40625c12.652344 0 22.945313 10.292968 22.945313 22.945312zm-55.75-37.945312h-111.796876c8.792969-15.417969 15.738282-31.960938 20.71875-49.382813h70.359376c4.980468 17.417969 11.921874 33.960937 20.71875 49.382813zm173.289062-64.382813h-458.371094c-6.515625 0-11.816406-5.296875-11.816406-11.8125v-28.902344h482v28.902344c0 6.511719-5.300781 11.8125-11.8125 11.8125zm0 0" fill="#8543e3" data-original="#000000" style=""/><path xmlns="http://www.w3.org/2000/svg" d="m35.5 307.988281h441c4.144531 0 7.5-3.359375 7.5-7.5v-121.777343c0-4.144532-3.355469-7.5-7.5-7.5-4.140625 0-7.5 3.355468-7.5 7.5v114.277343h-426v-114.226562c0-4.140625-3.359375-7.5-7.5-7.5-4.144531 0-7.5 3.359375-7.5 7.5v121.726562c0 4.140625 3.355469 7.5 7.5 7.5zm0 0" fill="#8543e3" data-original="#000000" style=""/><path xmlns="http://www.w3.org/2000/svg" d="m35.5 156.210938c4.140625 0 7.5-3.359376 7.5-7.5v-104.210938h426v104.210938c0 4.144531 3.359375 7.5 7.5 7.5 4.144531 0 7.5-3.355469 7.5-7.5v-111.710938c0-4.140625-3.355469-7.5-7.5-7.5h-441c-4.144531 0-7.5 3.359375-7.5 7.5v111.710938c0 4.144531 3.355469 7.5 7.5 7.5zm0 0" fill="#8543e3" data-original="#000000" style=""/><path xmlns="http://www.w3.org/2000/svg" d="m120.507812 75.746094c0-7.371094-6-13.367188-13.371093-13.367188h-29.257813c-7.375 0-13.371094 5.996094-13.371094 13.367188v29.261718c0 7.371094 6 13.367188 13.371094 13.367188h29.257813c7.371093 0 13.371093-5.996094 13.371093-13.367188zm-15 27.628906h-26v-25.996094h26zm0 0" fill="#8543e3" data-original="#000000" style=""/><path xmlns="http://www.w3.org/2000/svg" d="m120.507812 149.851562c0-7.375-6-13.371093-13.371093-13.371093h-29.257813c-7.375 0-13.371094 5.996093-13.371094 13.371093v29.257813c0 7.371094 6 13.371094 13.371094 13.371094h29.257813c7.371093 0 13.371093-6 13.371093-13.371094zm-15 27.628907h-26v-26h26zm0 0" fill="#8543e3" data-original="#000000" style=""/><path xmlns="http://www.w3.org/2000/svg" d="m107.136719 209.582031h-29.257813c-7.375 0-13.371094 6-13.371094 13.371094v29.257813c0 7.375 6 13.371093 13.371094 13.371093h29.257813c7.371093 0 13.371093-6 13.371093-13.371093v-29.257813c0-7.375-6-13.371094-13.371093-13.371094zm-1.628907 41h-26v-26h26zm0 0" fill="#8543e3" data-original="#000000" style=""/><path xmlns="http://www.w3.org/2000/svg" d="m193.660156 255.191406c.003906.046875.003906.09375.003906.140625.003907.023438.003907.046875.003907.070313.003906.070312.007812.140625.011719.210937 0 0 0 .003907.003906.003907.003906.070312.011718.140624.015625.210937.003906.015625.003906.027344.003906.039063.007813.066406.015625.128906.027344.195312v.015625c.183593 1.347656.734375 2.65625 1.652343 3.761719 0 0 0 .003906.003907.003906.042969.054688.089843.105469.136719.160156.007812.011719.015624.019532.027343.03125.039063.042969.078125.089844.121094.132813.011719.011719.019531.027343.03125.039062.050781.054688.105469.105469.15625.15625.042969.046875.089844.089844.136719.132813.03125.03125.0625.058594.09375.089844.011718.011718.027344.023437.042968.039062 1.316407 1.195312 2.960938 1.835938 4.625 1.925781.011719 0 .027344.003907.039063.003907.046875 0 .09375.003906.140625.003906h.042969c.058593.003906.121093.003906.179687.003906.066406 0 .128906 0 .191406-.003906h.042969c.046875-.003906.09375-.003906.144531-.007813h.050782c.046875-.003906.09375-.007812.140625-.011719.015625 0 .027343 0 .042969-.003906.050781-.003906.101562-.007812.152343-.011718.007813-.003907.019531-.003907.03125-.003907.054688-.007812.109375-.011719.160157-.019531.007812-.003906.015624-.003906.023437-.003906.226563-.03125.453125-.070313.675781-.121094l118.863282-25.023438c10.375-2.183593 18.019531-11.113281 18.59375-21.71875 2.378906-44.046874 14.277343-61.769531 19.417968-67.441406l28.925782-28.734375c1.414062-1.402343 2.210937-3.3125 2.210937-5.308593.003906-1.992188-.785156-3.90625-2.195313-5.3125l-41.242187-41.246094c-1.40625-1.40625-3.316406-2.195313-5.304687-2.195313h-.011719c-1.996094 0-3.902344.796875-5.308594 2.210938l-28.726563 28.914062c-5.65625 5.136719-23.378906 17.050781-67.449218 19.429688-10.605469.574219-19.535156 8.21875-21.722656 18.59375l-25.023438 118.882812c-.058594.257813-.101562.515625-.132812.777344 0 .011719-.003907.023437-.003907.039063-.007812.058593-.011719.113281-.015625.171874-.003906.023438-.003906.042969-.007812.0625-.003906.054688-.007813.109376-.007813.167969-.003906.015625-.003906.03125-.003906.050781-.003906.066407-.007813.132813-.007813.203126v.074218c-.003906.046875-.003906.089844 0 .132813-.003906.03125-.003906.058593-.003906.085937zm148.441406-171.671875 30.601563 30.601563-18.40625 18.289062-30.480469-30.480468zm-108.554687 54.117188c.785156-3.742188 4.015625-6.5 7.847656-6.707031 18.539063-1 50.910157-4.824219 71.25-18.960938l31.609375 31.609375c-14.136718 20.335937-17.960937 52.710937-18.964844 71.246094-.203124 3.835937-2.964843 7.066406-6.703124 7.851562l-94.28125 19.851563 36.964843-36.96875c3.882813 2.097656 8.1875 3.144531 12.492188 3.144531 6.722656 0 13.441406-2.558594 18.5625-7.675781 10.234375-10.238282 10.234375-26.890625 0-37.128906-4.960938-4.957032-11.554688-7.6875-18.5625-7.6875-7.015625 0-13.605469 2.730468-18.566407 7.6875-4.957031 4.960937-7.6875 11.550781-7.6875 18.566406 0 4.433594 1.09375 8.703125 3.148438 12.496094l-36.960938 36.960937zm28.960937 44.828125c0-3.007813 1.167969-5.832032 3.296876-7.957032 2.125-2.125 4.949218-3.296874 7.957031-3.296874 3.003906 0 5.828125 1.171874 7.953125 3.296874 4.390625 4.386719 4.390625 11.523438 0 15.914063-4.386719 4.386719-11.523438 4.386719-15.910156 0-2.128907-2.125-3.296876-4.953125-3.296876-7.957031zm0 0" fill="#8543e3" data-original="#000000" style=""/></g></svg>
